<?xml version="1.0" encoding="utf-8"?>
<!-- Designed by Vexels.com - 2020 All Rights Reserved - https://vexels.com/terms-and-conditions/  -->
<svg version="1.1" id="Capa_1" xmlns="http://www.w3.org/2000/svg" xmlns:xlink="http://www.w3.org/1999/xlink" x="0px" y="0px"
	 viewBox="0 0 1200 1200" enable-background="new 0 0 1200 1200" xml:space="preserve">
<g>
	<path fill="none" d="M791.865,161.464c0.178,0.733,0.365,1.465,0.552,2.197C792.23,162.929,792.044,162.197,791.865,161.464
		C791.865,161.464,791.865,161.464,791.865,161.464z"/>
	<path fill="none" d="M637.01,831.241c-3.921,4.782-7.863,9.546-11.775,14.335c3.912-4.789,7.854-9.553,11.775-14.334
		c0.083-0.197,0.165-0.393,0.247-0.59C637.175,830.848,637.093,831.044,637.01,831.241z"/>
	<path fill="none" d="M898.71,692.781c1.007,0.023,2.019,0.114,3.024,0.111c-1.005,0.003-2.017-0.088-3.022-0.112
		C898.711,692.781,898.71,692.781,898.71,692.781z"/>
	<path fill="none" d="M565.963,141.141c-1.836-0.512-3.741-0.77-5.689-0.717c-3.467-0.037-6.194,0.457-8.735,1.852
		c2.541-1.396,5.268-1.889,8.735-1.851C562.222,140.372,564.126,140.63,565.963,141.141z"/>
	<path fill="none" d="M638.015,828.253c-0.004,0.194-0.003,0.39,0.004,0.587c0,0,0,0,0,0
		C638.012,828.643,638.011,828.447,638.015,828.253z"/>
	<path fill="none" d="M769.473,444.778c7.668,6.309,16.845,9.739,27.088,11.203c0.659,0.278,1.319,0.555,2.197,0.925
		c-0.878-0.37-1.537-0.647-2.195-0.925C786.318,454.517,777.141,451.087,769.473,444.778z"/>
	<path fill="none" d="M736.478,662.441c-2.052,4.876-4.15,9.732-6.216,14.602c-0.355,0.326-0.711,0.651-1.067,0.977
		c0.355-0.326,0.711-0.651,1.067-0.977C732.328,672.173,734.426,667.317,736.478,662.441z"/>
	<path fill="none" d="M756.335,605.588c0.019,1.507,0.18,3.018,0.531,4.527v0C756.515,608.605,756.354,607.094,756.335,605.588z"/>
	<path fill="none" d="M756.669,612.714C756.669,612.715,756.669,612.715,756.669,612.714c1.673,4.567,3.309,9.151,5.031,13.702
		C759.979,621.866,758.342,617.283,756.669,612.714z"/>
	<path fill="#064E37" d="M300.301,1008.845c9.73-9.393,18.446-19.574,25.916-30.883c4.258-6.447,9.084-12.534,13.872-18.612
		c4.832-6.134,10.72-11.149,17.409-15.213c11.587-7.041,21.957-15.54,31.193-25.489c4.462-4.807,9.36-9.211,14.089-13.767
		c6.444-6.207,12.527-12.71,17.311-20.332c2.25-3.584,4.168-7.325,5.427-11.361c2.848-9.126,2.04-17.959-2.443-26.411
		c-3.728-7.028-8.367-13.414-13.77-19.255c-5.393-5.83-12.079-9.622-19.438-12.329c-3.633-1.336-7.297-2.609-11.005-3.716
		c-5.8-1.73-10.638-4.992-15.002-9.045c-6.187-5.744-11.527-12.255-16.954-18.694c-3.141-3.727-6.452-7.319-9.827-10.837
		c-2.679-2.792-5.515-5.443-8.379-8.048c-10.504-9.555-19.595-20.375-28.457-31.417c-6.159-7.673-9.3-16.408-9.04-26.17
		c0.184-6.881,1.03-13.747,1.623-20.615c0.554-6.426,2.413-12.515,4.625-18.553c4.922-13.432,9.615-26.947,14.496-40.394
		c3.165-8.721,7.334-16.986,11.726-25.149c1.326-2.465,2.929-3.699,5.923-3.725c7.69-0.067,14.966-2.275,21.956-5.315
		c7.564-3.29,15.074-6.712,22.519-10.262c6.051-2.885,12.342-4.375,19.037-4.266c6.741,0.109,13.475,0.089,20.153-1.084
		c1.298-0.228,2.646-0.169,4.252-0.258c0.792,1.743,1.599,3.377,2.286,5.059c1.993,4.874,4.841,9.225,8.011,13.396
		c3.763,4.953,8.782,7.767,14.864,8.715c6.544,1.02,12.363-0.507,17.251-5.137c2.717-2.573,4.907-5.541,6.742-8.78
		c4.011-7.08,6.971-14.584,8.621-22.548c1.467-7.082,2.712-14.211,3.994-21.331c1.525-8.472,3.749-16.737,6.878-24.767
		c3.423-8.782,6.981-17.477,11.205-25.936c4.807-9.628,8.733-19.691,13.324-29.432c5.811-12.331,11.814-24.574,17.935-36.755
		c1.803-3.588,4.124-6.951,6.486-10.217c7.005-9.691,13.971-19.405,20.15-29.651c1.787-2.964,4.205-5.207,7.043-7.105
		c9.255-6.189,18.939-11.63,28.901-16.581c6.785-3.372,13.693-6.507,20.401-10.024c3.86-2.023,7.55-4.429,11.106-6.959
		c4.888-3.478,8.508-8.128,11.16-13.495c3.441-6.964,6.162-14.234,8.134-21.721c3.859-14.655,0.226-27.337-11.042-37.567
		c-2.989-2.713-5.034-5.643-5.98-9.615c-1.382-5.801-4.214-11.016-7.993-15.617c-5.139-6.258-9.813-12.826-14.165-19.648
		c-3.985-6.247-9.653-10.772-15.939-14.482c-6.088-3.593-12.351-6.891-18.539-10.313c-0.884-0.489-1.772-0.974-2.68-1.416
		c-7.914-3.852-13.979-9.618-19.079-16.822c-7.208-10.182-14.175-20.481-20.251-31.379c-2.136-3.832-4.626-7.418-7.671-10.615
		c-7.618-7.998-17.155-12.412-27.809-14.362c-6.44-1.179-13.014-1.708-19.551-2.248c-6.207-0.513-12.449-0.598-18.667-0.997
		c-2.682-0.172-5.363-0.554-8.008-1.037c-2.663-0.486-3.428-1.312-3.436-4.133c-0.01-3.522,0.165-7.063,0.54-10.565
		c0.627-5.854,1.465-11.674,1.486-17.591c0.018-5.05-0.573-9.96-1.871-14.734c-0.236-0.868-0.495-1.732-0.778-2.591
		c-0.142-0.429-0.289-0.858-0.443-1.285c-0.307-0.855-0.639-1.705-0.995-2.55c-2.922,0.798-5.909,1.414-8.755,2.426
		c-10.943,3.89-21.895,7.766-32.744,11.906c-21.268,8.115-41.781,17.92-61.749,28.793c-19.525,10.632-38.265,22.561-56.39,35.469
		c-21.57,15.363-41.6,32.552-60.986,50.525c-9.264,8.589-17.593,18.092-26.273,27.25c-2.66,2.806-5.203,5.728-7.703,8.678
		c-1.188,1.402-2.151,2.994-3.216,4.5c0.312,3.345,0.441,6.718,0.977,10.027c0.834,5.149,3.143,9.618,7.341,12.844
		c1.808,1.389,2.414,2.977,2.451,5.169c0.144,8.42,0.862,16.79,2.126,25.13c1.193,7.87,3.424,15.424,6.058,22.898
		c1.844,5.232,3.918,10.421,5.246,15.788c2.922,11.81,2.611,23.716-0.263,35.512c-1.929,7.915-2.612,15.904-2.482,24.03
		c0.138,8.581-0.159,17.16,1.029,25.712c0.365,2.625-0.007,5.374-0.223,8.051c-0.27,3.354-0.92,6.684-1.073,10.04
		c-0.904,19.786,3.434,38.103,15.526,54.181c5.024,6.68,8.217,14.276,11.009,22.058c0.977,2.722,2.067,5.237,4.32,7.244
		c2.064,1.839,2.898,4.485,3.587,7.121c1.161,4.44,1.347,8.983,1.408,13.53c0.166,12.457,0.128,24.919,0.478,37.37
		c0.307,10.932,0.593,21.897,1.697,32.766c1.069,10.532,3.203,20.954,4.802,31.434c0.888,5.823,1.726,11.656,2.42,17.505
		c0.498,4.192,0.291,8.395-0.331,12.586c-1.317,8.882-3.745,17.431-7.41,25.63c-3.232,7.23-8.025,13.201-14.398,17.907
		c-0.677,0.5-1.338,1.027-2.042,1.488c-5.803,3.796-11.113,8.138-15.779,13.313c-3.74,4.148-8.28,7.428-13.045,10.313
		c-9.558,5.788-17.884,13.186-26.577,20.102c-1.425,1.134-2.66,2.604-3.695,4.115c-5.711,8.332-11.484,16.628-16.953,25.118
		c-10.892,16.908-17.88,35.401-21.71,55.104c-1.123,5.778-2.044,11.595-3.097,17.387c-0.269,1.481-0.692,2.934-1.045,4.399
		c0.613,1.381,1.08,2.852,1.864,4.129c6.153,10.029,12.111,20.192,18.628,29.981c7.73,11.61,15.927,22.904,24.495,33.932
		c8.981,11.559,18.34,22.813,28.399,33.409c12.263,12.917,24.752,25.633,38.076,37.512c10.048,8.958,20.385,17.535,30.998,25.8
		c1.603,1.249,3.164,2.517,5.246,2.865c0.276-0.19,0.6-0.337,0.823-0.577C279.581,1027.115,290.37,1018.433,300.301,1008.845z"/>
	<path fill="#2063A9" d="M369.164,1040.202c19.899-8.345,39.302-17.705,58.239-28.051c17.902-9.78,35.27-20.416,52.117-31.907
		c17.96-12.25,35.266-25.363,51.918-39.338c9.286-7.794,18.294-15.889,27.235-24.08c9.448-8.654,18.569-17.626,27.41-26.866
		c12.217-12.769,24.133-25.828,35.251-39.586c1.295-1.603,2.596-3.202,3.9-4.798c3.912-4.789,7.854-9.553,11.775-14.335
		c0.082-0.196,0.165-0.392,0.247-0.588c0.254-0.604,0.507-1.207,0.761-1.812c-0.006-0.197-0.008-0.393-0.004-0.587
		c0.051-2.525,0.959-4.819,2.11-6.979c0.177-0.332,0.36-0.661,0.546-0.988c2.079-3.643,4.459-7.117,6.727-10.652
		c4.807-7.491,4.784-6.23,2.202-15.372c-1.244-4.404-3.4-8.393-5.659-12.344c-2.668-4.667-5.377-9.322-7.784-14.125
		c-8.857-17.676-5.904-38.306,8.369-53.737c7.323-7.917,16.114-13.701,26.007-17.849c8.715-3.654,17.813-6.095,27.038-8.044
		c8.093-1.71,15.931-4.163,23.565-7.333c2.623-1.089,5.37-1.881,8.06-2.808c0.355-0.326,0.711-0.651,1.067-0.977
		c2.066-4.87,4.164-9.727,6.216-14.602c0.684-1.625,1.363-3.252,2.033-4.883c4.537-11.032,8.998-22.095,13.48-33.149
		c1.577-3.89,3.12-7.793,4.678-11.694c0,0,0,0,0-0.001c0-0.001,0-0.001-0.001-0.002c0.066-0.866,0.131-1.732,0.197-2.598
		c-0.351-1.509-0.512-3.02-0.531-4.527c-0.013-1.004,0.038-2.006,0.137-3.004c0.149-1.497,0.407-2.985,0.727-4.457
		c2.185-10.053,2.95-20.239,3.601-30.472c0.436-6.856,1.521-13.672,2.323-20.505c0.353-3.001,0.823-5.992,1.068-9.002
		c0.523-6.424,0.046-12.736-2.25-18.848c-1.121-2.984-2.108-6.027-2.995-9.089c-1.81-6.253-2.009-12.55-0.398-18.905
		c1.719-6.785,5.372-12.297,10.913-16.474c2.667-2.01,5.531-3.862,8.539-5.297c5.307-2.532,10.608-5.05,15.631-8.101
		c0.718-0.436,1.429-0.883,2.135-1.342c1.081-0.965,2.163-1.93,3.384-3.021c-0.135-0.057-0.265-0.112-0.39-0.164
		c-0.878-0.37-1.538-0.647-2.197-0.925c-10.243-1.464-19.42-4.894-27.088-11.203c-0.511-0.421-1.016-0.854-1.513-1.3
		c-1.838-1.648-3.582-3.475-5.227-5.493c-4.913-6.03-9.173-12.411-12.307-19.56c-4.324-9.863-2.366-18.696,4.13-26.821
		c2.746-3.434,6.083-6.294,9.725-8.738c11.879-7.969,24.073-15.409,37.074-21.441c1.505-0.698,3.136-1.124,4.709-1.676v0
		c0.121-0.233,0.246-0.463,0.373-0.691c0.937-13.099,0.894-26.213,0.773-39.325c-0.04-4.371-0.089-8.741-0.113-13.111
		c-0.067-12.095-0.418-24.205-1.185-36.274c-0.863-13.578-2.169-27.134-3.593-40.667c-1.302-12.366-2.97-24.695-4.58-37.027
		c-0.522-3.997-1.385-7.949-2.066-11.926c-0.653-3.811-1.201-7.641-1.932-11.437c-0.127-0.658-0.268-1.313-0.418-1.966
		c-0.113-0.49-0.23-0.979-0.351-1.468c-0.181-0.733-0.369-1.464-0.556-2.196c-0.187-0.732-0.374-1.463-0.552-2.197
		c-2.237,1.77-4.469,3.546-6.711,5.309c-7.504,5.9-15.679,10.382-25.167,12.269c-5.365,1.067-10.695,0.85-16.337,0.119
		c-0.614,0.829-1.356,1.7-1.953,2.66c-1.922,3.088-4.578,5.323-7.751,7.046c-3.744,2.033-7.735,3.334-11.904,4.029
		c-3.879,0.647-7.702,0.451-11.348-1.335c-10.742-5.262-12.829-19.447-3.999-27.51c1.111-1.015,2.343-1.896,3.784-3.051
		c-0.632-0.818-1.086-1.682-1.779-2.26c-6.025-5.03-13.073-7.632-20.831-8.054c-12.691-0.691-25-3.178-37.145-6.846
		c-6.435-1.943-13.038-3.351-19.604-4.829c-1.579-0.355-3.342-0.222-4.969,0.025c-3.156,0.48-6.26,1.304-9.415,1.798
		c-6.52,1.022-13.097,1.498-19.592,0.06c-11.666-2.583-20.318-9.405-26.387-19.567c-1.81-3.029-3.361-6.214-5.012-9.337
		c-5.982-11.314-14.598-20.06-25.702-26.398c-2.192-1.251-4.43-2.451-6.49-3.897c-8.68-6.097-13.562-14.292-13.564-25.095
		c-1.503,0.08-3.026,0.033-4.506,0.259c-24.268,3.716-48.141,9.203-71.693,16.106c-1.596,0.468-3.107,1.223-4.657,1.843
		c0.356,0.846,0.688,1.696,0.995,2.551c0.154,0.427,0.301,0.856,0.443,1.285c0.283,0.859,0.542,1.723,0.778,2.591
		c1.297,4.774,1.888,9.684,1.871,14.734c-0.02,5.917-0.859,11.737-1.486,17.591c-0.375,3.503-0.549,7.043-0.54,10.565
		c0.008,2.822,0.773,3.648,3.436,4.133c2.646,0.483,5.327,0.865,8.008,1.037c6.218,0.399,12.46,0.484,18.667,0.997
		c6.537,0.54,13.111,1.07,19.551,2.248c10.654,1.95,20.191,6.363,27.809,14.362c3.045,3.197,5.534,6.783,7.671,10.615
		c6.076,10.897,13.043,21.197,20.251,31.379c5.1,7.203,11.165,12.97,19.079,16.822c0.908,0.442,1.796,0.927,2.68,1.416
		c6.189,3.422,12.452,6.72,18.539,10.313c6.286,3.71,11.954,8.236,15.939,14.482c4.352,6.822,9.026,13.391,14.165,19.648
		c3.778,4.601,6.61,9.816,7.993,15.617c0.946,3.973,2.991,6.902,5.98,9.615c11.268,10.23,14.901,22.912,11.042,37.567
		c-1.972,7.487-4.693,14.757-8.134,21.721c-2.652,5.367-6.272,10.017-11.16,13.495c-3.555,2.53-7.246,4.936-11.106,6.959
		c-6.708,3.516-13.616,6.651-20.401,10.024c-9.962,4.951-19.646,10.391-28.901,16.581c-2.838,1.898-5.255,4.14-7.043,7.105
		c-6.179,10.246-13.144,19.96-20.15,29.651c-2.361,3.266-4.682,6.629-6.486,10.217c-6.121,12.181-12.124,24.424-17.935,36.755
		c-4.591,9.741-8.517,19.804-13.324,29.432c-4.224,8.459-7.782,17.154-11.205,25.936c-3.13,8.03-5.354,16.295-6.878,24.767
		c-1.282,7.12-2.527,14.249-3.994,21.331c-1.65,7.964-4.61,15.467-8.621,22.548c-1.835,3.239-4.026,6.207-6.742,8.78
		c-4.888,4.63-10.707,6.157-17.251,5.137c-6.082-0.948-11.101-3.762-14.864-8.715c-3.169-4.171-6.018-8.522-8.011-13.396
		c-0.688-1.682-1.494-3.316-2.286-5.059c-1.605,0.089-2.954,0.03-4.252,0.258c-6.678,1.172-13.412,1.193-20.153,1.084
		c-6.695-0.109-12.987,1.381-19.037,4.266c-7.445,3.55-14.955,6.972-22.519,10.262c-6.99,3.04-14.266,5.248-21.956,5.315
		c-2.995,0.026-4.597,1.26-5.923,3.725c-4.392,8.163-8.561,16.428-11.726,25.149c-4.88,13.447-9.574,26.962-14.496,40.394
		c-2.212,6.037-4.071,12.126-4.625,18.553c-0.593,6.869-1.439,13.734-1.623,20.615c-0.26,9.762,2.881,18.497,9.04,26.17
		c8.862,11.042,17.953,21.861,28.457,31.417c2.864,2.606,5.7,5.256,8.379,8.048c3.375,3.518,6.686,7.11,9.827,10.837
		c5.427,6.439,10.767,12.95,16.954,18.694c4.365,4.053,9.202,7.315,15.002,9.045c3.708,1.106,7.372,2.38,11.005,3.716
		c7.359,2.707,14.045,6.499,19.438,12.329c5.403,5.841,10.042,12.227,13.77,19.255c4.483,8.453,5.291,17.285,2.443,26.411
		c-1.259,4.036-3.178,7.777-5.427,11.361c-4.784,7.621-10.867,14.125-17.311,20.332c-4.73,4.556-9.627,8.961-14.089,13.767
		c-9.236,9.949-19.606,18.449-31.193,25.489c-6.689,4.064-12.577,9.079-17.409,15.213c-4.788,6.078-9.614,12.165-13.872,18.612
		c-7.47,11.309-16.186,21.49-25.916,30.883c-9.932,9.588-20.72,18.27-30.104,28.435c-0.222,0.24-0.546,0.387-0.823,0.577
		c0.349,1.654,1.725,2.427,2.94,3.271c9.908,6.888,19.838,13.746,29.776,20.59c0.679,0.467,1.481,0.756,2.225,1.128
		c13.234-3.881,26.358-8.076,39.321-12.734c1.852-0.666,3.7-1.34,5.545-2.025C355.89,1045.596,362.554,1042.975,369.164,1040.202z
		 M726.395,222.198c5.413-4.491,11.912-7.002,18.899-7.562c9.343-0.749,17.375,6.951,17.479,16.261
		c0.052,4.595-1.514,8.603-4.775,11.792c-2.513,2.457-5.223,4.738-8.011,6.883c-2.729,2.099-5.952,3.027-9.418,3.065
		c-4.875,0.053-9.308-1.409-13.202-4.238C718.595,242.027,718.04,229.131,726.395,222.198z M489.569,114.81
		c-9.005-0.102-16.287-7.4-16.392-16.429c-0.109-9.35,7.127-16.679,16.502-16.716c9.322-0.036,16.717,7.305,16.698,16.575
		C506.358,107.381,498.717,114.913,489.569,114.81z M570.876,171.585c-3.615,2.065-7.395,3.909-11.13,5.774
		c-7.24,3.615-16.018,1.135-20.617-5.4c-4.791-6.809-4.012-15.851,2.079-21.593c2.678-2.524,5.626-4.785,8.594-6.974
		c0.573-0.423,1.15-0.793,1.736-1.115c2.541-1.396,5.268-1.889,8.735-1.852c1.948-0.053,3.853,0.206,5.689,0.717
		c0.262,0.073,0.523,0.151,0.783,0.235c0.297,0.095,0.591,0.197,0.884,0.305c0.335,0.123,0.666,0.255,0.996,0.394
		c6.085,2.577,9.646,7.216,10.222,13.826C579.44,162.701,576.81,168.196,570.876,171.585z M702.69,420.356
		c-1.992,6.427-5.63,11.786-10.861,16.05c-3.627,2.957-7.816,4.598-12.428,5.086c-9.635,1.02-18.788-4.321-22.805-13.309
		c-2.506-5.607-3.529-11.563-3.579-17.663c-0.057-6.931,0.947-13.719,3.105-20.336c1.502-4.606,3.929-8.463,7.881-11.408
		c1.577-1.175,2.822-2.837,4.08-4.39c6.74-8.322,17.203-8.159,23.272-4.99c4.529,2.366,7.78,5.955,9.283,10.813
		c1.237,3.998,2.165,8.117,2.888,12.242c0.752,4.289,1.094,8.649,1.615,12.978C705.061,410.562,704.19,415.518,702.69,420.356z
		 M685.067,183.078c10.292-0.033,18.683,8.139,18.906,18.411c0.228,10.516-8.004,19.088-18.521,19.285
		c-10.499,0.197-19.024-8.113-19.134-18.651C666.208,191.597,674.563,183.111,685.067,183.078z M670.185,223.517
		c1.772,0.957,3.523,1.961,5.228,3.033c6.778,4.259,9.738,11.747,7.603,19.121c-2.207,7.625-8.818,12.403-17.024,12.303
		c-9.358-0.114-16.067-4.67-19.506-13.246c-2.773-6.913-1.014-14.593,4.424-19.314C656.282,220.75,663.684,220.007,670.185,223.517z
		 M641.202,205.517c-3.046,2.644-6.223,5.174-9.555,7.441c-2.626,1.786-5.492,3.286-8.402,4.575
		c-8.179,3.622-15.778,2.285-22.738-3.146c-5.448-4.251-7.855-9.924-7.707-15.525c0.071-5.677,1.113-9.916,2.753-14.001
		c3.715-9.254,8.651-17.865,14.188-26.129c1.205-1.799,2.693-3.478,4.314-4.917c6.404-5.687,15.712-5.802,22.128-0.131
		c2.123,1.877,4.24,2.833,7.072,3.191c8.337,1.056,14.337,7.372,15.386,15.708c0.739,5.871-0.303,11.392-3.39,16.488
		C651.466,195.319,646.697,200.748,641.202,205.517z M352.758,725.361c-4.264,3.966-9.64,6.046-15.596,6.041
		c-5.676,0.001-10.575-1.823-14.234-6.3c-7.532-9.216-3.419-22.967,8.089-26.47c3.482-1.06,7.262-1.492,10.918-1.564
		c6.958-0.137,12.929,4.137,15.255,10.354C359.571,713.788,357.891,720.588,352.758,725.361z M366.377,649.443
		c-2.363,8.234-10.77,14.935-19.289,15.375c-12.242,0.633-20.865-10.694-16.99-22.313c2.635-7.899,10.965-13.752,20.176-13.553
		c0.981,0.141,2.841,0.26,4.625,0.693C363.827,631.812,368.907,640.632,366.377,649.443z M390.837,703.813
		c-10.547-0.187-18.722-8.654-18.572-19.236c0.146-10.276,8.494-18.484,18.805-18.491c10.472-0.007,18.918,8.49,18.863,18.978
		C409.879,695.515,401.24,703.997,390.837,703.813z"/>
	<path fill="#1B1312" d="M1148.758,561.099c-0.507-6.364-1.362-12.701-2.058-19.049c-4.652,2.358-9.271,4.788-13.963,7.066
		c-6.388,3.102-13.129,5.253-20.023,6.888c-6.388,1.515-12.829,2.806-19.227,4.282c-3.113,0.718-6.204,1.554-9.264,2.474
		c-10.487,3.151-18.48,9.654-24.053,18.912c-4.072,6.765-7.588,13.87-11.24,20.881c-2.72,5.223-5.22,10.56-7.905,15.803
		c-1.071,2.092-2.335,4.088-3.577,6.088c-1.814,2.923-4.488,4.44-7.911,4.742c-3.185,0.281-6.369,0.588-9.542,0.974
		c-7.346,0.893-13.976,3.705-20.036,7.841c-13.309,9.084-24.152,20.418-31.135,35.082c-2.569,5.396-6.461,9.396-11.493,12.371
		c-2.748,1.625-5.627,3.04-8.5,4.443c-2.93,1.431-6.114,1.917-9.332,1.908c-4.374-0.012-8.746-0.249-13.12-0.327
		c-3.023-0.054-6.058-0.163-9.069,0.04c-4.867,0.328-9.715,0.926-14.578,1.336c-0.333,0.028-0.667,0.039-1.001,0.041
		c-1.005,0.003-2.017-0.088-3.024-0.111c-0.854,0.507-1.706,1.014-2.558,1.521c-0.663,1.708-1.09,3.558-2.026,5.1
		c-6.808,11.213-13.624,22.423-20.627,33.515c-5.567,8.817-11.275,17.551-17.151,26.164c-6.445,9.446-12.998,18.826-19.789,28.025
		c-8.988,12.176-18.147,24.231-27.44,36.176c-5.571,7.161-11.527,14.025-17.331,21.005c-4.514,5.428-9.029,10.856-13.605,16.231
		c-2.832,3.327-5.742,6.589-8.681,9.822c-4.523,4.975-9.129,9.874-13.65,14.851c-13.239,14.575-27.232,28.416-41.307,42.167
		c-7.931,7.748-16.218,15.137-24.426,22.598c-6.592,5.992-13.265,11.896-19.981,17.749c-4.435,3.866-8.94,7.658-13.533,11.335
		c-11.291,9.038-22.568,18.098-34.015,26.936c-7.187,5.549-14.663,10.728-22.037,16.033c-0.802,0.577-1.792,0.894-2.695,1.331
		l-0.106-0.069c-0.248,5.094,0.479,10.072,1.805,14.976c1.933,7.146,3.78,14.317,5.849,21.424c1.133,3.891,3.008,7.482,5.353,10.823
		c7.178,10.229,19.041,14.096,31.268,10.099c5.213-1.704,9.763-4.566,13.984-7.947c3.15-2.523,6.112-5.286,9.1-8.005
		c7.346-6.686,14.699-13.365,21.968-20.133c4.19-3.901,8.268-7.925,12.315-11.974c9.525-9.529,19.109-19.003,28.463-28.698
		c7.361-7.629,14.746-15.256,21.269-23.648c0.722-0.928,1.566-1.76,2.327-2.659c2.033-2.402,4.576-3.901,7.67-4.546
		c2.308-0.481,4.585-1.107,6.876-1.667c6.421-1.569,12.551-3.968,18.329-7.109c3.226-1.753,6.327-3.92,9.043-6.387
		c5.648-5.129,11.705-9.569,18.474-13.108c4.782-2.5,9.187-5.561,13.179-9.273c6.055-5.631,10.038-12.585,13.59-19.889
		c4.721-9.709,8.17-19.936,12.336-29.868c2.73-6.51,5.842-12.866,8.952-19.208c2.318-4.727,5.883-8.585,9.3-12.541
		c3.747-4.338,8.292-6.082,13.969-4.97c2.641,0.518,5.337,0.754,8.001,1.161c9.086,1.388,17.804,0.226,26.1-3.771
		c7.043-3.393,13.41-7.787,18.808-13.443c2.071-2.169,4.372-3.658,7.248-4.289c3.452-0.756,6.888-1.697,10.384-2.115
		c8.122-0.972,15.837-3.061,23.07-6.972c4.656-2.518,5.1-2.525,8.511,1.592c4.291,5.179,8.305,10.597,12.236,16.058
		c1.977,2.746,3.072,6.006,3.721,9.331c1.418,7.266,2.726,14.554,4.073,21.833c1.806,9.762,3.522,19.542,5.46,29.277
		c0.587,2.95,1.66,5.825,2.723,8.655c1.774,4.719,5.033,8.409,9.033,11.297c7.026,5.072,14.421,4.916,21.873,0.815
		c1.906-1.049,3.792-2.137,5.69-3.208c1.202-1.976,2.402-3.952,3.601-5.928c0.364-0.34,0.728-0.68,1.092-1.02
		c0.056-1.333,0.06-2.67,0.179-3.997c0.442-4.938-0.085-9.664-2.795-13.977c-0.326-0.518-0.395-1.196-0.679-2.107
		c3.194-0.784,6.145,0.391,9.038-0.034c2.804-0.412,5.597-0.901,8.395-1.359c6.663-9.952,12.273-20.518,17.744-31.133
		c5.705-11.068,10.983-22.358,16.283-33.628c2.649-5.631,5.086-11.374,7.347-17.173c3.3-8.464,6.53-16.963,9.467-25.557
		c3.21-9.393,6.218-18.863,9.018-28.386c4.085-13.89,7.6-27.936,10.289-42.168c1.969-10.416,4.002-20.833,5.487-31.322
		c1.509-10.653,2.559-21.381,3.481-32.104c0.835-9.712,1.559-19.456,1.741-29.197
		C1150.133,597.755,1150.215,579.405,1148.758,561.099z"/>
	<path fill="#1B1312" d="M1054.884,908.151c-0.025,0.023-0.05,0.047-0.076,0.07c-0.005,0.006-0.009,0.011-0.014,0.017
		C1054.794,908.239,1054.884,908.151,1054.884,908.151z"/>
	<path fill="#2063A9" d="M125.811,848.443c3.829-19.702,10.817-38.195,21.71-55.104c5.469-8.49,11.242-16.786,16.953-25.118
		c1.036-1.511,2.27-2.981,3.695-4.115c8.693-6.916,17.019-14.313,26.577-20.102c4.764-2.885,9.305-6.165,13.045-10.313
		c4.666-5.176,9.976-9.518,15.779-13.313c0.704-0.46,1.364-0.987,2.042-1.488c6.373-4.706,11.166-10.677,14.398-17.907
		c3.665-8.199,6.093-16.748,7.41-25.63c0.622-4.191,0.829-8.394,0.331-12.586c-0.694-5.849-1.532-11.682-2.42-17.505
		c-1.599-10.48-3.732-20.902-4.802-31.434c-1.104-10.868-1.389-21.833-1.697-32.766c-0.35-12.451-0.311-24.913-0.478-37.37
		c-0.061-4.548-0.246-9.091-1.408-13.53c-0.69-2.636-1.524-5.282-3.587-7.121c-2.253-2.007-3.343-4.522-4.32-7.244
		c-2.792-7.782-5.985-15.377-11.009-22.058c-12.093-16.078-16.43-34.396-15.526-54.181c0.153-3.356,0.803-6.686,1.073-10.04
		c0.216-2.677,0.588-5.427,0.223-8.051c-1.189-8.551-0.891-17.131-1.029-25.712c-0.13-8.126,0.553-16.115,2.482-24.03
		c2.874-11.796,3.185-23.702,0.263-35.512c-1.328-5.367-3.402-10.556-5.246-15.788c-2.634-7.474-4.865-15.027-6.058-22.898
		c-1.264-8.34-1.983-16.71-2.126-25.13c-0.037-2.193-0.644-3.78-2.451-5.169c-4.198-3.226-6.507-7.695-7.341-12.844
		c-0.536-3.308-0.666-6.682-0.977-10.027c-1.409,1.425-2.928,2.757-4.209,4.288c-14.279,17.073-27.399,34.998-39.46,53.7
		c-25.783,39.981-46.02,82.6-60.715,127.828c-13.637,41.971-22.081,84.971-25.4,128.99c-2.233,29.62-2.017,59.21,0.586,88.784
		c2.871,32.606,8.618,64.712,17.263,96.286c5.784,21.123,12.815,41.818,21.044,62.13c8.168,20.161,17.552,39.717,27.993,58.782
		c0.964,1.76,2.16,3.392,3.249,5.084c0.353-1.466,0.776-2.918,1.045-4.399C123.768,860.038,124.688,854.221,125.811,848.443z"/>
	<path fill="#1D1C4A" d="M1022.539,917.575c-4.001-2.888-7.26-6.579-9.033-11.297c-1.063-2.83-2.136-5.704-2.723-8.655
		c-1.938-9.736-3.654-19.515-5.46-29.277c-1.347-7.28-2.655-14.567-4.073-21.833c-0.649-3.325-1.744-6.585-3.721-9.331
		c-3.931-5.461-7.946-10.879-12.236-16.058c-3.411-4.116-3.855-4.11-8.511-1.592c-7.233,3.912-14.948,6.001-23.07,6.972
		c-3.496,0.418-6.932,1.359-10.384,2.115c-2.876,0.63-5.177,2.119-7.248,4.289c-5.398,5.656-11.765,10.05-18.808,13.443
		c-8.296,3.997-17.014,5.159-26.1,3.771c-2.664-0.407-5.36-0.643-8.001-1.161c-5.678-1.113-10.222,0.632-13.969,4.97
		c-3.417,3.956-6.982,7.814-9.3,12.541c-3.111,6.342-6.223,12.698-8.952,19.208c-4.165,9.933-7.615,20.16-12.336,29.868
		c-3.552,7.305-7.535,14.258-13.59,19.889c-3.992,3.712-8.398,6.773-13.179,9.273c-6.769,3.539-12.826,7.979-18.474,13.108
		c-2.716,2.466-5.817,4.634-9.043,6.387c-5.779,3.141-11.908,5.54-18.329,7.109c-2.291,0.56-4.568,1.186-6.876,1.667
		c-3.094,0.645-5.636,2.144-7.67,4.546c-0.761,0.899-1.605,1.731-2.327,2.659c-6.524,8.391-13.909,16.019-21.269,23.648
		c-9.354,9.695-18.938,19.169-28.463,28.698c-4.047,4.049-8.126,8.073-12.315,11.974c-7.269,6.768-14.622,13.447-21.968,20.133
		c-2.988,2.72-5.95,5.482-9.1,8.005c-4.221,3.38-8.771,6.243-13.984,7.947c-12.227,3.996-24.09,0.13-31.268-10.099
		c-2.345-3.341-4.22-6.932-5.353-10.823c-2.069-7.107-3.916-14.278-5.849-21.424c-1.326-4.904-2.053-9.881-1.805-14.976
		c-1.468,1.359-2.797,2.92-4.425,4.048c-36.714,25.43-75.113,47.954-115.609,66.861c-17.384,8.116-35.101,15.424-53.12,22.005
		c-2.211,0.807-4.464,1.499-6.697,2.245c6.066,2.023,12.08,4.221,18.207,6.035c18.396,5.446,36.827,10.79,55.748,14.162
		c11.601,2.068,23.198,4.215,34.866,5.823c11.33,1.561,22.695,2.983,34.148,3.494c9.579,0.427,19.145,1.19,28.726,1.559
		c12.965,0.499,25.917-0.218,38.862-0.867c6.89-0.345,13.785-0.731,20.652-1.373c8.042-0.752,16.087-1.597,24.076-2.772
		c11.323-1.666,22.649-3.396,33.877-5.593c17.852-3.492,35.483-7.939,52.883-13.287c16.427-5.049,32.648-10.663,48.543-17.196
		c4.982-2.047,9.873-4.313,14.825-6.433c11.928-5.107,23.573-10.814,34.997-16.94c12.461-6.682,24.793-13.615,36.658-21.325
		c4.926-3.201,9.688-6.654,14.525-9.992c0.514-0.986,0.947-2.028,1.576-2.933c0.298-0.429,0.973-0.597,1.477-0.883
		c0.165,0.574,0.33,1.148,0.494,1.722c0.291-0.165,0.6-0.306,0.873-0.499c22.939-16.208,44.771-33.739,65.184-53.079
		c10.141-9.607,19.559-19.865,29.207-29.922c3.02-3.148,5.863-6.478,8.63-9.853c6.814-8.313,13.666-16.601,20.252-25.094
		c4.522-5.832,8.625-11.988,12.912-17.999c-1.898,1.07-3.783,2.158-5.69,3.208C1036.96,922.491,1029.565,922.647,1022.539,917.575z"
		/>
	<path fill="#0A2634" d="M912.238,224.785c-5.294,1.107-10.225,3.322-15.124,5.574c-4.585,2.108-9.159,4.247-13.797,6.236
		c-11.852,5.085-21.502,13.051-29.991,22.585c-7.435,8.35-10.084,18.136-8.425,29.037c2.979,19.57,13.597,33.249,32.063,40.711
		c3.895,1.574,7.777,3.185,11.621,4.878c4.681,2.062,9.578,3.177,14.658,3.422c4.763,0.229,9.326,1.265,13.752,2.973
		c0.561,0.217,1.057,0.601,1.842,1.058c-0.656,0.498-0.986,0.947-1.389,1.026c-11.549,2.261-23.085,4.6-34.668,6.68
		c-10.925,1.962-21.881,3.777-32.862,5.394c-4.98,0.733-10.055,1.175-15.084,1.142c-9.648-0.062-19.162,0.514-28.395,3.555
		c-0.127,0.228-0.252,0.459-0.373,0.691v0c-0.197,5.705-0.303,11.414-0.617,17.112c-0.313,5.703-0.849,11.393-1.259,17.091
		c-1.014,14.088-2.615,28.112-4.586,42.095c-0.939,6.655-2.02,13.291-3.039,19.935c0.657,0.278,1.316,0.555,2.195,0.925
		c0.125,0.053,0.255,0.107,0.39,0.164c-1.222,1.091-2.303,2.056-3.384,3.021c-0.27,1.871-0.502,3.749-0.741,5.627
		c-0.399,3.129-0.818,6.253-1.465,9.329c-3.874,18.419-7.572,36.886-12.02,55.17c-6.122,25.16-13.633,49.939-22.268,74.364
		c-0.669,1.891-1.597,3.691-2.405,5.534v0c-0.066,0.866-0.131,1.732-0.197,2.598c0,0.001,0.001,0.001,0.001,0.002
		c1.673,4.569,3.31,9.152,5.031,13.702c1.486,3.93,2.879,7.913,4.656,11.712c2.243,4.795,5.525,8.836,10.031,11.771
		c6.015,3.917,12.341,4.184,18.756,1.27c2.269-1.031,4.296-2.632,6.354-4.085c6.462-4.563,12.88-9.186,19.329-13.768
		c1.372-0.975,2.778-1.906,4.203-2.802c11.9-7.484,19.797-18.062,24.224-31.31c1.386-4.149,2.774-8.301,4.01-12.497
		c3.361-11.411,9.678-21.027,17.82-29.541c1.977-2.068,4.069-4.028,6.135-6.01c5.639-5.41,10.268-11.575,13.926-18.476
		c0.546-1.03,1.192-2.007,1.737-2.916c4.045-0.149,12.998,1.947,15.669,3.68c0.541,0.351,1.079,0.858,1.368,1.421
		c2.779,5.406,4.32,10.894,1.582,16.883c-2.287,5.003-2.95,10.316-2.336,15.792c1.574,14.03,14.149,29.007,33.546,25.75
		c1.66-0.279,3.318-0.57,4.978-0.856c0.687-0.189,1.374-0.378,2.06-0.567c-0.164-2.409,0.452-4.632,1.397-6.842
		c6.221-14.544,11.623-29.4,16.87-44.317c4.857-13.806,9.391-27.71,13.337-41.805c5.307-18.955,10.034-38.043,13.77-57.378
		c2.841-14.703,5.219-29.483,6.836-44.353c1.051-9.672,1.8-19.398,2.555-29.11c1.124-14.466,0.549-28.905,0.739-43.354
		c0.035-2.677-0.344-5.359-0.547-8.038c-0.102-1.34-0.299-2.676-0.354-4.017c-0.85-20.729-3.968-41.132-8.688-61.317
		c-3.185-13.618-7.309-26.935-12.26-40.011c-0.38-1.005-0.614-2.065-0.809-3.14c-0.195-1.075-0.35-2.166-0.574-3.231
		c-1.153-0.971-2.305-1.941-3.457-2.91c-15.569,9.776-32.523,16.075-50.434,19.898C922.867,223.065,917.502,223.684,912.238,224.785
		z"/>
	<path fill="#1B1312" d="M983.4,211.326c4.95,13.077,9.075,26.394,12.26,40.011c4.72,20.185,7.838,40.588,8.688,61.317
		c0.055,1.342,0.252,2.677,0.354,4.017c0.204,2.679,0.583,5.361,0.547,8.038c-0.19,14.449,0.385,28.888-0.739,43.354
		c-0.755,9.713-1.503,19.438-2.555,29.11c-1.616,14.871-3.995,29.65-6.836,44.353c-3.736,19.336-8.463,38.423-13.77,57.378
		c-3.946,14.096-8.48,28-13.337,41.805c-5.247,14.917-10.649,29.773-16.87,44.317c-0.945,2.21-1.561,4.432-1.397,6.842
		c5.853-1.959,5.9-2.022,10.86,1.733c7.776,5.887,15.45,11.909,23.225,17.797c5.954,4.509,12.333,8.096,19.888,9.327
		c7.29,1.188,14.188-0.071,20.519-3.496c8.291-4.485,14.176-11.291,16.953-20.434c1.022-3.366,1.698-6.852,2.3-10.324
		c0.413-2.381,1.112-4.523,2.673-6.41c2.315-2.798,3.536-6.156,4.076-9.66c1.382-8.967,2.813-17.945,2.557-27.067
		c-0.142-5.06-0.717-10.044-2.668-14.802c-1.623-3.957-3.809-7.439-7.133-10.226c-2.312-1.938-2.323-2.508-1.192-5.218
		c0.259-0.62,0.628-1.197,0.855-1.826c1.843-5.108,5.458-8.115,10.547-10.022c6.288-2.356,12.417-5.184,18.474-8.099
		c14.802-7.125,28.139-16.469,40.364-27.391c2.819-2.519,5.586-5.098,8.337-7.693c2.752-2.595,5.489-5.207,8.25-7.792
		c-0.635-2.941-1.042-5.951-1.944-8.806c-3.839-12.14-7.68-24.285-12.367-36.134c-0.733-1.852-1.816-3.564-2.738-5.341
		c-3.241-0.813-6.524-1.187-9.868-0.992c-2.684,0.156-4.884-0.65-6.332-3.362c1.304-2.151,4.006-2.027,5.751-3.4
		c1.821-1.433,3.637-2.873,5.456-4.311c-0.611-2.085-1.027-4.253-1.875-6.238c-2.114-4.951-4.483-9.793-6.644-14.725
		c-6.563-14.983-14.497-29.263-22.66-43.397c-6.817-11.802-14.153-23.304-21.863-34.563c-10.759-15.712-22.343-30.801-34.653-45.307
		c-10.127-11.933-20.728-23.463-32.019-34.328c-1.575-1.515-3.236-2.941-4.857-4.407c0.223,1.065,0.379,2.155,0.574,3.231
		C982.786,209.261,983.02,210.321,983.4,211.326z"/>
	<path fill="#223E91" d="M477.717,1094.179c40.496-18.907,78.895-41.431,115.609-66.861c1.629-1.128,2.957-2.689,4.425-4.048
		l0.106,0.069c0.114-3.343-0.285-6.8,0.431-10.008c2.934-13.144,6.757-26.03,13.258-37.935c2.09-3.827,4.494-7.487,6.827-11.177
		c4.758-7.526,9.615-14.989,14.337-22.538c3.366-5.382,4.986-11.289,5.286-17.657c0.334-7.089-0.072-14.068-1.337-21.063
		c-3.128-17.302-3.735-34.705-1.63-52.191c0.782-6.494,1.327-13.017,1.98-19.527c-3.921,4.781-7.862,9.545-11.775,14.334
		c-1.304,1.596-2.605,3.195-3.9,4.798c-11.118,13.758-23.034,26.818-35.251,39.586c-8.841,9.24-17.963,18.212-27.41,26.866
		c-8.941,8.191-17.949,16.286-27.235,24.08c-16.652,13.975-33.957,27.088-51.918,39.338c-16.848,11.492-34.215,22.127-52.117,31.907
		c-18.938,10.346-38.341,19.705-58.239,28.051c-6.611,2.773-13.274,5.393-19.983,7.884c-1.845,0.685-3.693,1.36-5.545,2.025
		c-12.962,4.658-26.086,8.854-39.32,12.735c1.487,1.073,2.919,2.232,4.468,3.204c34.388,21.584,70.853,38.853,109.117,52.378
		c2.233-0.745,4.486-1.437,6.697-2.245C442.616,1109.603,460.333,1102.295,477.717,1094.179z"/>
	<path fill="#064E37" d="M533.554,81.695c2.06,1.447,4.298,2.646,6.49,3.897c11.103,6.338,19.719,15.084,25.702,26.398
		c1.651,3.123,3.202,6.308,5.012,9.337c6.069,10.161,14.721,16.983,26.387,19.567c6.495,1.438,13.072,0.962,19.592-0.06
		c3.155-0.495,6.258-1.319,9.415-1.798c1.627-0.247,3.389-0.381,4.969-0.025c6.566,1.478,13.169,2.886,19.604,4.829
		c12.145,3.667,24.453,6.155,37.145,6.846c7.758,0.422,14.806,3.024,20.831,8.054c0.692,0.578,1.146,1.441,1.779,2.26
		c-1.44,1.155-2.673,2.037-3.784,3.051c-8.83,8.063-6.743,22.249,3.999,27.51c3.646,1.786,7.468,1.982,11.348,1.335
		c4.169-0.695,8.161-1.996,11.904-4.029c3.173-1.723,5.829-3.958,7.751-7.046c0.598-0.96,1.339-1.831,1.953-2.66
		c5.642,0.731,10.972,0.949,16.337-0.119c9.488-1.887,17.663-6.37,25.167-12.269c2.242-1.763,4.474-3.539,6.711-5.309c0,0,0,0,0,0
		c0.084-0.345,0.168-0.69,0.251-1.033c0,0,0.001-0.001,0.001-0.001c-0.001,0-0.001,0.001-0.001,0.001
		c-3.162-15.54-6.529-31.033-10.48-46.389c-0.564-2.194-1.141-4.385-1.73-6.573c-2.181-8.098-4.558-16.144-6.823-24.22
		c-0.497-1.773-0.898-3.574-1.343-5.361c-6.265-1.964-12.521-3.956-18.796-5.887c-19.028-5.856-38.45-10.045-58.06-13.343
		c-13.114-2.205-26.276-4.069-39.521-5.449c-10.891-1.134-21.809-2.133-32.712-2.448c-22.715-0.656-45.461-0.863-68.12,1.636
		c-9.869,1.089-19.749,2.078-29.617,3.173c-1.659,0.184-3.283,0.679-4.923,1.03C519.993,67.404,524.874,75.599,533.554,81.695z"/>
	<path fill="#223E91" d="M838.189,138.26c-1.835-0.115-3.727-0.335-5.514-0.037c-5.789,0.967-11.577,2.004-17.289,3.338
		c-1.867,0.436-3.707,1.623-5.205,2.886c-4.359,3.675-8.534,7.569-12.791,11.365c-0.872,0.778-1.751,1.548-2.632,2.316
		c-0.88,0.768-1.762,1.533-2.641,2.302c0,0-0.001,0.001-0.001,0.001c-0.083,0.344-0.167,0.689-0.251,1.033
		c0.178,0.733,0.365,1.465,0.552,2.197c0.187,0.732,0.375,1.463,0.556,2.196c0.121,0.488,0.239,0.978,0.351,1.468
		c0.15,0.653,0.291,1.308,0.418,1.966c0.73,3.796,1.279,7.626,1.932,11.437c0.681,3.977,1.544,7.929,2.066,11.926
		c1.61,12.332,3.279,24.661,4.58,37.027c1.424,13.533,2.73,27.089,3.593,40.667c0.767,12.069,1.118,24.179,1.185,36.274
		c0.024,4.369,0.073,8.74,0.113,13.111c0.121,13.112,0.164,26.226-0.773,39.325c9.234-3.041,18.747-3.617,28.395-3.555
		c5.028,0.032,10.104-0.409,15.084-1.142c10.981-1.617,21.937-3.432,32.862-5.394c11.582-2.081,23.118-4.42,34.668-6.68
		c0.402-0.079,0.732-0.528,1.389-1.026c-0.784-0.457-1.281-0.841-1.842-1.058c-4.426-1.708-8.988-2.743-13.752-2.973
		c-5.08-0.244-9.977-1.36-14.658-3.422c-3.844-1.693-7.726-3.304-11.621-4.878c-18.466-7.462-29.083-21.141-32.063-40.711
		c-1.659-10.901,0.989-20.687,8.425-29.037c8.49-9.534,18.14-17.5,29.991-22.585c4.637-1.99,9.211-4.128,13.797-6.236
		c4.899-2.252,9.83-4.467,15.124-5.574c5.264-1.101,10.63-1.72,15.888-2.843c17.911-3.823,34.865-10.122,50.434-19.898
		c-0.524-1.917-2.098-3.002-3.459-4.209c-7.281-6.458-14.504-12.988-21.933-19.273c-17.578-14.872-36.145-28.42-55.508-40.88
		c-1.685-1.084-3.309-2.336-5.439-2.449c-3.097,0.687-6.162,1.63-9.296,2.019C868.055,139.098,853.132,139.2,838.189,138.26z"/>
	<path fill="#1D1C4A" d="M1112.044,465.751c-12.224,10.922-25.562,20.266-40.364,27.391c-6.057,2.916-12.186,5.743-18.474,8.099
		c-5.09,1.907-8.704,4.914-10.547,10.022c-0.227,0.629-0.596,1.206-0.855,1.826c-1.13,2.71-1.12,3.279,1.192,5.218
		c3.324,2.787,5.51,6.269,7.133,10.226c1.951,4.758,2.526,9.742,2.668,14.802c0.256,9.122-1.175,18.101-2.557,27.067
		c-0.54,3.504-1.761,6.862-4.076,9.66c-1.561,1.887-2.26,4.029-2.673,6.41c-0.602,3.472-1.278,6.958-2.3,10.324
		c-2.777,9.143-8.662,15.949-16.953,20.434c-6.332,3.425-13.229,4.683-20.519,3.496c-7.555-1.231-13.934-4.818-19.888-9.327
		c-7.775-5.888-15.449-11.91-23.225-17.797c-4.959-3.755-5.007-3.692-10.86-1.733c-0.687,0.189-1.374,0.378-2.06,0.567
		c-0.463,1.599-0.762,3.268-1.412,4.787c-11.509,26.887-24.454,53.076-38.526,78.711c-2.424,4.417-4.922,8.794-7.346,13.211
		c-0.481,0.877-0.877,1.8-1.281,2.72c-0.135,0.306-0.271,0.612-0.411,0.916c1.006,0.024,2.018,0.115,3.022,0.112
		c0.335-0.001,0.669-0.013,1.001-0.041c4.863-0.41,9.711-1.007,14.578-1.336c3.01-0.203,6.046-0.094,9.069-0.04
		c4.374,0.078,8.747,0.315,13.12,0.327c3.218,0.009,6.402-0.477,9.332-1.908c2.873-1.403,5.751-2.817,8.5-4.443
		c5.031-2.975,8.923-6.976,11.493-12.371c6.983-14.664,17.826-25.998,31.135-35.082c6.061-4.136,12.69-6.948,20.036-7.841
		c3.173-0.386,6.357-0.693,9.542-0.974c3.422-0.302,6.097-1.82,7.911-4.742c1.241-2,2.506-3.996,3.577-6.088
		c2.684-5.243,5.184-10.58,7.905-15.803c3.652-7.011,7.167-14.116,11.24-20.881c5.573-9.258,13.566-15.761,24.053-18.912
		c3.06-0.919,6.151-1.755,9.264-2.474c6.398-1.476,12.839-2.767,19.227-4.282c6.894-1.634,13.634-3.786,20.023-6.888
		c4.692-2.278,9.311-4.707,13.963-7.066c0,0,0,0,0,0c-0.812-7-1.509-14.019-2.462-21.004c-2.729-20.006-7.044-39.703-11.93-59.276
		c-0.973-3.899-2.439-7.674-3.677-11.504c-2.761,2.585-5.498,5.197-8.25,7.792C1117.63,460.653,1114.863,463.232,1112.044,465.751z"
		/>
	<path fill="#0A2634" d="M779.906,107.469c0.589,2.188,1.165,4.379,1.73,6.573c3.951,15.356,7.318,30.849,10.48,46.389
		c0,0,0.001-0.001,0.001-0.001c0.879-0.769,1.761-1.534,2.641-2.302c0.881-0.768,1.76-1.538,2.632-2.316
		c4.257-3.796,8.432-7.689,12.791-11.365c1.498-1.263,3.337-2.45,5.205-2.886c5.712-1.334,11.499-2.371,17.289-3.338
		c1.787-0.298,3.679-0.078,5.514,0.037c14.943,0.941,29.867,0.838,44.738-1.007c3.134-0.389,6.199-1.331,9.296-2.019
		c-1.433-1.146-2.773-2.439-4.315-3.413c-11.785-7.444-23.934-14.284-36.355-20.575c-11.371-5.759-23-11.033-34.679-16.151
		c-9.524-4.173-19.254-7.891-28.961-11.631c-5.317-2.049-10.777-3.728-16.172-5.575c0.445,1.787,0.846,3.588,1.343,5.361
		C775.349,91.325,777.725,99.37,779.906,107.469z"/>
	<path fill="#1D1C4A" d="M1051.499,888.154c0.284,0.91,0.353,1.589,0.679,2.107c2.709,4.313,3.237,9.039,2.795,13.977
		c-0.119,1.327-0.122,2.665-0.179,3.997c0,0.001,0,0.003,0,0.004c0.005-0.006,0.009-0.011,0.014-0.017
		c5.559-6.595,9.805-14.053,14.124-21.46c-2.798,0.458-5.591,0.947-8.395,1.359C1057.644,888.545,1054.693,887.37,1051.499,888.154z
		"/>
	<path fill="#1D1C4A" d="M1095.381,395.631c1.448,2.713,3.648,3.519,6.332,3.362c3.344-0.195,6.628,0.179,9.868,0.992
		c-0.742-4.403-2.04-8.576-4.993-12.065c-1.819,1.437-3.635,2.878-5.456,4.311C1099.387,393.604,1096.685,393.48,1095.381,395.631z"
		/>
	<path fill="#223E91" d="M911.072,1050.789c-0.63,0.905-1.063,1.947-1.576,2.933c1.182-0.698,2.365-1.396,3.548-2.094
		c-0.164-0.575-0.329-1.149-0.494-1.722C912.045,1050.192,911.37,1050.36,911.072,1050.789z"/>
	<path fill="#0A2634" d="M875.585,694.189c-1.565-1.276-3.222-2.441-4.867-3.616c-3.344-2.388-6.07-5.317-8.018-8.951
		c-0.318-0.593-0.705-1.148-1.04-1.732c-6.933-12.083-17.586-18.671-31.087-21.133c-4.667-0.851-9.357-1.098-14.081-1.06
		c-8.6,0.07-17.162,0.639-25.674,1.901c-8.775,1.301-17.062,3.956-24.434,9.013c-2.302,1.579-4.701,2.271-7.511,2.434
		c-7.432,0.431-14.591,2.441-21.76,4.319c-2.274,0.596-4.566,1.121-6.851,1.678c-0.356,0.326-0.712,0.652-1.067,0.977
		c-0.456,1.263-0.81,2.575-1.385,3.781c-7.605,15.956-15.456,31.777-23.982,47.279c-12.998,23.632-27.156,46.527-42.481,68.703
		c-6.315,9.138-13.003,18.021-19.582,26.976c-1.086,1.478-2.489,2.724-3.746,4.08c0,0,0,0,0,0c-0.254,0.605-0.507,1.209-0.761,1.812
		c-0.082,0.196-0.165,0.393-0.247,0.59c-0.653,6.511-1.198,13.033-1.98,19.527c-2.105,17.487-1.498,34.889,1.63,52.191
		c1.265,6.995,1.67,13.975,1.337,21.063c-0.3,6.368-1.92,12.275-5.286,17.657c-4.722,7.548-9.578,15.012-14.337,22.538
		c-2.333,3.69-4.737,7.35-6.827,11.177c-6.501,11.905-10.324,24.791-13.258,37.935c-0.716,3.208-0.317,6.666-0.431,10.008
		c0.903-0.438,1.893-0.754,2.695-1.331c7.374-5.305,14.85-10.483,22.037-16.033c11.447-8.839,22.724-17.898,34.015-26.936
		c4.593-3.676,9.098-7.469,13.533-11.335c6.715-5.853,13.389-11.757,19.981-17.749c8.208-7.461,16.494-14.85,24.426-22.598
		c14.076-13.75,28.069-27.592,41.307-42.167c4.521-4.977,9.127-9.876,13.65-14.851c2.939-3.233,5.849-6.495,8.681-9.822
		c4.576-5.376,9.091-10.803,13.605-16.231c5.804-6.98,11.76-13.843,17.331-21.005c9.293-11.945,18.451-24,27.44-36.176
		c6.791-9.199,13.344-18.58,19.789-28.025c5.877-8.613,11.585-17.347,17.151-26.164c7.003-11.092,13.819-22.302,20.627-33.515
		c0.936-1.542,1.363-3.392,2.026-5.1c-4.508,0.488-9.048,0.783-13.511,1.536C879.918,696.297,877.694,695.908,875.585,694.189z"/>
	<path fill="#223E91" d="M899.122,691.865c0.404-0.919,0.8-1.843,1.281-2.72c2.423-4.418,4.921-8.795,7.346-13.211
		c14.072-25.636,27.017-51.824,38.526-78.711c0.65-1.519,0.949-3.188,1.412-4.787c-1.659,0.286-3.317,0.577-4.978,0.856
		c-19.396,3.257-31.971-11.72-33.546-25.75c-0.615-5.477,0.049-10.79,2.336-15.792c2.737-5.99,1.196-11.478-1.582-16.883
		c-0.289-0.563-0.827-1.071-1.368-1.421c-2.672-1.733-11.624-3.829-15.669-3.68c-0.545,0.91-1.191,1.887-1.737,2.916
		c-3.658,6.901-8.287,13.065-13.926,18.476c-2.066,1.982-4.158,3.942-6.135,6.01c-8.142,8.514-14.459,18.129-17.82,29.541
		c-1.236,4.195-2.623,8.348-4.01,12.497c-4.427,13.248-12.323,23.826-24.224,31.31c-1.425,0.896-2.831,1.827-4.203,2.802
		c-6.448,4.582-12.867,9.206-19.329,13.768c-2.058,1.453-4.084,3.054-6.354,4.085c-6.415,2.913-12.741,2.647-18.756-1.27
		c-4.506-2.935-7.788-6.975-10.031-11.771c-1.777-3.799-3.17-7.782-4.656-11.712c-1.721-4.552-3.358-9.135-5.031-13.702
		c-1.558,3.9-3.101,7.804-4.678,11.694c-4.482,11.055-8.943,22.118-13.48,33.149c-0.671,1.631-1.349,3.258-2.033,4.883
		c-2.052,4.876-4.15,9.732-6.215,14.602c2.285-0.558,4.577-1.083,6.851-1.678c7.169-1.878,14.328-3.888,21.76-4.319
		c2.81-0.163,5.209-0.855,7.511-2.434c7.372-5.057,15.658-7.712,24.434-9.013c8.512-1.262,17.074-1.832,25.674-1.901
		c4.724-0.038,9.414,0.209,14.081,1.06c13.501,2.462,24.154,9.05,31.087,21.133c0.335,0.584,0.722,1.139,1.04,1.732
		c1.948,3.634,4.674,6.563,8.018,8.951c1.645,1.174,3.302,2.34,4.867,3.616c2.109,1.719,4.333,2.108,7.055,1.649
		c4.463-0.753,9.004-1.048,13.511-1.536c0.852-0.507,1.705-1.013,2.558-1.521c0,0,0.001,0,0.001-0.001
		C898.851,692.477,898.987,692.171,899.122,691.865z"/>
	<path fill="#064E37" d="M641.764,824.76c6.58-8.954,13.267-17.837,19.582-26.976c15.325-22.175,29.483-45.071,42.481-68.703
		c8.527-15.502,16.377-31.323,23.982-47.279c0.575-1.206,0.929-2.518,1.385-3.781c-2.69,0.928-5.437,1.719-8.06,2.808
		c-7.635,3.17-15.473,5.623-23.565,7.333c-9.224,1.949-18.323,4.391-27.038,8.044c-9.893,4.147-18.684,9.932-26.007,17.849
		c-14.273,15.431-17.226,36.061-8.369,53.737c2.407,4.803,5.116,9.458,7.784,14.125c2.259,3.952,4.415,7.94,5.659,12.344
		c2.582,9.143,2.604,7.881-2.202,15.372c-2.268,3.535-4.648,7.008-6.727,10.652c-0.186,0.326-0.369,0.655-0.546,0.988
		c-1.151,2.16-2.059,4.454-2.11,6.979c-0.004,0.194-0.003,0.39,0.004,0.586C639.275,827.483,640.678,826.238,641.764,824.76z"/>
	<path fill="#064E37" d="M799.603,436.046c1.972-13.982,3.572-28.007,4.586-42.095c0.41-5.698,0.946-11.388,1.259-17.091
		c0.313-5.698,0.42-11.408,0.617-17.112c-1.573,0.552-3.204,0.978-4.709,1.676c-13.001,6.032-25.195,13.472-37.074,21.441
		c-3.643,2.444-6.979,5.304-9.725,8.738c-6.497,8.125-8.454,16.958-4.13,26.821c3.134,7.149,7.394,13.531,12.307,19.56
		c1.645,2.018,3.389,3.845,5.227,5.493c0.498,0.446,1.002,0.88,1.513,1.3c7.668,6.309,16.846,9.739,27.091,11.203
		C797.583,449.337,798.664,442.702,799.603,436.046z"/>
	<path fill="#064E37" d="M655.251,189.07c3.087-5.096,4.129-10.617,3.39-16.488c-1.049-8.336-7.049-14.653-15.386-15.708
		c-2.833-0.359-4.949-1.315-7.072-3.191c-6.416-5.671-15.724-5.556-22.128,0.131c-1.62,1.439-3.109,3.119-4.314,4.917
		c-5.538,8.264-10.473,16.874-14.188,26.129c-1.64,4.085-2.682,8.324-2.753,14.001c-0.149,5.601,2.259,11.274,7.707,15.525
		c6.96,5.432,14.559,6.768,22.738,3.146c2.91-1.288,5.777-2.788,8.402-4.575c3.332-2.267,6.509-4.797,9.555-7.441
		C646.697,200.748,651.466,195.319,655.251,189.07z"/>
	<path fill="#064E37" d="M700.639,380.21c-1.503-4.857-4.753-8.447-9.283-10.813c-6.07-3.17-16.532-3.332-23.272,4.99
		c-1.258,1.553-2.503,3.215-4.08,4.39c-3.952,2.945-6.379,6.802-7.881,11.408c-2.158,6.617-3.162,13.405-3.105,20.336
		c0.05,6.1,1.073,12.056,3.579,17.663c4.016,8.987,13.17,14.329,22.805,13.309c4.612-0.488,8.8-2.129,12.428-5.086
		c5.23-4.264,8.869-9.624,10.861-16.05c1.5-4.838,2.371-9.794,2.451-14.926c-0.521-4.329-0.863-8.689-1.615-12.978
		C702.803,388.326,701.876,384.208,700.639,380.21z"/>
	<path fill="#064E37" d="M759.27,604.58c8.635-24.425,16.146-49.204,22.268-74.364c4.448-18.283,8.147-36.751,12.02-55.17
		c0.647-3.077,1.066-6.201,1.465-9.329c0.239-1.877,0.471-3.756,0.741-5.627c-0.705,0.459-1.417,0.906-2.135,1.342
		c-5.022,3.051-10.324,5.569-15.631,8.101c-3.008,1.435-5.872,3.286-8.539,5.297c-5.541,4.177-9.194,9.689-10.913,16.474
		c-1.61,6.356-1.411,12.653,0.398,18.905c0.886,3.063,1.874,6.105,2.995,9.089c2.296,6.113,2.773,12.425,2.25,18.848
		c-0.245,3.01-0.715,6.001-1.068,9.002c-0.802,6.833-1.887,13.648-2.323,20.505c-0.651,10.233-1.416,20.419-3.601,30.472
		c-0.32,1.472-0.578,2.96-0.727,4.457c-0.099,0.998-0.15,2-0.137,3.004c0.019,1.507,0.18,3.018,0.531,4.526
		C757.673,608.271,758.602,606.472,759.27,604.58z"/>
	<path fill="#064E37" d="M568.625,142.075c-0.329-0.139-0.661-0.271-0.996-0.394c-0.293-0.108-0.587-0.21-0.884-0.305
		c-0.26-0.083-0.521-0.162-0.783-0.235c-1.836-0.512-3.741-0.77-5.689-0.716c-3.467-0.038-6.194,0.455-8.735,1.851
		c-0.586,0.322-1.163,0.692-1.736,1.115c-2.967,2.189-5.916,4.449-8.594,6.974c-6.091,5.741-6.87,14.783-2.079,21.593
		c4.599,6.535,13.376,9.015,20.617,5.4c3.735-1.865,7.514-3.709,11.13-5.774c5.934-3.388,8.564-8.883,7.971-15.684
		C578.271,149.291,574.711,144.652,568.625,142.075z"/>
	<path fill="#064E37" d="M727.366,248.399c3.894,2.829,8.326,4.291,13.202,4.238c3.466-0.038,6.689-0.965,9.418-3.065
		c2.788-2.144,5.498-4.425,8.011-6.883c3.261-3.189,4.827-7.197,4.775-11.792c-0.104-9.311-8.136-17.01-17.479-16.261
		c-6.987,0.56-13.486,3.07-18.899,7.562C718.04,229.131,718.595,242.027,727.366,248.399z"/>
	<path fill="#064E37" d="M391.071,666.086c-10.312,0.007-18.66,8.215-18.805,18.491c-0.15,10.582,8.024,19.049,18.572,19.236
		c10.403,0.184,19.042-8.298,19.096-18.75C409.988,674.576,401.542,666.079,391.071,666.086z"/>
	<path fill="#064E37" d="M685.452,220.774c10.517-0.197,18.749-8.769,18.521-19.285c-0.223-10.272-8.614-18.443-18.906-18.411
		c-10.504,0.033-18.859,8.519-18.749,19.045C666.428,212.661,674.953,220.971,685.452,220.774z"/>
	<path fill="#064E37" d="M646.486,244.727c3.44,8.577,10.149,13.133,19.506,13.246c8.206,0.1,14.817-4.678,17.024-12.303
		c2.135-7.374-0.826-14.862-7.603-19.121c-1.705-1.071-3.456-2.076-5.228-3.033c-6.501-3.51-13.903-2.767-19.275,1.897
		C645.472,230.133,643.713,237.814,646.486,244.727z"/>
	<path fill="#064E37" d="M354.9,629.644c-1.784-0.433-3.644-0.551-4.625-0.693c-9.211-0.199-17.541,5.654-20.176,13.553
		c-3.876,11.62,4.748,22.946,16.99,22.313c8.519-0.44,16.925-7.141,19.289-15.375C368.907,640.632,363.827,631.812,354.9,629.644z"
		/>
	<path fill="#064E37" d="M341.935,697.069c-3.656,0.072-7.435,0.504-10.918,1.564c-11.508,3.503-15.621,17.254-8.089,26.47
		c3.659,4.477,8.559,6.301,14.234,6.3c5.956,0.005,11.332-2.076,15.596-6.041c5.133-4.774,6.813-11.574,4.431-17.938
		C354.863,701.206,348.893,696.932,341.935,697.069z"/>
	<path fill="#064E37" d="M489.679,81.665c-9.376,0.037-16.612,7.366-16.502,16.716c0.105,9.029,7.387,16.328,16.392,16.429
		c9.148,0.103,16.789-7.429,16.808-16.57C506.397,88.97,499.001,81.628,489.679,81.665z"/>
</g>
</svg>
