<?xml version="1.0" encoding="utf-8"?>
<!-- Designed by Vexels.com - 2020 All Rights Reserved - https://vexels.com/terms-and-conditions/  -->
<svg version="1.1" id="Capa_1" xmlns="http://www.w3.org/2000/svg" xmlns:xlink="http://www.w3.org/1999/xlink" x="0px" y="0px"
	 viewBox="0 0 1200 1200" enable-background="new 0 0 1200 1200" xml:space="preserve">
<g>
	<path fill="#D5D5D5" d="M284.87,1051.229c-2.764-1.787-5.62-3.449-8.273-5.387c-5.185-3.786-10.35-7.612-15.357-11.628
		c-8.657-6.944-17.496-13.666-25.597-21.292c-7.069-6.656-14.448-12.985-21.482-19.677c-4.639-4.413-8.901-9.22-13.347-13.836
		c-14.227-14.767-27.345-30.489-39.915-46.662c-4.789-6.161-9.065-12.718-13.645-19.044c-8.051-11.12-15.305-22.749-22.044-34.691
		c-5.796-10.272-11.583-20.564-16.898-31.087c-4.611-9.13-8.464-18.639-12.817-27.903c-5.992-12.752-10.596-26.042-15.182-39.318
		c-3.564-10.319-6.394-20.893-9.46-31.38c-3.509-12.002-6.323-24.177-8.676-36.453c-1.698-8.856-3.401-17.72-4.748-26.634
		c-1.554-10.285-2.85-20.613-4.004-30.951c-0.691-6.197-0.661-12.475-1.369-18.669c-1.324-11.59-1.001-23.227-1.154-34.837
		c-0.135-10.218,0.494-20.451,0.939-30.671c0.286-6.581,0.799-13.155,1.303-19.724c0.318-4.149,0.745-8.292,1.232-12.424
		c1.907-16.202,4.412-32.315,7.695-48.293c5.211-25.356,11.986-50.275,20.881-74.622c4.35-11.907,9.169-23.596,14.112-35.262
		c6.921-16.334,15.178-31.987,23.746-47.465c5.538-10.004,11.84-19.6,18.074-29.201c5.574-8.584,11.487-16.949,17.326-25.358
		c2.375-3.42,4.875-6.76,7.445-10.038c9.641-12.297,19.543-24.387,30.206-35.812c7.338-7.862,14.955-15.473,22.622-23.018
		c5.812-5.72,11.816-11.255,17.895-16.693c5.042-4.511,10.212-8.895,15.513-13.098c11.286-8.947,22.555-17.927,34.089-26.548
		c13.627-10.184,27.771-19.639,42.384-28.375c7.741-4.628,15.329-9.529,23.227-13.87c9.427-5.182,18.99-10.13,29.019-14.129
		c7.737-3.085,15.418-6.327,23.012-9.748c10.486-4.724,21.375-8.266,32.384-11.478c9.836-2.87,19.676-5.734,29.569-8.394
		c9.891-2.659,19.808-5.259,30.01-6.516c0.687-0.085,1.393-0.177,2.038-0.41c7.962-2.884,16.363-2.898,24.628-3.827
		c5.518-0.62,11.013-1.443,16.521-2.148c7.401-0.947,14.783-2.239,22.215-2.707c9.001-0.567,17.979-1.648,27.042-1.39
		c5.542,0.157,11.101-0.306,16.653-0.475c1.736-0.053,3.475-0.114,5.209-0.066c6.594,0.184,13.193,0.288,19.777,0.655
		c8.316,0.463,16.641,0.942,24.922,1.801c10.179,1.056,20.348,2.301,30.462,3.854c8.918,1.37,17.807,3.036,26.613,5
		c12.875,2.871,25.776,5.735,38.459,9.33c11.509,3.262,23.081,6.428,34.248,10.837c4.682,1.849,9.476,3.413,14.215,5.105
		c-0.004-0.002,0.098,0.063,0.098,0.063c0.875,0.338,1.75,0.675,2.624,1.012c0,0,0.008-0.011,0.008-0.011
		c0.62,0.272,1.239,0.543,1.841,0.811c0.553,0.147,1.122,0.297,1.692,0.448c0.556,0.272,1.113,0.544,1.669,0.815
		c0-0.001,0.004-0.007,0.004-0.007c1.015,0.367,2.031,0.734,3.046,1.1c0,0-0.004,0.008-0.004,0.008
		c1.184,0.538,2.369,1.076,3.537,1.606c1.312,1.218,2.71,2.28,4.685,1.973c1.084,0.57,2.168,1.141,3.235,1.703
		c0.587,1.178,1.607,1.034,2.649,0.821c0.899,0.369,1.798,0.738,2.696,1.107c0,0-0.001-0.01-0.001-0.01
		c0.583,0.306,1.167,0.612,1.734,0.913c1.336,1.32,2.927,2.101,4.85,2.129c1.075,0.501,2.151,1.003,3.216,1.498
		c-0.01-0.006,0.2,0.281,0.2,0.281l0.356-0.017c0.624,0.365,1.247,0.73,1.869,1.094c0.081,3.229,1.525,6.025,2.863,8.845
		c2.083,4.391,4.597,8.62,6.253,13.163c3.983,10.925,7.917,21.89,11.247,33.026c5.674,18.972,10.135,38.263,13.445,57.793
		c1.449,8.55,2.606,17.154,3.683,25.761c0.904,7.225,1.503,14.488,2.231,21.734c1.11,11.049,1.913,22.115,1.924,33.228
		c0.004,3.993,0.039,7.987,0.044,11.98c0.022,19.434-0.018,38.849-1.95,58.238c-0.997,10.008-2.029,20.01-3.147,30.005
		c-1.7,15.189-4.278,30.244-7.148,45.239c-3.46,18.075-7.714,35.976-12.504,53.756c-4.022,14.928-8.33,29.772-13.375,44.371
		c-5.497,15.909-11.586,31.616-17.496,47.381c-1.583,4.224-3.481,8.329-5.192,12.505c-0.79,1.93-2.016,3.22-4.219,3.312
		c-1.233-0.948-2.463-1.897-3.698-2.842c-9.275-7.096-19.301-7.971-29.866-3.398c-8.582,3.715-14.936,10.001-19.512,18.024
		c-12.194,21.375-0.819,47.017,14.463,55.808c0.527,0.972,1.324,1.507,2.45,1.509c0.55,0.229,1.1,0.459,1.651,0.688
		c1.753,2.734,0.834,5.223-0.896,7.474c-0.799,1.04-2.029,1.748-3.064,2.607c-0.925-0.177-1.85-0.353-2.775-0.53
		c-0.682-0.744-1.458-1.042-2.408-0.502c-0.954-0.138-1.909-0.277-2.863-0.415c-1.354-1.238-2.917-1.472-4.634-0.956
		c-0.655-0.139-1.309-0.279-1.964-0.419c-1.557-1.264-3.342-1.84-5.341-1.772c-0.893-0.307-1.786-0.613-2.679-0.92
		c-0.66-0.827-1.489-1.215-2.557-0.981c-0.648-0.154-1.297-0.308-1.945-0.462c-2.922-1.502-5.335-0.803-7.333,1.693
		c-2.984,2.264-3.419,5.422-3.01,8.819c0.361,2.998,1.668,5.676,3.705,7.815c2,2.1,4.225,4.064,6.619,5.696
		c4.157,2.836,8.885,4.515,13.703,5.907c0.316,2.592-0.808,4.724-2.163,6.787c-7.907,12.036-15.764,24.105-23.739,36.096
		c-3.266,4.91-6.712,9.706-10.199,14.464c-10.154,13.857-20.532,27.543-31.549,40.731c-4.447,5.323-8.966,10.587-13.502,15.834
		c-3.062,3.542-6.183,7.035-9.33,10.502c-6.294,6.933-12.444,14.01-18.982,20.707c-10.302,10.552-20.585,21.132-31.679,30.886
		c-8.206,7.215-16.026,14.88-24.411,21.874c-11.588,9.664-23.573,18.852-35.322,28.326c-2.115,1.705-4.189,2.247-6.731,1.305
		c-3.256-1.206-6.532-2.361-9.82-3.475c-9.256-3.137-18.654-5.243-28.55-5.124c-13.94,0.168-26.713,3.882-38.363,11.483
		c-6.656,4.343-12.044,9.942-15.876,16.905c-2.693,4.893-4.529,10.151-5.185,15.725c-0.776,6.593-0.467,13.159,0.977,19.655
		c0.226,1.016,0.402,2.044,0.647,3.055c0.515,2.128-0.082,3.756-2.072,4.794c-0.462,0.241-0.908,0.513-1.379,0.734
		c-9.267,4.36-18.427,8.967-27.833,13.002c-10.046,4.31-20.272,8.219-30.514,12.054c-22.802,8.539-46.144,15.268-69.969,20.301
		c-12.739,2.691-25.525,5.115-38.476,6.585C286.448,1050.419,285.67,1050.919,284.87,1051.229z M149.042,424.362
		c0,1.709,0.01,2.924-0.001,4.139c-0.149,16.505,4.097,31.922,11.684,46.471c4.551,8.726,10.498,16.304,18.673,22.018
		c9.202,6.431,19.454,10.03,30.543,10.945c10.9,0.899,20.969-2.37,30.405-7.572c9.024-4.976,17.182-11.177,24.238-18.693
		c4.864-5.181,9.491-10.593,14.06-16.039c12.776-15.234,23.453-31.852,32.242-49.67c4.147-8.407,7.835-17.016,11.039-25.839
		c6.748-18.584,10.926-37.628,10.753-57.496c-0.021-2.43,0.018-4.86-0.032-7.289c-0.261-12.793-2.542-25.206-7.556-37.002
		c-5.092-11.981-12.266-22.496-22.595-30.685c-6.856-5.436-14.677-8.791-23.251-9.766c-14.276-1.623-28.082,0.646-41.09,6.884
		c-15.099,7.24-27.79,17.71-38.88,30.088c-7.071,7.892-13.033,16.65-18.496,25.758c-10.189,16.986-17.512,35.04-21.302,54.514
		c-0.827,4.25-1.96,8.457-3.213,12.606C151.616,393.106,148.585,408.711,149.042,424.362z M659.216,250.749
		c6.766-0.127,13.517-0.052,20.288-0.838c9.688-1.125,19.268-2.651,28.682-5.183c8.332-2.241,15.992-5.937,22.64-11.406
		c9.631-7.922,15.017-18.047,14.882-30.762c-0.02-1.91-0.046-3.82-0.03-5.73c0.04-4.767-1.048-9.319-2.808-13.695
		c-2.409-5.99-5.518-11.634-9.564-16.671c-5.775-7.19-12.362-13.611-19.503-19.445c-9.473-7.739-19.826-14.054-31.102-18.825
		c-9.777-4.137-19.772-7.594-30.158-9.926c-9.002-2.021-18.065-3.565-27.267-4.206c-9.348-0.652-18.698-1.337-28.06-1.723
		c-6.939-0.286-13.871,0.262-20.813,0.711c-8.68,0.561-17.31,1.493-25.893,2.721c-13.082,1.872-25.987,4.671-38.609,8.686
		c-8.476,2.696-16.732,5.864-24.198,10.784c-8.489,5.594-15.068,12.827-18.46,22.556c-1.435,4.116-2.993,8.134-5.219,11.891
		c-0.705,1.189-1.248,2.484-1.773,3.767c-3.636,8.888-3.184,17.568,1.122,26.165c4.14,8.265,10.723,13.984,18.629,18.35
		c14.746,8.143,30.495,13.417,47.11,16.129c7.372,1.203,14.756,2.331,22.125,3.55c25.53,4.225,51.011,8.763,76.797,11.279
		C638.411,249.939,648.771,250.992,659.216,250.749z M295.468,887.424c6.481,0.067,16.819-1.006,26.826-4.273
		c5.279-1.723,10.435-3.818,15.698-5.594c3.813-1.286,7.423-2.969,10.831-5.064c5.412-3.327,9.759-7.728,13.004-13.219
		c5.598-9.471,6.411-19.826,4.739-30.275c-2.506-15.662-9.78-29.21-20.328-40.971c-4.393-4.898-8.957-9.623-13.802-14.131
		c-11.155-10.378-23.397-19.049-36.969-25.929c-12.418-6.295-25.236-11.612-38.371-16.214c-11.663-4.087-23.493-7.542-35.695-9.535
		c-4.611-0.753-9.345-1.418-13.981-1.206c-8.351,0.38-16.604,1.876-24.315,5.309c-13.527,6.022-23.268,15.545-27.285,30.202
		c-0.78,2.845-1.746,5.638-2.548,8.477c-2.916,10.316-4.203,20.728-1.872,31.367c1.909,8.712,5.064,17.014,9.134,24.873
		c8.251,15.931,20.28,28.525,35.578,37.882c11.14,6.813,22.878,12.433,35.281,16.631c8.894,3.01,17.887,5.612,27.04,7.739
		C269.316,886.021,280.298,887.403,295.468,887.424z M494.454,430.61c-3.614,0.387-7.326,0.375-10.826,1.228
		c-16.064,3.917-27.055,13.625-32.349,29.397c-5.106,15.212-3.542,30.169,2.561,44.708c2.495,5.943,4.612,11.926,6.172,18.182
		c3.368,13.502,9.362,25.772,18.735,36.157c4.994,5.534,10.451,10.65,15.7,15.954c10.75,10.865,23.828,17.806,38.187,22.569
		c5.796,1.922,11.76,3.151,17.85,3.459c8.86,0.448,17.243-1.318,24.943-5.941c8.697-5.221,14.41-12.917,18.319-22.049
		c5.718-13.357,8.001-27.241,5.862-41.716c-2.1-14.212-6.142-27.77-13.868-40.027c-4.265-6.765-9.065-13.174-14.509-19.017
		c-12.143-13.034-25.811-24.214-41.541-32.718C518.714,434.863,507.208,430.691,494.454,430.61z M677.156,303.998
		c3.472-0.139,6.952-0.167,10.413-0.441c6.056-0.479,12.103-1.072,18.148-1.684c7.599-0.77,15.208-1.484,22.782-2.456
		c6.074-0.779,11.848-2.678,17.279-5.565c7.538-4.008,14.7-8.586,21.267-14.049c2.532-2.106,5.171-4.158,7.346-6.604
		c8.689-9.776,15.703-20.771,22.284-32.005c4.739-8.09,8.33-16.777,11.949-25.438c3.761-9.001,5.293-18.269,4.831-27.975
		c-0.203-4.264-1.196-8.22-3.173-11.967c-2.408-4.565-3.859-5.026-8.129-2.283c-7.843,5.039-14.43,11.554-19.876,18.975
		c-8.319,11.335-15.999,23.136-23.997,34.707c-5.329,7.71-10.668,15.416-16.142,23.023c-2.645,3.675-5.738,7.11-9.621,9.439
		c-5.352,3.21-10.918,6.101-16.557,8.784c-6.462,3.075-13.462,4.64-20.392,6.274c-4.214,0.993-8.522,1.646-12.82,2.218
		c-5.332,0.71-10.684,1.371-16.049,1.711c-9.365,0.592-18.748,0.859-28.096-0.378c-8.781-1.163-17.581-2.212-26.329-3.589
		c-10.807-1.702-21.584-3.606-32.345-5.584c-9.738-1.79-19.378-4.189-29.165-5.607c-12.28-1.779-24.174-4.886-35.869-8.854
		c-12.045-4.087-23.459-9.635-34.671-15.585c-5.717-3.034-10.894-6.885-15.139-11.789c-5.596-6.464-10.375-13.488-13.512-21.519
		c-0.884-2.265-1.741-4.542-2.702-6.774c-1.279-2.972-3.425-5.218-6.221-6.801c-5.431-3.075-11.318-1.113-13.88,4.598
		c-1.022,2.277-1.428,4.697-0.842,7.125c0.567,2.351,1.221,4.722,2.198,6.924c1.618,3.647,3.371,7.255,5.36,10.712
		c1.812,3.151,3.688,6.371,6.102,9.05c7.931,8.803,16.597,16.841,26.906,22.846c8.403,4.895,16.923,9.595,25.458,14.258
		c9.34,5.103,19.229,8.852,29.473,11.742c11.41,3.22,23.11,4.878,34.786,6.648c13.223,2.005,26.516,3.569,39.707,5.758
		c15.937,2.644,31.783,5.826,47.697,8.613C656.044,302.283,666.469,304.327,677.156,303.998z M194.57,547.849
		c4.348-0.257,7.297-0.383,10.238-0.615c8.129-0.643,16.223-1.871,24.408-1.597c11.225,0.376,22.15-1.462,32.941-4.332
		c11.732-3.121,22.48-8.349,32.064-15.741c7.856-6.059,13.797-13.661,16.576-23.407c0.714-2.504,1.527-4.979,2.22-7.488
		c2.695-9.758,6.377-19.122,11.7-27.745c5.743-9.305,11.804-18.413,17.621-27.673c2.86-4.553,5.497-9.246,8.206-13.892
		c2.098-3.598,3.99-7.326,6.257-10.813c4.458-6.856,8.492-13.934,11.937-21.345c2.853-6.138,5.655-12.301,8.468-18.457
		c1.299-2.842,2.621-5.674,3.845-8.548c2.893-6.795,4.001-14.004,4.633-21.281c0.841-9.67,2.373-19.263,2.713-28.999
		c0.246-7.06-0.478-13.859-2.982-20.415c-0.719-1.883-2.043-3.624-3.399-5.157c-2.786-3.149-6.207-2.511-8.091,0.833
		c-2.315,4.109-4.26,8.346-5.56,12.873c-2.059,7.171-4.141,14.335-6.116,21.529c-1.57,5.718-3.874,11.126-6.346,16.5
		c-2.391,5.197-4.611,10.484-6.622,15.839c-2.2,5.856-4.555,11.622-7.294,17.255c-4.857,9.988-9.397,20.13-14.294,30.097
		c-3.322,6.762-5.464,13.862-7.2,21.143c-3.591,15.057-9.565,29.353-14.233,44.066c-0.105,0.33-0.265,0.642-0.393,0.964
		c-3.22,8.075-8.193,14.793-15.033,20.239c-3.103,2.471-5.803,5.467-8.562,8.343c-3.122,3.253-6.054,6.687-9.174,9.943
		c-1.189,1.241-2.543,2.426-4.033,3.259c-10.437,5.835-21.339,10.116-33.606,9.671c-3.992-0.145-8.023,0.172-11.979-0.256
		c-9.705-1.051-19.432-0.712-29.15-0.839c-9.68-0.127-18.028-3.207-24.761-10.297c-0.597-0.628-1.193-1.309-1.92-1.752
		c-2.36-1.439-4.646-3.149-7.205-4.085c-6.53-2.388-11.917,1.369-12.342,8.298c-0.274,4.472,0.826,8.571,3.13,12.418
		c6.78,11.318,16.937,17.677,29.708,19.975C185.873,547.247,190.928,547.467,194.57,547.849z M572.353,650.162
		c5.697-0.528,11.421-0.854,17.083-1.633c7.793-1.072,15.204-3.598,22.322-6.905c10.119-4.701,19.495-10.659,28.406-17.332
		c3.884-2.908,7.787-5.872,11.24-9.259c8.579-8.413,15.73-18.032,22.563-27.881c0.69-0.995,1.302-2.061,1.818-3.156
		c3.33-7.063,6.741-14.092,9.887-21.237c2.029-4.61,3.431-9.456,4.163-14.475c0.933-6.396-0.267-12.437-2.961-18.226
		c-0.43-0.924-1.101-1.767-1.79-2.531c-1.128-1.251-2.606-1.734-4.255-1.339c-1.176,0.282-2.352,0.648-3.456,1.138
		c-6.116,2.716-11.544,6.463-15.801,11.629c-6.508,7.899-12.882,15.912-19.163,23.992c-5.642,7.258-10.972,14.738-17.121,21.622
		c-7.895,8.839-16.183,17.255-25.915,24.002c-12.707,8.811-26.724,13.124-42.377,10.406c-5.131-0.891-10.296-1.592-15.413-2.552
		c-9.723-1.824-19.561-3.133-29.008-6.249c-5.278-1.741-10.555-3.489-15.858-5.153c-7.419-2.327-13.969-6.153-19.691-11.37
		c-4.742-4.323-9.367-8.775-14.065-13.147c-1.267-1.179-2.505-2.441-3.946-3.371c-2.692-1.735-5.125-0.627-5.89,2.515
		c-0.122,0.503-0.262,1.035-0.217,1.539c0.498,5.689,0.708,11.386,3.323,16.716c5.537,11.283,14.23,19.621,24.549,26.33
		c10.428,6.78,22.04,10.971,33.973,14.281c6.694,1.857,13.398,3.679,20.117,5.442C547.152,647.181,559.489,650.08,572.353,650.162z
		 M265.683,928.103c9.538-0.281,19.073-0.106,28.623-0.863c9.55-0.757,18.963-2.092,28.368-3.76
		c5.809-1.03,11.642-2.181,17.51-2.551c6.969-0.439,13.781-1.462,20.581-2.972c12.943-2.873,24.68-8.269,35.014-16.527
		c3.646-2.914,6.828-6.41,10.205-9.657c2.782-2.675,4.889-5.842,6.728-9.215c7.31-13.407,10.771-27.774,10.474-42.997
		c-0.091-4.664-0.626-9.354-1.378-13.963c-0.993-6.087-3.333-11.503-7.894-16.051c-4.604-4.591-13.084-4.374-17.435-0.064
		c-4.622,4.579-7.544,10.014-9.095,16.113c-1.88,7.388-3.259,14.908-4.695,22.401c-0.754,3.934-1.474,7.866-3.227,11.488
		c-2.571,5.312-5.21,10.592-7.94,15.824c-2.114,4.052-5.004,7.482-8.772,10.15c-11.881,8.413-24.912,13.554-39.57,14.523
		c-7.96,0.527-15.879,1.64-23.826,2.394c-6.562,0.623-13.131,1.455-19.708,1.581c-15.107,0.289-30.222,0.28-45.333,0.212
		c-3.263-0.015-6.595-0.498-9.767-1.282c-4.881-1.207-9.637-2.91-14.472-4.311c-4.001-1.159-8.028-2.233-12.066-3.256
		c-3.204-0.811-6.234-0.018-9.055,1.48c-4.782,2.54-6.522,7.441-4.321,12.402c0.759,1.711,1.878,3.332,3.113,4.749
		c4.315,4.95,10.116,7.24,16.351,8.47c16.204,3.198,32.535,5.393,49.079,5.669C257.345,928.162,261.515,928.103,265.683,928.103z
		 M513.81,878.121c-1.013,0.062-2.918,0.174-4.822,0.298c-3.807,0.248-7.612,0.691-11.42,0.717
		c-10.732,0.074-20.499,3.253-29.558,8.821c-12.318,7.571-21.163,18.292-27.999,30.851c-4.088,7.51-6.567,15.672-9.79,23.533
		c-2.528,6.166-3.763,12.635-4.43,19.205c-0.241,2.377-0.057,4.878,0.426,7.221c0.331,1.608,1.287,3.233,2.367,4.51
		c1.675,1.979,4.252,1.953,5.893-0.026c1.079-1.301,1.887-2.902,2.511-4.489c1.747-4.445,4.233-8.39,7.809-11.536
		c3.642-3.204,7.443-6.229,11.221-9.276c5.13-4.136,10.355-8.157,15.448-12.338c7.104-5.833,14.08-11.822,21.2-17.635
		c3.357-2.741,7.173-4.959,10.328-7.9c3.796-3.539,8.282-5.574,12.906-7.619c7.299-3.229,14.469-6.747,21.681-10.17
		c0.936-0.444,1.846-0.98,2.679-1.595c2.179-1.609,2.197-3.515,0.096-5.077c-0.416-0.309-0.878-0.559-1.326-0.824
		C531.528,880.359,523.41,878.185,513.81,878.121z M740.671,467.619c16.003,0.319,28.466-5.378,38.8-15.898
		c3.028-3.082,5.605-6.616,8.29-10.021c1.953-2.478,3.352-5.281,4.07-8.373c1.158-4.991-1.74-9.078-6.844-9.555
		c-3.312-0.309-6.593-0.09-9.753,1.126c-3.728,1.434-7.511,2.732-11.2,4.257c-2.558,1.058-5.034,2.332-7.482,3.63
		c-4.91,2.603-9.779,5.283-14.658,7.945c-2.342,1.278-4.834,1.748-7.499,1.863c-7.238,0.313-14.205-0.591-20.784-3.823
		c-1.867-0.917-3.84-1.623-5.784-2.376c-4.088-1.584-7.81-3.735-11.119-6.649c-1.42-1.25-3.011-2.411-4.712-3.217
		c-4.417-2.092-8.681-0.149-9.69,4.57c-1.212,5.671-0.477,11.094,3.476,15.678c3.444,3.993,7.412,7.339,12.435,9.203
		c7.49,2.779,14.939,5.689,22.522,8.188C727.515,466.401,734.478,467.976,740.671,467.619z M734.372,366.603
		c-0.646,0.04-1.691,0.055-2.723,0.177c-12.303,1.463-22.637,6.75-30.259,16.545c-5.444,6.996-7.845,15.03-5.618,23.957
		c0.758,3.04,1.879,5.951,3.813,8.488c1.789,2.346,3.435,4.809,5.327,7.067c9.068,10.817,20.567,15.62,34.645,13.425
		c11.657-1.818,20.145-8.235,25.156-18.841c3.408-7.214,4.212-14.85,2.781-22.85C764.748,379.22,752.672,366.956,734.372,366.603z"
		/>
	<path fill="#81889B" d="M838.312,104.711c1.914,0.809,3.87,1.534,5.737,2.441c24.422,11.858,47.628,25.788,69.924,41.239
		c13.846,9.595,27.05,20.032,40.059,30.736c17.595,14.477,33.881,30.328,49.576,46.785c9.696,10.167,18.875,20.825,27.651,31.81
		c9.646,12.075,18.886,24.456,27.405,37.349c10.051,15.21,19.354,30.864,27.854,47.01c9.068,17.225,17.072,34.915,24.193,53.011
		c5.149,13.084,9.716,26.379,13.769,39.843c0.847,2.813,1.338,5.733,1.992,8.603c-3.005,0.038-5.783,0.949-8.537,2.064
		c-7.702,3.119-13.504,8.456-17.578,15.546c-2.928,5.095-5.457,10.435-7.906,15.783c-1.808,3.95-2.95,8.135-2.787,12.581
		c0.05,1.375-0.052,2.785-0.307,4.138c-1.506,7.995-0.466,15.933,0.989,23.744c2.007,10.775,5.946,20.971,10.634,30.872
		c3.243,6.849,7.904,12.608,13.651,17.47c1.827,1.546,3.954,2.811,6.099,3.898c7.311,3.703,14.918,4.094,22.733,1.745
		c1.484-0.446,3.051-0.618,4.579-0.916c0.81,6.925,1.368,13.861,0.879,20.843c-5.1,0.97-10.118,2.243-15.346,2.701
		c-8.855,0.777-17.659,1.049-26.483-0.14c-3.096-0.417-6.199-1.161-9.292-1.128c-3.856,0.041-5.756-1.813-6.695-5.206
		c-0.231-0.836-0.458-1.674-0.681-2.513c-2.939-11.07-5.955-22.121-8.774-33.221c-1.065-4.193-1.818-8.48-2.457-12.763
		c-0.947-6.344-1.681-12.719-2.48-19.084c-1.021-8.131-0.733-16.281-0.188-24.42c0.417-6.223,1.348-12.423,1.526-18.649
		c0.194-6.786,0.679-13.496,1.927-20.174c0.375-2.006,0.306-4.161,0.051-6.2c-0.287-2.297-2.035-3.593-4.332-3.762
		c-2.27-0.167-4.057,0.757-5.49,2.433c-2.396,2.801-4.151,5.973-5.432,9.423c-4.638,12.491-6.538,25.492-7.249,38.715
		c-0.056,1.036-0.013,2.086,0.086,3.12c0.658,6.902,1.232,13.815,2.053,20.698c0.699,5.859,1.599,11.727,3.674,17.279
		c3.949,10.565,7.932,21.123,12.218,31.554c3.241,7.889,7.252,15.396,13.538,21.42c0.482,0.462,0.773,1.124,1.24,1.825
		c-0.354,0.97-0.697,1.927-1.052,2.88c-1.028,2.757-0.243,5.125,1.643,7.19c0.694,0.76,1.536,1.413,2.396,1.987
		c5.56,3.714,11.581,6.141,18.256,7.167c6.051,0.931,12.102,0.917,18.178,0.996c4.773,0.062,9.299-0.958,13.749-2.55
		c1.79-0.641,3.623-1.163,5.436-1.739c0.225,6.767,0.384,13.53-0.514,20.272c-0.182,1.372-0.144,2.772-0.25,4.156
		c-0.606,7.953-1.239,15.903-1.836,23.856c-0.896,11.95-2.767,23.776-4.559,35.61c-0.571,3.772-1.295,7.523-2.008,11.272
		c-4.839,25.445-11.298,50.471-19.815,74.938c-5.651,16.235-11.969,32.216-19.301,47.779c-3.402,7.222-6.759,14.471-10.384,21.583
		c-12.477,24.477-26.809,47.83-42.693,70.253c-10.046,14.181-20.953,27.673-32.156,40.932c-4.141,4.901-8.597,9.538-12.947,14.26
		c-3.88,4.212-7.636,8.559-11.76,12.521c-8.508,8.173-17.198,16.159-25.863,24.168c-13.79,12.747-28.633,24.199-43.792,35.244
		c-15.311,11.156-31.231,21.402-47.731,30.703c-10.433,5.882-21.009,11.536-31.73,16.875c-16.487,8.21-33.448,15.356-50.729,21.761
		c-18.264,6.769-36.837,12.533-55.703,17.322c-20.719,5.26-41.65,9.545-62.885,12.145c-10.332,1.265-20.711,2.145-31.065,3.241
		c-20.25,2.143-40.569,2.175-60.884,1.742c-8.492-0.181-16.976-0.988-25.451-1.666c-8.476-0.678-16.963-1.333-25.395-2.395
		c-9.643-1.215-19.254-2.732-28.838-4.36c-17.997-3.058-35.73-7.311-53.29-12.274c-13.879-3.923-27.585-8.391-41.078-13.491
		c-1.443-0.546-2.763-1.418-4.136-2.137c4.694,0.062,9.423-0.231,14.061,0.286c4.512,0.503,8.999,0.67,13.514,0.677
		c6.256,0.01,12.513,0.004,18.769-0.012c1.563-0.004,3.13-0.02,4.689-0.121c9.519-0.616,19.039-1.228,28.555-1.905
		c5.538-0.394,11.083-0.77,16.596-1.404c6.552-0.754,13.069-1.806,19.607-2.675c17.924-2.384,35.614-5.985,53.26-9.893
		c13.564-3.004,26.608-7.962,40.3-10.437c0.51-0.092,0.999-0.294,1.501-0.436c4.792-1.357,7.976-4.801,10.827-8.565
		c0.801-1.057,1.173-2.519,1.473-3.856c0.629-2.8-0.313-4.221-3.061-5.055c-1.986-0.603-4.017-1.106-5.93-1.891
		c-4.659-1.912-9.31-3.856-13.868-5.992c-3.132-1.468-6.208-3.115-9.12-4.978c-4.241-2.712-8.211-5.849-12.473-8.523
		c-11.398-7.149-21.249-16.189-31.152-25.165c-3.75-3.398-7.73-6.438-11.993-9.145c-4.869-3.092-10.211-5.175-15.488-7.409
		c-6.265-2.652-12.203-5.698-16.956-10.864c-3.422-3.72-5.689-7.806-6.752-12.674c-0.894-4.094-1.215-8.226-1.224-12.411
		c-0.005-2.241-0.072-4.555-0.619-6.707c-1.445-5.679-7.115-7.658-11.811-4.194c-2.537,1.871-4.592,4.218-5.959,7.124
		c-4.261,9.055-4.664,18.414-2.005,27.921c2.531,9.049,8.126,16.149,15.455,21.711c8.566,6.502,17.218,12.932,27.049,17.564
		c2.789,1.314,5.443,3.148,7.748,5.203c3.88,3.459,7.602,7.11,10.7,11.356c1.939,2.657,4.079,5.198,6.356,7.573
		c4.326,4.514,8.631,9.079,13.294,13.231c4.003,3.564,8.313,6.86,12.814,9.77c5.152,3.331,10.97,5.182,17.122,5.857
		c0.912,0.1,2.194-0.217,2.45,1.628c-0.766,0.19-1.559,0.592-2.318,0.537c-2.935-0.211-5.882-0.426-8.782-0.895
		c-10.912-1.765-21.17-5.638-30.979-10.532c-5.88-2.933-11.29-6.81-16.898-10.284c-2.804-1.737-5.516-3.632-8.38-5.261
		c-4.226-2.402-8.629-4.498-12.819-6.959c-12.097-7.104-22.719-15.923-31.243-27.165c-6.212-8.193-11.781-16.765-15.974-26.176
		c-0.845-1.897-1.651-3.836-2.212-5.83c-2.227-7.915-3.03-15.981-2.671-24.212c0.28-6.424,2.141-12.31,5.405-17.737
		c5.939-9.876,14.652-16.733,25.106-21.114c15.759-6.605,32.049-7.364,48.478-2.607c6.667,1.93,13.138,4.538,19.809,6.451
		c6.257,1.794,11.977,4.676,17.559,7.845c11.791,6.693,23.324,13.806,33.694,22.619c4.89,4.156,9.816,8.285,14.474,12.692
		c3.14,2.97,6.043,6.248,8.699,9.662c7.467,9.596,14.733,19.35,19.741,30.536c2.505,5.595,4.165,11.451,4.232,17.609
		c0.128,11.687-4.536,21.624-11.909,30.346c-2.554,3.021-5.823,5.436-8.75,8.146c-0.712,0.659-1.823,1.2-0.88,2.759
		c0.722-0.175,1.546-0.299,2.315-0.575c4.414-1.585,8.814-3.212,13.221-4.816c19.45-7.079,38.305-15.546,56.907-24.577
		c7.653-3.716,15.124-7.807,22.66-11.762c13.699-7.19,26.966-15.133,39.968-23.494c14.902-9.583,29.608-19.471,43.585-30.386
		c5.883-4.594,11.739-9.224,17.526-13.937c4.843-3.944,9.594-8.003,14.337-12.068c4.61-3.951,9.242-7.883,13.715-11.986
		c6.011-5.513,11.907-11.154,17.793-16.802c1.749-1.678,3.309-3.553,4.94-5.353c0.932-1.028,1.773-2.146,2.758-3.12
		c8.397-8.308,16.516-16.865,23.973-26.039c7.442-9.156,15.197-18.068,22.388-27.414c10.378-13.488,20.266-27.352,29.094-41.921
		c6.206-10.243,12.52-20.443,18.204-30.975c6.51-12.063,12.644-24.334,18.199-36.891c5.493-12.417,9.956-25.166,13.69-38.201
		c3.492-12.191,6.467-24.503,9.206-36.88c3.041-13.738,5.422-27.594,7.298-41.528c1.319-9.794,2.272-19.638,3.335-29.466
		c1.119-10.348,1.933-20.716,1.984-31.138c0.014-2.766,0.452-5.527,0.573-8.296c0.143-3.29,0.181-6.586,0.201-9.88
		c0.004-0.659-0.235-1.361-1.484-1.223c-0.561,1.654-1.255,3.412-1.755,5.224c-2.978,10.787-7.349,20.936-13.521,30.307
		c-9.431,14.319-22.016,24.423-38.768,28.831c-7.281,1.916-14.744,2.461-22.226,1.292c-7.045-1.101-13.986-2.711-20.782-4.9
		c-7.524-2.424-14.374-6.078-20.51-11.081c-6.88-5.61-13.053-11.96-19.337-18.201c-3.245-3.223-5.842-6.871-7.867-10.946
		c-2.551-5.132-5.163-10.236-7.613-15.416c-3.711-7.845-7.507-15.657-9.485-24.195c-1.175-5.07-2.74-10.054-3.81-15.143
		c-0.526-2.506-0.633-5.194-0.38-7.745c0.355-3.583,2.069-6.587,5.24-8.588c7.415-4.68,17.107-0.433,18.359,8.421
		c0.977,6.909,2.406,13.657,4.512,20.287c1.681,5.293,3.06,10.703,5.084,15.86c3.357,8.553,8.971,15.585,15.713,21.788
		c2.709,2.492,5.562,4.715,8.825,6.398c2.625,1.354,5.25,2.718,7.945,3.923c6.513,2.911,13.174,5.427,20.139,7.056
		c5.43,1.27,10.701,0.869,15.74-1.643c2.332-1.163,4.706-2.258,6.959-3.56c3.171-1.832,6.106-3.967,8.153-7.13
		c5.066-7.825,8.556-16.266,10.06-25.485c0.093-0.572-0.192-1.205-0.398-2.347c-1.058,0.863-1.834,1.273-2.3,1.91
		c-5.806,7.948-13.627,13.304-22.45,17.297c-8.847,4.005-17.882,5.183-27.345,1.878c-9.144-3.194-17.42-7.902-24.94-13.853
		c-5.623-4.449-10.324-9.873-13.035-16.657c-2.123-5.314-4.035-10.717-5.887-16.133c-1.409-4.118-2.016-8.406-2.494-12.742
		c-0.628-5.707-0.922-11.408-0.89-17.141c0.008-1.378-0.204-2.769-0.424-4.136c-1.488-9.25-3.188-18.47-4.448-27.75
		c-0.792-5.83-1.267-11.746-1.297-17.627c-0.04-8.159,1.174-16.253,2.359-24.319c0.96-6.536,2.328-12.992,4.563-19.228
		c1.705-4.756,3.68-9.46,6.836-13.403c5.4-6.746,11.996-11.974,20.366-14.797c7.784-2.625,15.655-3.192,23.615-1.336
		c13.146,3.065,23.925,10.003,32.492,20.409c0.727,0.883,1.548,1.69,2.707,2.947c0.117-1.141,0.354-1.697,0.186-2.073
		c-3.747-8.396-7.065-17.002-12.129-24.758c-1.135-1.739-2.143-3.569-3.083-5.421c-0.252-0.497-0.038-1.23-0.038-2.412
		c1.413,0.669,2.498,0.888,3.147,1.54c3.671,3.688,7.531,7.245,10.769,11.293c4.875,6.095,8.997,12.743,13.171,19.356
		c7.727,12.242,13.978,25.192,19.534,38.502c4.681,11.212,9.166,22.506,13.757,33.756c0.304,0.745,0.54,1.72,2.128,1.279
		c0-1.078,0.143-2.268-0.025-3.413c-0.729-4.979-1.486-9.956-2.347-14.913c-3.39-19.511-7.568-38.842-12.868-57.939
		c-5.25-18.916-10.976-37.667-17.82-56.075c-6.117-16.452-13.044-32.554-20.824-48.28c-4.618-9.335-9.52-18.531-14.369-27.749
		c-6.31-11.996-13.371-23.559-20.815-34.873c-11.649-17.704-24.097-34.819-37.915-50.93c-8.929-10.41-17.897-20.769-27.637-30.437
		c-6.658-6.609-13.213-13.325-20.008-19.789C844.03,119.897,840.559,112.678,838.312,104.711z M866.175,1007.417
		c-0.744-1.854-1.492-3.781-2.286-5.688c-3.215-7.721-8.93-12.664-16.916-14.973c-5.535-1.6-11.272-1.959-16.982-2.314
		c-1.873-0.117-3.799,0.273-5.675,0.584c-8.125,1.347-14.914,5.548-21.33,10.363c-3.036,2.279-5.887,4.876-8.494,7.638
		c-2.968,3.145-5.481,6.715-8.373,9.938c-1.364,1.52-2.979,2.995-4.775,3.916c-6.539,3.351-11.25,8.615-15.559,14.314
		c-5.147,6.809-7.644,14.657-9.103,22.99c-1.457,8.316-0.049,15.847,4.866,22.727c0.461,0.645,0.686,1.457,1.19,2.565
		c-1.252,0.211-2.073,0.531-2.851,0.448c-3.415-0.36-6.348-1.889-8.682-4.332c-4.501-4.713-8.153-9.932-8.938-16.665
		c-0.281-2.408-0.585-4.813-0.933-7.212c-0.248-1.71-0.398-3.467-0.922-5.098c-0.99-3.081-3.273-4.364-6.482-3.809
		c-3.333,0.577-5.713,2.598-7.146,5.525c-2.09,4.267-3.256,8.889-2.723,13.612c0.683,6.04,2.273,11.875,4.902,17.456
		c3.319,7.045,8.169,12.819,13.644,18.222c3.58,3.534,7.818,5.815,12.588,6.998c6.619,1.641,13.403,2.086,20.173,1.263
		c8.114-0.986,16-2.983,23.821-5.446c13.611-4.286,24.283-12.531,32.967-23.518c6.237-7.892,12.163-16.032,18.155-24.116
		c5.903-7.964,11.138-16.369,15.365-25.326c2.285-4.842,4.092-9.944,5.697-15.06c0.981-3.127-0.12-4.175-3.527-4.57
		C867.346,1007.792,866.861,1007.599,866.175,1007.417z M1045.886,711.341c0,0.868-0.014,1.736,0.002,2.603
		c0.106,5.764,0.894,11.425,2.926,16.841c2.811,7.491,8.781,11.578,16.714,11.83c5.024,0.16,9.675-1.138,13.995-3.469
		c6.98-3.765,12.704-9.089,17.468-15.368c4.632-6.106,8.388-12.777,11.431-19.806c4.66-10.767,5.655-21.725,1.413-32.924
		c-1.061-2.8-2.443-5.374-4.263-7.709c-3.639-4.669-8.17-8.131-14.139-9.051c-11.586-1.785-21.246,1.727-28.644,10.984
		c-4.037,5.051-7.015,10.733-9.914,16.473C1048.173,691.061,1045.86,700.922,1045.886,711.341z M903.013,471.893
		c0.002,0,0.004,0,0.007,0c0,4.688,0.017,9.376-0.004,14.063c-0.027,6.079,0.134,12.134,1.112,18.164
		c1.033,6.366,2.507,12.62,4.837,18.613c3.608,9.28,9.514,16.822,17.673,22.655c3.982,2.847,8.054,5.443,12.615,7.224
		c3.844,1.501,7.77,1.859,11.723,0.469c4.977-1.751,6.291-5.214,3.748-9.733c-2.746-4.879-6.3-9.112-10.216-13.099
		c-5.531-5.63-9.74-12.103-12.741-19.473c-3.595-8.832-4.772-18.08-5.635-27.42c-0.174-1.88,0.125-3.808,0.257-5.71
		c0.191-2.766,0.577-5.527,0.618-8.294c0.105-7.117,0.002-14.237,0.106-21.354c0.064-4.371-0.454-8.674-1.298-12.928
		c-1.526-7.688-4.833-14.455-10.818-19.734c-2.398-2.115-5.055-3.69-8.305-3.994c-5.349-0.502-9.618,2.661-10.444,7.963
		c-0.258,1.654-0.063,3.478,0.355,5.115c0.685,2.684,1.519,5.369,2.652,7.891c2.916,6.487,3.782,13.304,3.764,20.311
		C903,459.045,903.013,465.469,903.013,471.893z M1017.852,715.749c0,2.604-0.139,5.217,0.04,7.809
		c0.167,2.416,0.589,4.825,1.042,7.21c1.87,9.833,5.122,19.109,11.222,27.203c2.952,3.916,6.305,7.459,10.604,9.875
		c4.759,2.675,9.845,4.666,15.426,3.522c5.269-1.08,10.476-2.504,15.652-3.98c3.215-0.917,5.998-2.699,8.271-5.226
		c2.826-3.141,2.377-5.587-1.419-7.259c-0.632-0.279-1.301-0.53-1.978-0.64c-2.739-0.445-5.482-1.119-8.235-1.181
		c-6.679-0.152-12.572-2.43-18.013-6.073c-4.577-3.064-8.138-7.019-10.155-12.227c-0.877-2.266-1.926-4.486-2.573-6.817
		c-1.716-6.185-3.211-12.431-4.878-18.63c-1.899-7.061-3.305-14.194-3.623-21.52c-0.037-0.853-0.214-1.726-0.485-2.537
		c-0.548-1.641-2.63-2.266-3.761-0.995c-1.003,1.128-1.926,2.503-2.365,3.928C1019.86,697.18,1017.334,706.212,1017.852,715.749z
		 M1034.458,866.124c0.423-9.811-6.372-16.625-14.383-17.176c-12.274-0.845-23.02,2.722-31.455,11.962
		c-3.912,4.285-6.712,9.263-7.871,15.052c-0.416,2.079-0.497,4.12,0.067,6.182c1.126,4.118,3.741,6.621,8.256,6.373
		c2.247-0.123,4.589-0.329,6.748,0.143c4.895,1.07,9.683,0.625,14.472-0.34c7.31-1.472,13.924-4.361,19.059-9.978
		C1032.606,874.782,1035.004,870.828,1034.458,866.124z M996.85,301.775c0.715,10.236,3.693,19.882,9.684,28.16
		c6.24,8.622,17.498,9.514,25.496,1.968c4.303-4.06,5.706-9.106,5.407-14.633c-0.698-12.882-7.268-22.63-17.423-29.969
		c-5.772-4.171-14.119-2.712-18.925,2.498C997.962,293.188,996.64,297.177,996.85,301.775z M972.261,916.249
		c4.157-0.607,8.569-0.841,12.436-3.041c1.934-1.1,3.774-2.472,5.379-4.011c1.922-1.842,1.435-3.477-1.034-4.16
		c-1.334-0.369-2.706-0.637-4.078-0.833c-6.776-0.966-13.106-3.23-19.24-6.223c-3.513-1.714-5.812-4.318-7.038-7.933
		c-0.668-1.969-1.118-4.013-1.806-5.974c-1.428-4.072-5.279-5.162-8.711-2.47c-1.801,1.413-3.192,3.164-3.956,5.377
		c-3.158,9.147,1.684,19.141,7.269,22.793C957.721,913.854,964.717,915.761,972.261,916.249z"/>
	<path fill="#A4A9B3" d="M838.312,104.711c2.247,7.967,5.718,15.186,11.856,21.025c6.795,6.464,13.351,13.18,20.008,19.789
		c9.739,9.668,18.708,20.027,27.637,30.437c13.818,16.11,26.266,33.226,37.915,50.93c7.445,11.314,14.505,22.877,20.815,34.873
		c4.849,9.219,9.752,18.414,14.369,27.749c7.779,15.726,14.706,31.829,20.824,48.28c6.844,18.408,12.57,37.159,17.82,56.075
		c5.3,19.096,9.478,38.427,12.868,57.939c0.861,4.958,1.618,9.934,2.347,14.913c0.168,1.145,0.025,2.336,0.025,3.413
		c-1.589,0.441-1.824-0.533-2.128-1.279c-4.591-11.25-9.076-22.543-13.757-33.756c-5.556-13.31-11.807-26.26-19.534-38.502
		c-4.174-6.614-8.296-13.261-13.171-19.356c-3.237-4.048-7.098-7.604-10.769-11.293c-0.649-0.652-1.734-0.87-3.147-1.54
		c0,1.181-0.214,1.915,0.038,2.412c0.94,1.852,1.948,3.682,3.083,5.421c5.064,7.756,8.382,16.362,12.129,24.758
		c0.168,0.376-0.069,0.932-0.186,2.073c-1.159-1.257-1.979-2.064-2.707-2.947c-8.567-10.406-19.346-17.343-32.492-20.409
		c-7.96-1.856-15.83-1.289-23.615,1.336c-8.37,2.823-14.966,8.051-20.366,14.797c-3.156,3.943-5.132,8.647-6.836,13.403
		c-2.235,6.236-3.603,12.692-4.563,19.228c-1.185,8.066-2.399,16.16-2.359,24.319c0.029,5.88,0.505,11.796,1.297,17.627
		c1.26,9.28,2.96,18.5,4.448,27.75c0.22,1.367,0.432,2.758,0.424,4.136c-0.032,5.733,0.261,11.434,0.89,17.141
		c0.478,4.336,1.085,8.624,2.494,12.742c1.852,5.416,3.764,10.819,5.887,16.133c2.711,6.785,7.412,12.208,13.035,16.657
		c7.52,5.951,15.796,10.659,24.94,13.853c9.463,3.305,18.497,2.126,27.345-1.878c8.822-3.993,16.643-9.349,22.45-17.297
		c0.465-0.637,1.241-1.047,2.3-1.91c0.206,1.141,0.491,1.775,0.398,2.347c-1.504,9.219-4.994,17.66-10.06,25.485
		c-2.047,3.163-4.983,5.298-8.153,7.13c-2.253,1.302-4.627,2.397-6.959,3.56c-5.038,2.512-10.31,2.913-15.74,1.643
		c-6.965-1.629-13.626-4.144-20.139-7.056c-2.695-1.205-5.32-2.569-7.945-3.923c-3.262-1.683-6.116-3.905-8.825-6.398
		c-6.742-6.203-12.356-13.235-15.713-21.788c-2.024-5.158-3.404-10.567-5.084-15.86c-2.105-6.63-3.535-13.378-4.512-20.287
		c-1.252-8.854-10.944-13.1-18.359-8.421c-3.17,2.001-4.884,5.004-5.24,8.588c-0.253,2.551-0.146,5.24,0.38,7.745
		c1.07,5.09,2.635,10.073,3.81,15.143c1.979,8.538,5.775,16.35,9.485,24.195c2.45,5.18,5.061,10.284,7.613,15.416
		c2.026,4.075,4.622,7.723,7.867,10.946c6.284,6.24,12.457,12.591,19.337,18.201c6.136,5.003,12.986,8.656,20.51,11.081
		c6.796,2.19,13.737,3.8,20.782,4.9c7.482,1.169,14.945,0.624,22.226-1.292c16.752-4.408,29.336-14.512,38.768-28.831
		c6.172-9.37,10.543-19.52,13.521-30.307c0.5-1.812,1.194-3.57,1.755-5.224c1.249-0.138,1.488,0.564,1.484,1.223
		c-0.02,3.294-0.057,6.59-0.201,9.88c-0.121,2.769-0.559,5.53-0.573,8.296c-0.051,10.421-0.866,20.789-1.984,31.138
		c-1.062,9.828-2.016,19.672-3.335,29.466c-1.877,13.934-4.257,27.79-7.298,41.528c-2.74,12.376-5.714,24.689-9.206,36.88
		c-3.734,13.035-8.197,25.784-13.69,38.201c-5.555,12.557-11.689,24.828-18.199,36.891c-5.684,10.533-11.998,20.732-18.204,30.975
		c-8.828,14.57-18.715,28.433-29.094,41.921c-7.191,9.346-14.946,18.259-22.388,27.414c-7.457,9.174-15.576,17.732-23.973,26.039
		c-0.984,0.974-1.825,2.091-2.758,3.12c-1.631,1.799-3.191,3.675-4.94,5.353c-5.886,5.647-11.782,11.288-17.793,16.802
		c-4.473,4.103-9.104,8.035-13.715,11.986c-4.743,4.065-9.494,8.124-14.337,12.068c-5.787,4.713-11.644,9.343-17.526,13.937
		c-13.977,10.916-28.683,20.804-43.585,30.386c-13.002,8.361-26.269,16.303-39.968,23.494c-7.535,3.955-15.007,8.046-22.66,11.762
		c-18.601,9.031-37.456,17.498-56.907,24.577c-4.407,1.604-8.807,3.231-13.221,4.816c-0.769,0.276-1.594,0.4-2.315,0.575
		c-0.942-1.559,0.169-2.1,0.88-2.759c2.926-2.71,6.196-5.125,8.75-8.146c7.373-8.722,12.037-18.659,11.909-30.346
		c-0.067-6.159-1.728-12.014-4.232-17.609c-5.008-11.186-12.274-20.94-19.741-30.536c-2.657-3.414-5.559-6.691-8.699-9.662
		c-4.658-4.406-9.584-8.536-14.474-12.692c-10.37-8.813-21.903-15.925-33.694-22.619c-5.582-3.169-11.302-6.05-17.559-7.845
		c-6.671-1.913-13.142-4.521-19.809-6.451c-16.428-4.756-32.719-3.998-48.478,2.607c-10.454,4.381-19.167,11.238-25.106,21.114
		c-3.264,5.427-5.125,11.313-5.405,17.737c-0.359,8.232,0.444,16.297,2.671,24.212c0.561,1.994,1.366,3.933,2.212,5.83
		c4.193,9.411,9.762,17.983,15.974,26.176c8.524,11.241,19.146,20.06,31.243,27.165c4.19,2.461,8.593,4.556,12.819,6.959
		c2.864,1.628,5.576,3.524,8.38,5.261c5.608,3.474,11.018,7.35,16.898,10.284c9.809,4.894,20.068,8.767,30.979,10.532
		c2.901,0.469,5.848,0.684,8.782,0.895c0.759,0.055,1.552-0.348,2.318-0.537c-0.256-1.845-1.538-1.528-2.45-1.628
		c-6.152-0.675-11.97-2.526-17.122-5.857c-4.501-2.91-8.811-6.205-12.814-9.77c-4.663-4.152-8.967-8.717-13.294-13.231
		c-2.277-2.376-4.417-4.916-6.356-7.573c-3.098-4.246-6.821-7.896-10.7-11.356c-2.305-2.055-4.959-3.889-7.748-5.203
		c-9.831-4.631-18.484-11.062-27.049-17.564c-7.328-5.562-12.924-12.662-15.455-21.711c-2.659-9.507-2.257-18.866,2.005-27.921
		c1.367-2.906,3.422-5.253,5.959-7.124c4.696-3.464,10.367-1.484,11.811,4.194c0.547,2.152,0.614,4.466,0.619,6.707
		c0.01,4.185,0.33,8.317,1.224,12.411c1.063,4.867,3.33,8.954,6.752,12.674c4.753,5.167,10.691,8.212,16.956,10.864
		c5.277,2.234,10.619,4.316,15.488,7.409c4.263,2.707,8.243,5.747,11.993,9.145c9.902,8.975,19.754,18.016,31.152,25.165
		c4.263,2.674,8.233,5.811,12.473,8.523c2.912,1.862,5.988,3.51,9.12,4.978c4.558,2.136,9.209,4.081,13.868,5.992
		c1.913,0.785,3.944,1.287,5.93,1.891c2.748,0.835,3.69,2.255,3.061,5.055c-0.3,1.337-0.672,2.799-1.473,3.856
		c-2.852,3.764-6.035,7.208-10.827,8.565c-0.501,0.142-0.991,0.344-1.501,0.436c-13.692,2.476-26.736,7.433-40.3,10.437
		c-17.646,3.908-35.335,7.509-53.26,9.893c-6.539,0.87-13.056,1.922-19.607,2.675c-5.513,0.634-11.058,1.01-16.596,1.404
		c-9.515,0.677-19.035,1.289-28.555,1.905c-1.559,0.101-3.126,0.117-4.689,0.121c-6.256,0.016-12.513,0.022-18.769,0.012
		c-4.515-0.007-9.002-0.174-13.514-0.677c-4.639-0.517-9.368-0.224-14.061-0.286c-1.015-0.238-2.081-0.34-3.026-0.732
		c-9.143-3.792-18.335-7.479-27.374-11.506c-8.088-3.603-16.079-7.444-23.977-11.447c-20.475-10.378-40.168-22.094-59.088-35.093
		c-1.403-0.964-2.554-2.293-3.82-3.451c0.802-0.309,1.581-0.809,2.406-0.902c12.951-1.471,25.737-3.895,38.476-6.585
		c23.825-5.032,47.167-11.762,69.969-20.301c10.241-3.835,20.467-7.745,30.514-12.054c9.406-4.035,18.567-8.642,27.833-13.002
		c0.47-0.221,0.917-0.493,1.379-0.734c1.991-1.038,2.587-2.666,2.072-4.794c-0.245-1.011-0.421-2.039-0.647-3.055
		c-1.445-6.497-1.753-13.062-0.977-19.655c0.656-5.575,2.492-10.832,5.185-15.725c3.833-6.963,9.22-12.562,15.876-16.905
		c11.649-7.601,24.422-11.315,38.363-11.483c9.895-0.119,19.293,1.987,28.55,5.124c3.288,1.114,6.564,2.27,9.82,3.475
		c2.541,0.941,4.616,0.4,6.731-1.305c11.748-9.474,23.734-18.662,35.322-28.326c8.386-6.993,16.206-14.659,24.411-21.874
		c11.094-9.754,21.377-20.334,31.679-30.886c6.538-6.697,12.688-13.774,18.982-20.707c3.147-3.467,6.268-6.96,9.33-10.502
		c4.536-5.247,9.055-10.511,13.502-15.834c11.017-13.188,21.396-26.875,31.549-40.731c3.487-4.758,6.933-9.553,10.199-14.464
		c7.975-11.991,15.832-24.06,23.739-36.096c1.355-2.063,2.479-4.195,2.163-6.787c3.666,1.097,7.365,2.016,11.229,2.017
		c8.852,0.001,17.705-0.006,26.557,0.01c3.165,0.005,6.291-0.451,9.159-1.705c9.76-4.267,18.961-9.382,26.133-17.565
		c2.112-2.409,3.609-5.091,4.715-8.007c0.518-1.365,1.488-3.106-0.112-4.296c-1.258-0.936-2.696,0-3.911,0.613
		c-6.069,3.06-12.503,5.095-18.945,7.204c-7.413,2.427-15.116,1.767-22.635,2.896c-0.335,0.05-0.702,0.013-1.036-0.064
		c-5.893-1.351-11.782-2.715-17.673-4.075c1.035-0.859,2.265-1.567,3.064-2.607c1.73-2.252,2.649-4.741,0.897-7.475
		c0.971,0.328,2.067,0.47,2.892,1.017c4.42,2.93,9.537,3.467,14.488,3.418c7.179-0.072,14.014-2.16,20.314-5.788
		c4.315-2.486,7.742-5.8,10.241-10.113c5.389-9.299,6.869-19.182,4.312-29.594c-2.548-10.372-7.654-19.274-15.748-26.378
		c-0.763-0.669-1.329-1.561-1.987-2.35c2.203-0.091,3.428-1.382,4.219-3.312c1.711-4.177,3.609-8.282,5.192-12.505
		c5.911-15.765,11.999-31.471,17.496-47.381c5.044-14.599,9.353-29.443,13.375-44.371c4.79-17.781,9.044-35.681,12.504-53.756
		c2.87-14.995,5.448-30.049,7.148-45.239c1.119-9.995,2.15-19.997,3.147-30.005c1.932-19.389,1.972-38.804,1.95-58.238
		c-0.004-3.993-0.04-7.987-0.044-11.98c-0.011-11.113-0.814-22.179-1.924-33.228c-0.728-7.247-1.327-14.509-2.231-21.734
		c-1.077-8.606-2.235-17.211-3.683-25.761c-3.31-19.531-7.771-38.821-13.445-57.793c-3.331-11.135-7.264-22.101-11.247-33.026
		c-1.656-4.543-4.17-8.772-6.253-13.163c-1.338-2.82-2.782-5.616-2.863-8.845C837.166,104.197,837.739,104.454,838.312,104.711z
		 M847.233,883.56c3.277-0.282,6.635-0.201,9.814-0.917c7.429-1.673,12.374-6.802,16.215-12.987
		c2.875-4.63,4.174-9.864,4.796-15.281c0.556-4.834,0.539-9.605,0.177-14.486c-0.534-7.186-2.13-14.102-4.371-20.822
		c-2.686-8.057-5.986-15.919-9.237-23.775c-2.125-5.135-4.845-9.984-8.061-14.551c-4.961-7.045-10.744-13.18-18.518-17.171
		c-8.406-4.316-17.118-6.618-26.633-4.255c-8.045,1.998-14.207,6.522-18.154,13.71c-4.588,8.356-6.837,17.493-6.82,26.983
		c0.012,6.388,0.815,12.793,1.56,19.156c1.063,9.086,4.299,17.501,8.7,25.467c5.049,9.14,10.43,18.096,18.341,25.113
		C824.196,877.864,834.168,884.292,847.233,883.56z M851.647,918.611c1.932,0,4.383,0.202,6.791-0.037
		c8.134-0.807,15.676-3.026,21.392-9.419c1.965-2.198,4.169-4.181,6.19-6.332c3.008-3.201,5.296-6.857,6.723-11.033
		c0.976-2.857,1.175-5.782,0.721-8.737c-0.492-3.208-2.302-5.362-5.455-6.308c-3.418-1.025-6.893-1.096-10.276-0.06
		c-2.978,0.912-5.856,2.157-8.763,3.294c-7.112,2.782-14.204,5.616-21.328,8.369c-2.803,1.083-5.756,1.462-8.715,0.894
		c-8.276-1.589-16.107-4.188-22.654-9.847c-3.935-3.402-8.063-6.584-12.133-9.828c-1.083-0.863-2.228-1.672-3.426-2.366
		c-5.255-3.044-10.81-0.136-11.314,5.887c-0.314,3.756,0.58,7.247,2.417,10.497c3.371,5.967,7.698,11.144,13.214,15.234
		c5.298,3.929,10.752,7.648,16.055,11.57c3.109,2.3,6.482,4.019,10.09,5.334C837.63,918.077,844.294,919.02,851.647,918.611z"/>
	<path fill="#A4A9B3" d="M1148.044,570.464c-1.528,0.298-3.095,0.47-4.579,0.916c-7.815,2.349-15.422,1.958-22.733-1.745
		c-2.145-1.087-4.272-2.352-6.099-3.898c-5.747-4.862-10.408-10.621-13.651-17.47c-4.688-9.901-8.627-20.097-10.634-30.872
		c-1.455-7.812-2.495-15.749-0.989-23.744c0.255-1.352,0.357-2.762,0.307-4.138c-0.163-4.447,0.979-8.631,2.787-12.581
		c2.449-5.349,4.978-10.688,7.906-15.783c4.074-7.09,9.876-12.428,17.578-15.546c2.754-1.115,5.532-2.027,8.537-2.064
		c0.614,1.419,1.396,2.789,1.813,4.263c6.475,22.84,11.372,46.02,14.692,69.523c1.427,10.1,2.891,20.213,3.737,30.37
		C1147.346,555.258,1148.573,562.82,1148.044,570.464z M1126.484,535.569c3.387-0.225,6.316-1.006,8.568-3.561
		c1.867-2.118,2-4.389,0.347-6.606c-0.516-0.692-1.177-1.276-1.727-1.945c-4.338-5.281-8.081-10.828-8.949-17.887
		c-0.272-2.212-1.06-4.382-1.789-6.511c-1.369-3.997-4.18-6.737-7.965-8.484c-4.303-1.986-9.13-1.153-12.474,2.254
		c-3.978,4.052-5.231,9-3.758,14.399c3.241,11.88,11.105,20.179,21.384,26.37C1121.967,534.71,1124.349,534.935,1126.484,535.569z"
		/>
	<path fill="#A4A9B3" d="M1148.943,609.148c-1.813,0.576-3.646,1.098-5.436,1.739c-4.449,1.592-8.976,2.612-13.749,2.55
		c-6.076-0.079-12.127-0.065-18.178-0.996c-6.675-1.026-12.696-3.454-18.256-7.167c-0.86-0.574-1.702-1.228-2.396-1.987
		c-1.886-2.064-2.671-4.433-1.643-7.19c0.355-0.953,0.698-1.91,1.052-2.88c-0.467-0.7-0.758-1.362-1.24-1.825
		c-6.286-6.024-10.297-13.532-13.538-21.42c-4.286-10.431-8.268-20.99-12.218-31.554c-2.075-5.551-2.975-11.42-3.674-17.279
		c-0.821-6.883-1.395-13.796-2.053-20.698c-0.099-1.034-0.141-2.084-0.086-3.12c0.711-13.222,2.612-26.224,7.249-38.715
		c1.281-3.45,3.036-6.622,5.432-9.423c1.433-1.676,3.22-2.6,5.49-2.433c2.297,0.169,4.044,1.464,4.332,3.762
		c0.255,2.038,0.324,4.194-0.051,6.2c-1.247,6.678-1.732,13.388-1.927,20.174c-0.178,6.225-1.109,12.426-1.526,18.649
		c-0.545,8.138-0.833,16.289,0.188,24.42c0.799,6.365,1.533,12.741,2.48,19.084c0.64,4.282,1.392,8.57,2.457,12.763
		c2.819,11.1,5.835,22.151,8.774,33.221c0.223,0.839,0.449,1.676,0.681,2.513c0.939,3.393,2.839,5.247,6.695,5.206
		c3.093-0.033,6.196,0.71,9.292,1.128c8.823,1.189,17.628,0.917,26.483,0.14c5.228-0.458,10.246-1.731,15.346-2.701
		C1148.929,597.253,1148.936,603.201,1148.943,609.148z"/>
	<path fill="#A4A9B3" d="M830.949,101.083c-1.922-0.027-3.514-0.808-4.85-2.129C827.966,99.125,829.735,99.473,830.949,101.083z"/>
	<path fill="#A4A9B3" d="M815.787,94.42c-1.975,0.307-3.373-0.754-4.685-1.973C812.885,92.611,814.559,92.986,815.787,94.42z"/>
	<path fill="#A4A9B3" d="M821.67,96.944c-1.041,0.213-2.061,0.357-2.649-0.821C820.057,95.947,821.028,95.915,821.67,96.944z"/>
	<path fill="#A4A9B3" d="M802.849,88.925c-0.57-0.15-1.14-0.301-1.692-0.448C801.732,88.629,802.291,88.777,802.849,88.925z"/>
	<path fill="#A4A9B3" d="M834.722,102.845l-0.356,0.017c0,0-0.21-0.286-0.2-0.281C834.433,102.475,834.615,102.562,834.722,102.845z
		"/>
	<path fill="#A4A9B3" d="M796.683,86.664c0,0-0.101-0.065-0.098-0.063C796.589,86.603,796.683,86.664,796.683,86.664z"/>
	<path fill="#A4A9B3" d="M824.365,98.042c0,0,0.001,0.009,0.001,0.01C824.367,98.051,824.365,98.042,824.365,98.042z"/>
	<path fill="#A4A9B3" d="M804.522,89.733c0,0-0.005,0.007-0.004,0.007C804.518,89.741,804.522,89.733,804.522,89.733z"/>
	<path fill="#A4A9B3" d="M799.316,87.666c0,0-0.008,0.01-0.008,0.011C799.308,87.677,799.316,87.666,799.316,87.666z"/>
	<path fill="#A4A9B3" d="M807.565,90.84c0,0,0.003-0.008,0.004-0.008C807.569,90.833,807.565,90.84,807.565,90.84z"/>
	<path fill="#A4A9B3" d="M149.042,424.362c-0.457-15.651,2.574-31.256,7.218-46.629c1.253-4.148,2.386-8.355,3.213-12.606
		c3.79-19.475,11.114-37.528,21.302-54.514c5.464-9.108,11.425-17.866,18.496-25.758c11.09-12.378,23.781-22.848,38.88-30.088
		c13.008-6.238,26.814-8.506,41.09-6.884c8.574,0.975,16.395,4.329,23.251,9.766c10.328,8.189,17.503,18.705,22.595,30.685
		c5.013,11.796,7.294,24.209,7.556,37.002c0.05,2.429,0.011,4.86,0.032,7.289c0.174,19.868-4.004,38.912-10.753,57.496
		c-3.204,8.823-6.892,17.432-11.039,25.839c-8.789,17.818-19.466,34.435-32.242,49.67c-4.568,5.447-9.195,10.859-14.06,16.039
		c-7.056,7.515-15.214,13.717-24.238,18.693c-9.435,5.202-19.505,8.472-30.405,7.572c-11.089-0.915-21.342-4.513-30.543-10.945
		c-8.175-5.714-14.122-13.291-18.673-22.018c-7.587-14.548-11.833-29.965-11.684-46.471
		C149.052,427.286,149.042,426.071,149.042,424.362z M311.752,336.503c0-1.908,0.124-3.826-0.022-5.722
		c-0.552-7.158-2.226-14.023-5.599-20.419c-1.072-2.032-2.458-3.783-4.394-5.046c-1.768-1.154-3.21-1.136-4.708,0.339
		c-1.476,1.453-2.876,3.024-4.077,4.708c-5.269,7.388-9.474,15.345-12.329,23.971c-1.744,5.268-3.288,10.602-4.99,15.885
		c-3.189,9.903-6.316,19.811-8.818,29.928c-2.795,11.301-7.129,22.093-12.061,32.648c-4.801,10.274-11.296,19.488-17.662,28.79
		c-3.339,4.879-7.439,9.135-11.182,13.682c-4.929,5.987-10.648,10.909-17.299,14.796c-4.033,2.357-7.697,5.319-12.176,6.965
		c-2.576,0.947-3.223,3.829-1.587,6.014c0.705,0.941,1.664,1.88,2.718,2.334c2.531,1.091,5.13,2.428,7.802,2.706
		c5.826,0.607,11.622,1.482,17.606,0.514c4.864-0.787,9.482-1.953,13.936-3.966c6.673-3.016,12.816-6.918,18.827-11.062
		c10.124-6.98,18.747-15.404,25.165-25.951c2.703-4.443,5.542-8.836,7.829-13.492c2.669-5.435,5.315-10.977,7.06-16.748
		c3.661-12.114,6.902-24.363,9.963-36.645c1.589-6.376,2.646-12.908,3.546-19.424C310.435,353.077,312.06,344.879,311.752,336.503z"
		/>
	<path fill="#A4A9B3" d="M659.216,250.749c-10.444,0.243-20.805-0.81-31.18-1.823c-25.786-2.516-51.267-7.054-76.797-11.279
		c-7.369-1.219-14.753-2.347-22.125-3.55c-16.615-2.712-32.364-7.986-47.11-16.129c-7.906-4.366-14.489-10.085-18.629-18.35
		c-4.306-8.597-4.758-17.276-1.122-26.165c0.525-1.284,1.069-2.578,1.773-3.767c2.226-3.757,3.784-7.775,5.219-11.891
		c3.392-9.728,9.971-16.962,18.46-22.556c7.466-4.919,15.722-8.087,24.198-10.784c12.621-4.015,25.527-6.813,38.609-8.686
		c8.583-1.229,17.213-2.16,25.893-2.721c6.942-0.449,13.874-0.998,20.813-0.711c9.361,0.387,18.711,1.072,28.06,1.723
		c9.202,0.641,18.265,2.185,27.267,4.206c10.386,2.332,20.381,5.789,30.158,9.926c11.276,4.771,21.629,11.086,31.102,18.825
		c7.141,5.834,13.728,12.255,19.503,19.445c4.045,5.036,7.154,10.681,9.564,16.671c1.76,4.376,2.848,8.928,2.808,13.695
		c-0.016,1.91,0.009,3.82,0.03,5.73c0.135,12.716-5.251,22.84-14.882,30.762c-6.649,5.469-14.308,9.166-22.64,11.406
		c-9.415,2.532-18.994,4.058-28.682,5.183C672.733,250.697,665.982,250.623,659.216,250.749z M497.708,179.896
		c-6.887-0.016-10.171,2.015-11.995,6.816c-0.901,2.374-0.895,4.755-0.128,7.144c1.093,3.401,2.961,6.369,5.905,8.365
		c2.71,1.837,5.568,3.664,8.627,4.738c8.679,3.046,17.461,5.816,26.263,8.492c18.865,5.735,38.101,9.286,57.893,9.345
		c1.04,0.003,2.081,0.11,3.12,0.175c4.153,0.26,8.304,0.686,12.46,0.748c7.99,0.119,15.987,0.197,23.972-0.022
		c6.41-0.176,12.833-0.588,19.204-1.307c7.985-0.9,15.916-1.049,23.875,0.09c5.155,0.738,10.318,1.429,15.492,2.004
		c1.703,0.19,3.478,0.118,5.179-0.12c6.738-0.943,13.234-2.929,19.636-5.119c4.942-1.691,9.515-4.148,13.116-8.186
		c2.334-2.618,3.442-5.475,3.471-8.961c0.032-3.779-1.698-6.257-4.983-7.806c-2.549-1.202-5.249-1.801-8.076-1.781
		c-3.648,0.026-7.296,0.029-10.944,0.097c-2.808,0.052-5.529-0.308-8.203-1.202c-1.809-0.605-3.655-1.166-5.53-1.492
		c-7.18-1.249-14.352-2.603-21.578-3.511c-5.495-0.691-11.064-0.963-16.607-1.072c-9.725-0.191-19.456-0.107-29.185-0.155
		c-1.736-0.009-3.51,0.115-5.201-0.189c-5.864-1.055-11.773-0.758-17.672-0.812c-10.057-0.092-20.114,0.624-30.171-0.011
		c-1.905-0.12-3.814-0.196-5.717-0.348c-6.915-0.55-13.82-1.253-20.744-1.649c-5.887-0.336-11.776-0.349-17.674-0.872
		c-6.763-0.599-13.464-1.293-20.072-2.865C499.937,180.071,498.362,179.986,497.708,179.896z"/>
	<path fill="#A4A9B3" d="M295.468,887.424c-15.171-0.021-26.152-1.403-37.034-3.932c-9.153-2.127-18.146-4.73-27.04-7.739
		c-12.402-4.197-24.141-9.817-35.281-16.631c-15.298-9.357-27.328-21.951-35.578-37.882c-4.07-7.86-7.226-16.161-9.134-24.873
		c-2.331-10.639-1.044-21.052,1.872-31.367c0.802-2.839,1.769-5.632,2.548-8.477c4.017-14.657,13.757-24.18,27.285-30.202
		c7.711-3.432,15.963-4.928,24.315-5.309c4.636-0.211,9.37,0.453,13.981,1.206c12.203,1.994,24.032,5.449,35.695,9.535
		c13.135,4.602,25.953,9.919,38.371,16.214c13.571,6.88,25.814,15.551,36.969,25.929c4.845,4.508,9.41,9.233,13.802,14.131
		c10.548,11.761,17.822,25.309,20.328,40.971c1.672,10.449,0.859,20.804-4.739,30.275c-3.245,5.49-7.592,9.892-13.004,13.219
		c-3.408,2.095-7.018,3.778-10.831,5.064c-5.263,1.775-10.419,3.871-15.698,5.594C312.288,886.418,301.949,887.49,295.468,887.424z
		 M295.608,873.074c0.008-0.093,0.015-0.185,0.022-0.278c2.085,0,4.178,0.113,6.254-0.021c6.278-0.407,12.424-1.367,18.055-4.473
		c2.17-1.197,4.077-2.661,5.559-4.628c2.022-2.682,2.122-5.06-0.015-7.584c-1.439-1.701-3.201-3.17-4.975-4.541
		c-7.152-5.525-15.621-8.21-24.05-10.973c-3.629-1.189-7.257-2.387-10.847-3.686c-5.061-1.832-10.057-3.843-15.133-5.63
		c-7.698-2.711-15.523-5.081-23.135-8.008c-5.003-1.924-9.908-4.267-14.526-6.983c-5.077-2.986-9.782-6.605-14.635-9.968
		c-4.222-2.926-7.492-6.715-9.895-11.23c-3.432-6.448-6.487-13.047-8.38-20.153c-0.664-2.493-1.555-5.032-2.888-7.218
		c-2.85-4.674-6.715-7.918-12.733-7.436c-6.779,0.543-11.385,4.248-13.921,10.206c-2.042,4.795-3.055,9.957-1.908,15.28
		c0.255,1.183,0.285,2.412,0.461,3.613c1.563,10.634,4.784,20.599,11.601,29.163c2.593,3.257,4.971,6.683,7.513,9.982
		c4.78,6.201,9.853,12.105,16.296,16.716c7.243,5.183,15.014,9.384,23.173,12.897c9.748,4.198,19.84,7.454,29.945,10.648
		c6.318,1.997,12.782,3.261,19.477,3.052c2.424-0.076,4.863,0.086,7.286,0.262C288.013,872.357,291.809,872.737,295.608,873.074z"/>
	<path fill="#81889B" d="M494.454,430.61c12.754,0.081,24.259,4.252,35.236,10.186c15.73,8.504,29.398,19.683,41.541,32.718
		c5.444,5.843,10.244,12.252,14.509,19.017c7.726,12.257,11.768,25.815,13.868,40.027c2.139,14.474-0.144,28.359-5.862,41.716
		c-3.909,9.132-9.622,16.828-18.319,22.049c-7.7,4.623-16.083,6.389-24.943,5.941c-6.091-0.308-12.055-1.537-17.85-3.459
		c-14.359-4.762-27.436-11.704-38.187-22.569c-5.249-5.304-10.706-10.42-15.7-15.954c-9.372-10.386-15.367-22.655-18.735-36.157
		c-1.561-6.256-3.678-12.239-6.172-18.182c-6.103-14.539-7.667-29.496-2.561-44.708c5.294-15.772,16.285-25.48,32.349-29.397
		C487.129,430.985,490.84,430.997,494.454,430.61z M550.961,579.556c-2.118-2.368-4.348-4.78-6.485-7.27
		c-3.522-4.103-6.839-8.329-7.968-13.83c-0.206-1.005-0.724-1.95-1.133-2.908c-2.597-6.088-4.502-12.392-6.02-18.828
		c-1.275-5.407-2.636-10.795-4.026-16.174c-0.564-2.18-1.248-4.334-1.977-6.466c-3.275-9.574-9.231-17.456-16.037-24.718
		c-4.629-4.94-9.513-9.648-14.404-14.332c-2.732-2.617-4.761-5.467-5.086-9.361c-0.1-1.195-0.492-2.383-0.879-3.532
		c-1.563-4.644-6.139-7.986-11.021-8.164c-4.215-0.154-7.85,1.328-11.027,3.96c-7.347,6.084-9.572,14.197-8.864,23.313
		c0.56,7.216,3.969,13.251,8.602,18.598c3.861,4.456,8.038,8.638,11.915,13.081c3.073,3.522,6.109,7.111,8.787,10.932
		c3.184,4.544,6.04,9.324,8.9,14.086c2.411,4.015,4.695,8.111,6.906,12.24c2.131,3.979,3.985,8.107,6.157,12.063
		c3.851,7.012,9.04,12.703,16.552,15.966c1.273,0.553,2.487,1.243,3.748,1.826c3.959,1.832,8.056,3.204,12.397,3.84
		c3.019,0.443,5.895-0.072,8.691-1.106C550.037,582.272,551.116,581.389,550.961,579.556z"/>
	<path fill="#A4A9B3" d="M677.156,303.998c-10.687,0.328-21.112-1.715-31.541-3.541c-15.914-2.787-31.761-5.969-47.697-8.613
		c-13.191-2.188-26.484-3.753-39.707-5.758c-11.676-1.77-23.375-3.428-34.786-6.648c-10.244-2.891-20.133-6.64-29.473-11.742
		c-8.535-4.663-17.055-9.363-25.458-14.258c-10.309-6.005-18.974-14.044-26.906-22.846c-2.414-2.68-4.29-5.9-6.102-9.05
		c-1.988-3.457-3.741-7.065-5.36-10.712c-0.977-2.202-1.631-4.573-2.198-6.924c-0.586-2.428-0.18-4.848,0.842-7.125
		c2.563-5.711,8.45-7.673,13.88-4.598c2.796,1.583,4.942,3.829,6.221,6.801c0.961,2.232,1.817,4.51,2.702,6.774
		c3.136,8.031,7.916,15.054,13.512,21.519c4.244,4.903,9.422,8.755,15.139,11.789c11.212,5.95,22.626,11.498,34.671,15.585
		c11.695,3.968,23.589,7.075,35.869,8.854c9.787,1.418,19.427,3.817,29.165,5.607c10.76,1.978,21.538,3.882,32.345,5.584
		c8.748,1.378,17.548,2.427,26.329,3.589c9.348,1.238,18.731,0.971,28.096,0.378c5.365-0.339,10.717-1,16.049-1.711
		c4.297-0.572,8.605-1.225,12.82-2.218c6.93-1.634,13.93-3.199,20.392-6.274c5.639-2.683,11.205-5.574,16.557-8.784
		c3.883-2.329,6.976-5.764,9.621-9.439c5.475-7.607,10.813-15.313,16.142-23.023c7.998-11.571,15.678-23.372,23.997-34.707
		c5.446-7.421,12.033-13.936,19.876-18.975c4.27-2.744,5.72-2.283,8.129,2.283c1.977,3.747,2.97,7.703,3.173,11.967
		c0.462,9.706-1.07,18.974-4.831,27.975c-3.619,8.66-7.21,17.348-11.949,25.438c-6.581,11.234-13.595,22.229-22.284,32.005
		c-2.174,2.446-4.814,4.498-7.346,6.604c-6.567,5.463-13.729,10.042-21.267,14.049c-5.432,2.888-11.205,4.786-17.279,5.565
		c-7.575,0.972-15.183,1.685-22.782,2.456c-6.044,0.612-12.092,1.205-18.148,1.684C684.108,303.831,680.627,303.859,677.156,303.998
		z"/>
	<path fill="#A4A9B3" d="M194.57,547.849c-3.643-0.382-8.697-0.602-13.631-1.49c-12.771-2.297-22.928-8.657-29.708-19.975
		c-2.304-3.847-3.405-7.946-3.13-12.418c0.425-6.929,5.812-10.686,12.342-8.298c2.56,0.936,4.845,2.646,7.205,4.085
		c0.727,0.443,1.324,1.123,1.92,1.752c6.734,7.09,15.081,10.17,24.761,10.297c9.718,0.128,19.445-0.211,29.15,0.839
		c3.955,0.428,7.986,0.111,11.979,0.256c12.267,0.445,23.169-3.837,33.606-9.671c1.49-0.833,2.844-2.018,4.033-3.259
		c3.119-3.256,6.052-6.69,9.174-9.943c2.759-2.876,5.459-5.873,8.562-8.343c6.84-5.446,11.813-12.164,15.033-20.239
		c0.128-0.322,0.288-0.635,0.393-0.964c4.669-14.714,10.642-29.009,14.233-44.066c1.736-7.281,3.879-14.381,7.2-21.143
		c4.897-9.968,9.437-20.11,14.294-30.097c2.739-5.632,5.095-11.398,7.294-17.255c2.011-5.354,4.232-10.642,6.622-15.839
		c2.472-5.374,4.776-10.782,6.346-16.5c1.975-7.194,4.057-14.358,6.116-21.529c1.3-4.527,3.245-8.764,5.56-12.873
		c1.884-3.343,5.305-3.981,8.091-0.833c1.356,1.533,2.679,3.274,3.399,5.157c2.505,6.556,3.229,13.355,2.982,20.415
		c-0.34,9.736-1.872,19.328-2.713,28.999c-0.633,7.277-1.74,14.486-4.633,21.281c-1.224,2.874-2.546,5.706-3.845,8.548
		c-2.813,6.157-5.615,12.319-8.468,18.457c-3.445,7.411-7.48,14.489-11.937,21.345c-2.267,3.486-4.159,7.215-6.257,10.813
		c-2.709,4.646-5.346,9.339-8.206,13.892c-5.817,9.26-11.878,18.368-17.621,27.673c-5.322,8.623-9.004,17.987-11.7,27.745
		c-0.693,2.509-1.506,4.985-2.22,7.488c-2.779,9.746-8.72,17.348-16.576,23.407c-9.584,7.392-20.332,12.62-32.064,15.741
		c-10.791,2.87-21.716,4.708-32.941,4.332c-8.185-0.274-16.279,0.954-24.408,1.597C201.868,547.466,198.919,547.591,194.57,547.849z
		"/>
	<path fill="#A4A9B3" d="M572.353,650.162c-12.864-0.082-25.201-2.981-37.481-6.203c-6.719-1.763-13.423-3.586-20.117-5.442
		c-11.933-3.309-23.545-7.5-33.973-14.281c-10.319-6.709-19.012-15.047-24.549-26.33c-2.615-5.33-2.825-11.027-3.323-16.716
		c-0.044-0.504,0.095-1.036,0.217-1.539c0.765-3.142,3.198-4.25,5.89-2.515c1.441,0.929,2.679,2.191,3.946,3.371
		c4.698,4.372,9.323,8.824,14.065,13.147c5.722,5.217,12.272,9.043,19.691,11.37c5.303,1.663,10.579,3.412,15.858,5.153
		c9.447,3.116,19.285,4.425,29.008,6.249c5.117,0.96,10.282,1.661,15.413,2.552c15.653,2.718,29.669-1.595,42.377-10.406
		c9.732-6.748,18.02-15.163,25.915-24.002c6.149-6.884,11.478-14.364,17.121-21.622c6.281-8.08,12.655-16.093,19.163-23.992
		c4.257-5.166,9.684-8.913,15.801-11.629c1.104-0.49,2.279-0.856,3.456-1.138c1.648-0.395,3.126,0.088,4.255,1.339
		c0.689,0.764,1.36,1.607,1.79,2.531c2.694,5.789,3.894,11.83,2.961,18.226c-0.732,5.019-2.134,9.865-4.163,14.475
		c-3.145,7.145-6.557,14.174-9.887,21.237c-0.516,1.095-1.128,2.161-1.818,3.156c-6.833,9.849-13.984,19.468-22.563,27.881
		c-3.453,3.387-7.356,6.35-11.24,9.259c-8.911,6.673-18.288,12.631-28.406,17.332c-7.118,3.307-14.529,5.833-22.322,6.905
		C583.774,649.308,578.05,649.634,572.353,650.162z"/>
	<path fill="#A4A9B3" d="M265.683,928.103c-4.169,0-8.339,0.059-12.506-0.01c-16.545-0.276-32.876-2.471-49.079-5.669
		c-6.235-1.23-12.036-3.52-16.351-8.47c-1.236-1.417-2.354-3.038-3.113-4.749c-2.201-4.961-0.46-9.862,4.321-12.402
		c2.82-1.498,5.851-2.291,9.055-1.48c4.038,1.022,8.065,2.097,12.066,3.256c4.835,1.401,9.592,3.104,14.472,4.311
		c3.172,0.785,6.504,1.268,9.767,1.282c15.111,0.068,30.226,0.078,45.333-0.212c6.578-0.126,13.146-0.958,19.708-1.581
		c7.947-0.754,15.866-1.867,23.826-2.394c14.658-0.97,27.689-6.111,39.57-14.523c3.768-2.668,6.658-6.098,8.772-10.15
		c2.729-5.232,5.369-10.512,7.94-15.824c1.753-3.622,2.473-7.554,3.227-11.488c1.436-7.493,2.815-15.013,4.695-22.401
		c1.552-6.099,4.473-11.534,9.095-16.113c4.35-4.31,12.831-4.527,17.435,0.064c4.562,4.548,6.901,9.964,7.894,16.051
		c0.752,4.609,1.287,9.299,1.378,13.963c0.296,15.223-3.164,29.59-10.474,42.997c-1.839,3.373-3.945,6.54-6.728,9.215
		c-3.377,3.247-6.559,6.743-10.205,9.657c-10.335,8.258-22.072,13.654-35.014,16.527c-6.8,1.51-13.612,2.532-20.581,2.972
		c-5.868,0.37-11.701,1.521-17.51,2.551c-9.405,1.667-18.819,3.003-28.368,3.76C284.757,927.997,275.221,927.822,265.683,928.103z"
		/>
	<path fill="#A4A9B3" d="M513.81,878.121c9.601,0.064,17.719,2.238,25.218,6.672c0.448,0.265,0.91,0.515,1.326,0.824
		c2.101,1.562,2.083,3.468-0.096,5.077c-0.833,0.615-1.743,1.151-2.679,1.595c-7.212,3.423-14.382,6.942-21.681,10.17
		c-4.624,2.045-9.109,4.081-12.906,7.619c-3.155,2.94-6.971,5.159-10.328,7.9c-7.12,5.813-14.095,11.802-21.2,17.635
		c-5.093,4.181-10.318,8.201-15.448,12.338c-3.778,3.046-7.579,6.072-11.221,9.276c-3.576,3.146-6.062,7.091-7.809,11.536
		c-0.624,1.587-1.432,3.188-2.511,4.489c-1.641,1.979-4.218,2.005-5.893,0.026c-1.08-1.276-2.035-2.901-2.367-4.51
		c-0.483-2.343-0.667-4.843-0.426-7.221c0.667-6.57,1.902-13.04,4.43-19.205c3.223-7.861,5.702-16.024,9.79-23.533
		c6.836-12.559,15.681-23.28,27.999-30.851c9.059-5.568,18.825-8.748,29.558-8.821c3.808-0.026,7.613-0.47,11.42-0.717
		C510.891,878.295,512.797,878.183,513.81,878.121z"/>
	<path fill="#81889B" d="M813.249,604.277c0.658,0.789,1.224,1.681,1.987,2.35c8.094,7.104,13.201,16.006,15.748,26.378
		c2.557,10.411,1.077,20.295-4.312,29.594c-2.5,4.313-5.926,7.628-10.241,10.113c-6.3,3.629-13.136,5.717-20.314,5.788
		c-4.951,0.049-10.068-0.488-14.488-3.418c-0.826-0.547-1.921-0.689-2.892-1.017c-0.551-0.229-1.101-0.458-1.652-0.686
		c-0.817-0.503-1.633-1.006-2.449-1.51c-15.282-8.791-26.657-34.433-14.463-55.808c4.577-8.023,10.93-14.309,19.512-18.024
		c10.566-4.573,20.591-3.699,29.866,3.398C810.786,602.379,812.017,603.329,813.249,604.277z M780.756,618.524
		c-4.72-0.427-8.184,1.795-10.52,5.499c-2.363,3.746-3.284,7.972-2.135,12.435c1.103,4.285,3.284,8.003,6.201,11.266
		c3.237,3.62,6.793,6.931,10.831,9.649c3.457,2.327,7.161,4.223,11.199,5.357c2.904,0.816,5.848,1.016,8.615-0.416
		c3.366-1.741,4.642-4.129,3.166-7.6c-1.765-4.149-3.498-8.279-6.071-12.016c-3.14-4.561-6.194-9.162-8.318-14.335
		c-0.775-1.887-2.142-3.531-3.24-5.286C788.213,619.448,784.85,618.136,780.756,618.524z"/>
	<path fill="#A4A9B3" d="M740.671,467.619c-6.192,0.356-13.156-1.219-19.931-3.452c-7.584-2.499-15.032-5.409-22.522-8.188
		c-5.022-1.863-8.99-5.209-12.435-9.203c-3.953-4.584-4.688-10.007-3.476-15.678c1.008-4.72,5.273-6.663,9.69-4.57
		c1.701,0.806,3.292,1.967,4.712,3.217c3.308,2.914,7.031,5.065,11.119,6.649c1.944,0.753,3.917,1.459,5.784,2.376
		c6.58,3.232,13.546,4.137,20.784,3.823c2.664-0.115,5.157-0.585,7.499-1.863c4.879-2.662,9.748-5.341,14.658-7.945
		c2.448-1.298,4.925-2.572,7.482-3.63c3.689-1.526,7.472-2.823,11.2-4.257c3.161-1.216,6.441-1.435,9.753-1.126
		c5.104,0.477,8.001,4.563,6.844,9.555c-0.718,3.093-2.117,5.896-4.07,8.373c-2.685,3.405-5.262,6.939-8.29,10.021
		C769.137,462.241,756.674,467.939,740.671,467.619z"/>
	<path fill="#A4A9B3" d="M734.372,366.603c18.3,0.353,30.377,12.617,33.123,27.968c1.431,8,0.628,15.636-2.781,22.85
		c-5.011,10.606-13.499,17.023-25.156,18.841c-14.078,2.196-25.577-2.608-34.645-13.425c-1.893-2.258-3.538-4.721-5.327-7.067
		c-1.934-2.537-3.055-5.448-3.813-8.488c-2.227-8.927,0.173-16.961,5.618-23.957c7.623-9.795,17.956-15.082,30.259-16.545
		C732.681,366.658,733.726,366.644,734.372,366.603z M706.951,398.32c0.072,8.483,3.641,14.744,10.239,18.749
		c5.358,3.252,11.537,4.797,17.95,4.467c4.517-0.232,8.159-2.242,11.488-5.382c4.41-4.159,4.015-13.159,0.303-16.614
		c-3.711-3.455-6.526-7.582-9.235-11.857c-1.934-3.052-4.44-6.069-8.088-7.062c-6.141-1.672-12.086-1.24-16.93,3.613
		C708.654,388.264,706.996,393.243,706.951,398.32z"/>
	<path fill="#81889B" d="M774.776,684.147c5.89,1.361,11.78,2.724,17.673,4.075c0.334,0.077,0.701,0.114,1.036,0.064
		c7.518-1.129,15.222-0.469,22.635-2.896c6.442-2.109,12.876-4.143,18.945-7.204c1.215-0.613,2.653-1.549,3.911-0.613
		c1.599,1.19,0.63,2.931,0.112,4.296c-1.107,2.916-2.604,5.598-4.715,8.007c-7.172,8.182-16.373,13.297-26.133,17.565
		c-2.868,1.254-5.994,1.71-9.159,1.705c-8.852-0.015-17.705-0.008-26.557-0.01c-3.864-0.001-7.562-0.92-11.229-2.017
		c-4.818-1.393-9.546-3.072-13.703-5.908c-2.393-1.633-4.618-3.596-6.619-5.696c-2.037-2.139-3.344-4.816-3.705-7.815
		c-0.409-3.397,0.026-6.555,3.01-8.818c2.444-0.564,4.888-1.129,7.333-1.693c0.648,0.154,1.297,0.308,1.945,0.46
		c0.852,0.326,1.705,0.655,2.558,0.983c0.893,0.307,1.786,0.613,2.679,0.918c1.45,1.583,3.174,2.345,5.342,1.774
		c0.655,0.14,1.309,0.279,1.963,0.417c1.347,1.269,2.928,1.417,4.634,0.958c0.954,0.138,1.909,0.277,2.863,0.415
		c0.803,0.167,1.606,0.335,2.409,0.502C772.926,683.794,773.851,683.97,774.776,684.147z"/>
	<path fill="#A4A9B3" d="M747.609,677.19c-2.444,0.565-4.888,1.129-7.333,1.693C742.274,676.386,744.687,675.687,747.609,677.19z"/>
	<path fill="#A4A9B3" d="M760.132,681.325c-2.168,0.57-3.892-0.191-5.342-1.774C756.79,679.485,758.575,680.061,760.132,681.325z"/>
	<path fill="#A4A9B3" d="M766.73,682.7c-1.707,0.459-3.287,0.31-4.634-0.958C763.813,681.228,765.375,681.462,766.73,682.7z"/>
	<path fill="#A4A9B3" d="M774.636,671.869c0.816,0.504,1.633,1.008,2.449,1.51C775.96,673.376,775.163,672.841,774.636,671.869z"/>
	<path fill="#A4A9B3" d="M752.111,678.633c-0.853-0.328-1.705-0.657-2.558-0.983C750.622,677.418,751.451,677.806,752.111,678.633z"
		/>
	<path fill="#A4A9B3" d="M772.001,683.617c-0.803-0.167-1.606-0.335-2.409-0.502C770.543,682.575,771.319,682.873,772.001,683.617z"
		/>
	<path fill="#A4A9B3" d="M866.175,1007.417c0.686,0.182,1.171,0.375,1.671,0.433c3.407,0.395,4.508,1.443,3.527,4.57
		c-1.605,5.116-3.412,10.217-5.697,15.06c-4.227,8.957-9.462,17.363-15.365,25.326c-5.992,8.084-11.917,16.224-18.155,24.116
		c-8.684,10.987-19.355,19.232-32.967,23.518c-7.821,2.463-15.707,4.46-23.821,5.446c-6.77,0.823-13.554,0.378-20.173-1.263
		c-4.77-1.183-9.007-3.465-12.588-6.998c-5.474-5.403-10.325-11.177-13.644-18.222c-2.63-5.582-4.22-11.416-4.902-17.456
		c-0.534-4.723,0.633-9.344,2.723-13.612c1.433-2.926,3.814-4.948,7.146-5.525c3.209-0.556,5.492,0.728,6.482,3.809
		c0.524,1.63,0.675,3.387,0.922,5.098c0.347,2.399,0.652,4.804,0.933,7.212c0.785,6.733,4.437,11.952,8.938,16.665
		c2.334,2.443,5.267,3.973,8.682,4.332c0.779,0.082,1.599-0.238,2.851-0.448c-0.504-1.108-0.729-1.92-1.19-2.565
		c-4.915-6.88-6.323-14.411-4.866-22.727c1.459-8.333,3.956-16.18,9.103-22.99c4.308-5.699,9.02-10.963,15.559-14.314
		c1.796-0.921,3.412-2.395,4.775-3.916c2.892-3.223,5.404-6.794,8.373-9.938c2.607-2.762,5.457-5.359,8.494-7.638
		c6.416-4.815,13.205-9.016,21.33-10.363c1.876-0.311,3.801-0.7,5.675-0.584c5.71,0.356,11.446,0.714,16.982,2.314
		c7.986,2.308,13.702,7.252,16.916,14.973C864.683,1003.636,865.431,1005.563,866.175,1007.417z M818.58,1015.105
		c0.754-2.095,1.209-3.177,1.514-4.3c0.118-0.436,0.042-1.275-0.2-1.389c-0.546-0.255-1.411-0.445-1.861-0.179
		c-1.935,1.142-3.943,2.261-5.606,3.745c-8.019,7.153-16.008,14.343-23.848,21.69c-2.77,2.595-5.039,5.717-7.62,8.522
		c-9.472,10.291-11.196,22.279-7.852,35.393c0.745,2.922,2.204,5.495,4.295,7.632c5.353,5.47,14.923,6.491,20.427-2.25
		c0.551-0.875,0.937-1.857,1.378-2.799c5.655-12.079,10.579-24.532,18.32-35.541c0.896-1.274,1.674-2.638,2.431-4.002
		c3.71-6.681,7.347-13.399,9.066-20.938c0.307-1.346,0.59-2.717,0.669-4.089c0.086-1.504-1.009-2.743-2.492-2.813
		c-1.19-0.056-2.404,0.152-3.593,0.335C822.28,1014.325,820.97,1014.631,818.58,1015.105z"/>
	<path fill="#A4A9B3" d="M1045.886,711.341c-0.027-10.42,2.286-20.281,6.989-29.595c2.898-5.74,5.877-11.422,9.914-16.473
		c7.398-9.257,17.058-12.768,28.644-10.984c5.969,0.919,10.499,4.382,14.139,9.051c1.821,2.336,3.203,4.909,4.263,7.709
		c4.242,11.199,3.247,22.157-1.413,32.924c-3.043,7.029-6.798,13.7-11.431,19.806c-4.764,6.28-10.488,11.603-17.468,15.368
		c-4.321,2.331-8.971,3.628-13.995,3.469c-7.933-0.252-13.903-4.339-16.714-11.83c-2.032-5.416-2.82-11.077-2.926-16.841
		C1045.873,713.077,1045.886,712.209,1045.886,711.341z M1087.629,690.347c-0.083-1.429-0.077-2.128-0.173-2.812
		c-0.349-2.482-2.294-3.491-4.589-2.286c-1.061,0.557-2.063,1.3-2.944,2.116c-6.412,5.94-11.5,12.97-16.377,20.156
		c-0.87,1.281-1.458,2.763-2.092,4.189c-0.349,0.785-0.622,1.632-0.76,2.479c-0.734,4.497,2.173,7.108,6.489,5.765
		c3.948-1.229,7.064-3.713,9.502-6.987c3.539-4.752,6.554-9.843,8.807-15.32C1086.538,695.106,1087.058,692.349,1087.629,690.347z"
		/>
	<path fill="#A4A9B3" d="M903.013,471.893c0-6.424-0.013-12.848,0.003-19.272c0.018-7.008-0.848-13.824-3.764-20.311
		c-1.134-2.522-1.967-5.207-2.652-7.891c-0.418-1.637-0.612-3.461-0.355-5.115c0.826-5.301,5.096-8.464,10.444-7.963
		c3.25,0.305,5.907,1.879,8.305,3.994c5.984,5.28,9.291,12.047,10.818,19.734c0.845,4.254,1.363,8.556,1.298,12.928
		c-0.105,7.117-0.002,14.237-0.106,21.354c-0.041,2.767-0.426,5.528-0.618,8.294c-0.132,1.902-0.43,3.83-0.257,5.71
		c0.863,9.34,2.041,18.588,5.635,27.42c3,7.371,7.21,13.843,12.741,19.473c3.917,3.987,7.471,8.22,10.216,13.099
		c2.543,4.518,1.229,7.982-3.748,9.733c-3.952,1.39-7.879,1.032-11.723-0.469c-4.561-1.781-8.633-4.377-12.615-7.224
		c-8.159-5.833-14.065-13.375-17.673-22.655c-2.33-5.993-3.804-12.247-4.837-18.613c-0.978-6.03-1.139-12.084-1.112-18.164
		c0.021-4.688,0.004-9.376,0.004-14.063C903.018,471.893,903.016,471.893,903.013,471.893z"/>
	<path fill="#A4A9B3" d="M1017.852,715.749c-0.518-9.537,2.008-18.568,4.773-27.538c0.439-1.425,1.362-2.8,2.365-3.928
		c1.131-1.271,3.214-0.646,3.761,0.995c0.271,0.811,0.448,1.684,0.485,2.537c0.318,7.325,1.724,14.458,3.623,21.52
		c1.667,6.199,3.162,12.445,4.878,18.63c0.647,2.331,1.695,4.551,2.573,6.817c2.016,5.209,5.578,9.164,10.155,12.227
		c5.442,3.643,11.334,5.92,18.013,6.073c2.753,0.063,5.496,0.736,8.235,1.181c0.677,0.11,1.346,0.361,1.978,0.64
		c3.796,1.673,4.245,4.118,1.419,7.259c-2.273,2.527-5.056,4.309-8.271,5.226c-5.176,1.476-10.383,2.9-15.652,3.98
		c-5.581,1.144-10.667-0.847-15.426-3.522c-4.299-2.416-7.653-5.959-10.604-9.875c-6.101-8.094-9.352-17.371-11.222-27.203
		c-0.454-2.385-0.875-4.793-1.042-7.21C1017.713,720.966,1017.852,718.352,1017.852,715.749z"/>
	<path fill="#A4A9B3" d="M1034.458,866.124c0.547,4.705-1.852,8.659-5.107,12.219c-5.135,5.617-11.749,8.506-19.059,9.978
		c-4.789,0.964-9.577,1.41-14.472,0.34c-2.159-0.472-4.501-0.266-6.748-0.143c-4.515,0.248-7.13-2.255-8.256-6.373
		c-0.564-2.062-0.483-4.104-0.067-6.182c1.159-5.789,3.959-10.767,7.871-15.052c8.435-9.24,19.181-12.806,31.455-11.962
		C1028.086,849.498,1034.881,856.312,1034.458,866.124z M1001.007,865.682c-3.445,0.018-6.849,3.116-6.985,6.358
		c-0.14,3.348,3.542,6.788,7.169,6.696c3.4-0.086,6.969-3.306,7.061-6.371C1008.35,869.08,1004.646,865.663,1001.007,865.682z"/>
	<path fill="#A4A9B3" d="M996.85,301.775c-0.209-4.598,1.112-8.587,4.238-11.976c4.806-5.21,13.153-6.669,18.925-2.498
		c10.156,7.339,16.725,17.086,17.423,29.969c0.3,5.528-1.103,10.573-5.407,14.633c-7.998,7.546-19.257,6.654-25.496-1.968
		C1000.543,321.657,997.564,312.011,996.85,301.775z M1023.955,302.282c-0.442-2.119-0.716-4.927-1.64-7.503
		c-1.317-3.671-4.034-6.044-8.108-6.329c-4.156-0.291-6.894,1.872-8.624,5.454c-0.521,1.079-0.985,2.249-1.155,3.424
		c-0.552,3.827-0.305,7.599,1.211,11.224c1.251,2.992,3.306,5.299,6.119,6.839c3.744,2.049,7.143,1.073,9.338-2.561
		C1022.934,309.787,1023.556,306.391,1023.955,302.282z"/>
	<path fill="#A4A9B3" d="M972.261,916.249c-7.544-0.488-14.539-2.395-20.779-6.475c-5.586-3.653-10.427-13.646-7.269-22.793
		c0.764-2.213,2.155-3.964,3.956-5.377c3.432-2.692,7.283-1.602,8.711,2.47c0.688,1.961,1.138,4.005,1.806,5.974
		c1.227,3.615,3.525,6.218,7.038,7.933c6.134,2.993,12.464,5.257,19.24,6.223c1.372,0.196,2.743,0.464,4.078,0.833
		c2.469,0.683,2.956,2.318,1.034,4.16c-1.605,1.538-3.446,2.911-5.379,4.011C980.83,915.408,976.418,915.642,972.261,916.249z"/>
	<path fill="#81889B" d="M847.233,883.56c-13.065,0.732-23.037-5.697-32.191-13.817c-7.91-7.017-13.292-15.972-18.341-25.113
		c-4.401-7.967-7.636-16.381-8.7-25.467c-0.744-6.363-1.548-12.769-1.56-19.156c-0.018-9.49,2.232-18.626,6.82-26.983
		c3.947-7.188,10.109-11.713,18.154-13.71c9.515-2.363,18.227-0.06,26.633,4.255c7.773,3.991,13.556,10.126,18.518,17.171
		c3.216,4.568,5.937,9.417,8.061,14.551c3.251,7.856,6.551,15.718,9.237,23.775c2.24,6.72,3.837,13.636,4.371,20.822
		c0.363,4.881,0.379,9.652-0.177,14.486c-0.623,5.417-1.921,10.651-4.796,15.281c-3.841,6.185-8.786,11.314-16.215,12.987
		C853.868,883.359,850.51,883.279,847.233,883.56z M799.493,818.385c0.428,2.728,0.697,5.492,1.317,8.175
		c1.216,5.265,3.268,10.262,5.864,14.975c4.608,8.363,9.903,16.3,15.757,23.849c3.254,4.196,7.608,7.064,12.216,9.543
		c2.214,1.192,4.675,1.313,7.111,0.867c3.151-0.576,4.233-2.875,2.784-5.715c-0.551-1.079-1.231-2.103-1.686-3.219
		c-5.958-14.627-13.344-28.586-20.157-42.809c-2.724-5.686-4.901-11.454-6.055-17.63c-0.222-1.188-0.405-2.415-0.856-3.523
		c-1.697-4.177-5.216-4.741-8.224-2.015C802.372,805.591,799.644,811.302,799.493,818.385z"/>
	<path fill="#81889B" d="M851.647,918.611c-7.353,0.408-14.016-0.535-20.469-2.887c-3.608-1.315-6.981-3.035-10.09-5.334
		c-5.303-3.922-10.757-7.642-16.055-11.57c-5.516-4.09-9.843-9.267-13.214-15.234c-1.837-3.25-2.731-6.741-2.417-10.497
		c0.504-6.023,6.059-8.931,11.314-5.887c1.198,0.694,2.343,1.503,3.426,2.366c4.07,3.244,8.198,6.426,12.133,9.828
		c6.547,5.659,14.378,8.259,22.654,9.847c2.959,0.568,5.912,0.19,8.715-0.894c7.123-2.753,14.215-5.587,21.328-8.369
		c2.907-1.137,5.784-2.382,8.763-3.294c3.383-1.036,6.857-0.965,10.276,0.06c3.154,0.946,4.963,3.1,5.455,6.308
		c0.453,2.955,0.255,5.88-0.721,8.737c-1.427,4.177-3.715,7.833-6.723,11.033c-2.021,2.15-4.224,4.134-6.19,6.332
		c-5.716,6.393-13.259,8.612-21.392,9.419C856.03,918.813,853.578,918.611,851.647,918.611z"/>
	<path fill="#81889B" d="M1126.484,535.569c-2.135-0.634-4.517-0.859-6.364-1.971c-10.278-6.191-18.143-14.49-21.384-26.37
		c-1.473-5.399-0.22-10.346,3.758-14.399c3.344-3.406,8.171-4.24,12.474-2.254c3.785,1.747,6.596,4.487,7.965,8.484
		c0.729,2.129,1.518,4.299,1.789,6.511c0.868,7.058,4.611,12.605,8.949,17.887c0.55,0.67,1.21,1.253,1.727,1.945
		c1.653,2.217,1.52,4.488-0.347,6.606C1132.8,534.563,1129.871,535.344,1126.484,535.569z"/>
	<path fill="#81889B" d="M311.752,336.503c0.308,8.377-1.316,16.575-2.454,24.805c-0.9,6.516-1.957,13.048-3.546,19.424
		c-3.06,12.282-6.302,24.531-9.963,36.645c-1.744,5.771-4.391,11.313-7.06,16.748c-2.286,4.656-5.125,9.049-7.829,13.492
		c-6.417,10.548-15.04,18.972-25.165,25.951c-6.012,4.144-12.155,8.046-18.827,11.062c-4.454,2.013-9.072,3.179-13.936,3.966
		c-5.984,0.968-11.78,0.093-17.606-0.514c-2.672-0.278-5.271-1.615-7.802-2.706c-1.054-0.454-2.013-1.393-2.718-2.334
		c-1.637-2.185-0.989-5.067,1.587-6.014c4.479-1.646,8.143-4.608,12.176-6.965c6.651-3.887,12.37-8.809,17.299-14.796
		c3.744-4.547,7.844-8.803,11.182-13.682c6.366-9.302,12.861-18.516,17.662-28.79c4.932-10.555,9.266-21.347,12.061-32.648
		c2.503-10.118,5.629-20.026,8.818-29.928c1.701-5.283,3.246-10.616,4.99-15.885c2.855-8.626,7.06-16.584,12.329-23.971
		c1.201-1.684,2.601-3.255,4.077-4.708c1.498-1.475,2.94-1.493,4.708-0.339c1.936,1.264,3.322,3.014,4.394,5.046
		c3.373,6.396,5.047,13.261,5.599,20.419C311.876,332.677,311.752,334.595,311.752,336.503z"/>
	<path fill="#81889B" d="M497.708,179.896c0.655,0.09,2.229,0.175,3.738,0.534c6.608,1.573,13.309,2.267,20.072,2.865
		c5.898,0.522,11.787,0.535,17.674,0.872c6.923,0.396,13.829,1.098,20.744,1.649c1.903,0.151,3.811,0.227,5.717,0.348
		c10.057,0.635,20.114-0.081,30.171,0.011c5.899,0.054,11.808-0.243,17.672,0.812c1.69,0.304,3.465,0.18,5.201,0.189
		c9.729,0.048,19.459-0.036,29.185,0.155c5.543,0.109,11.112,0.381,16.607,1.072c7.226,0.908,14.398,2.262,21.578,3.511
		c1.874,0.326,3.721,0.887,5.53,1.492c2.674,0.894,5.395,1.254,8.203,1.202c3.647-0.068,7.296-0.071,10.944-0.097
		c2.826-0.02,5.526,0.578,8.076,1.781c3.284,1.549,5.014,4.027,4.983,7.806c-0.029,3.486-1.137,6.344-3.471,8.961
		c-3.601,4.039-8.174,6.495-13.116,8.186c-6.402,2.19-12.899,4.176-19.636,5.119c-1.702,0.238-3.476,0.31-5.179,0.12
		c-5.174-0.576-10.338-1.267-15.492-2.004c-7.96-1.139-15.891-0.99-23.875-0.09c-6.371,0.719-12.794,1.131-19.204,1.307
		c-7.985,0.219-15.982,0.141-23.972,0.022c-4.156-0.062-8.307-0.488-12.46-0.748c-1.04-0.065-2.08-0.172-3.12-0.175
		c-19.792-0.059-39.027-3.61-57.893-9.345c-8.803-2.676-17.584-5.446-26.263-8.492c-3.059-1.074-5.917-2.901-8.627-4.738
		c-2.945-1.996-4.812-4.963-5.905-8.365c-0.768-2.389-0.774-4.77,0.128-7.144C487.537,181.91,490.821,179.88,497.708,179.896z"/>
	<path fill="#81889B" d="M295.608,873.074c-3.799-0.336-7.595-0.717-11.399-0.993c-2.423-0.176-4.862-0.338-7.286-0.262
		c-6.695,0.209-13.159-1.055-19.477-3.052c-10.105-3.193-20.197-6.449-29.945-10.648c-8.158-3.514-15.93-7.714-23.173-12.897
		c-6.443-4.611-11.516-10.515-16.296-16.716c-2.542-3.298-4.92-6.725-7.513-9.982c-6.817-8.563-10.037-18.529-11.601-29.163
		c-0.177-1.201-0.206-2.431-0.461-3.613c-1.147-5.322-0.133-10.485,1.908-15.28c2.537-5.958,7.142-9.663,13.921-10.206
		c6.018-0.482,9.883,2.762,12.733,7.436c1.333,2.186,2.224,4.725,2.888,7.218c1.893,7.106,4.948,13.705,8.38,20.153
		c2.403,4.516,5.673,8.304,9.895,11.23c4.853,3.363,9.558,6.982,14.635,9.968c4.618,2.716,9.523,5.059,14.526,6.983
		c7.612,2.928,15.437,5.298,23.135,8.008c5.076,1.787,10.072,3.799,15.133,5.63c3.59,1.299,7.218,2.497,10.847,3.686
		c8.429,2.763,16.898,5.448,24.05,10.973c1.774,1.37,3.536,2.84,4.975,4.541c2.136,2.525,2.037,4.902,0.015,7.584
		c-1.483,1.967-3.389,3.431-5.559,4.628c-5.63,3.105-11.776,4.065-18.055,4.473c-2.076,0.135-4.169,0.021-6.254,0.021
		C295.623,872.888,295.615,872.981,295.608,873.074z"/>
	<path fill="#A4A9B3" d="M550.961,579.556c0.154,1.833-0.924,2.716-2.273,3.215c-2.796,1.034-5.672,1.549-8.691,1.106
		c-4.341-0.636-8.438-2.008-12.397-3.84c-1.261-0.583-2.475-1.273-3.748-1.826c-7.512-3.263-12.701-8.954-16.552-15.966
		c-2.172-3.955-4.027-8.083-6.157-12.063c-2.211-4.129-4.495-8.225-6.906-12.24c-2.86-4.761-5.716-9.541-8.9-14.086
		c-2.678-3.822-5.714-7.411-8.787-10.932c-3.877-4.443-8.054-8.625-11.915-13.081c-4.633-5.347-8.042-11.382-8.602-18.598
		c-0.708-9.116,1.517-17.228,8.864-23.313c3.177-2.631,6.812-4.113,11.027-3.96c4.883,0.178,9.459,3.52,11.021,8.164
		c0.386,1.148,0.779,2.337,0.879,3.532c0.326,3.893,2.354,6.744,5.086,9.361c4.891,4.685,9.775,9.393,14.404,14.332
		c6.806,7.263,12.762,15.144,16.037,24.718c0.729,2.132,1.414,4.286,1.977,6.466c1.39,5.379,2.751,10.767,4.026,16.174
		c1.518,6.436,3.423,12.74,6.02,18.828c0.409,0.958,0.927,1.903,1.133,2.908c1.129,5.501,4.446,9.727,7.968,13.83
		C546.614,574.776,548.843,577.187,550.961,579.556z"/>
	<path fill="#A4A9B3" d="M780.756,618.524c4.094-0.389,7.457,0.924,9.726,4.554c1.097,1.755,2.465,3.399,3.24,5.286
		c2.124,5.173,5.178,9.774,8.318,14.335c2.573,3.736,4.306,7.866,6.071,12.016c1.476,3.47,0.2,5.859-3.166,7.6
		c-2.767,1.431-5.711,1.231-8.615,0.416c-4.038-1.134-7.742-3.031-11.199-5.357c-4.038-2.718-7.594-6.029-10.831-9.649
		c-2.917-3.262-5.098-6.981-6.201-11.266c-1.149-4.463-0.227-8.689,2.135-12.435C772.572,620.319,776.036,618.097,780.756,618.524z"
		/>
	<path fill="#81889B" d="M706.951,398.32c0.045-5.076,1.703-10.056,5.727-14.086c4.845-4.853,10.79-5.286,16.93-3.613
		c3.648,0.993,6.154,4.01,8.088,7.062c2.709,4.275,5.524,8.402,9.235,11.857c3.712,3.456,4.107,12.455-0.303,16.614
		c-3.329,3.14-6.971,5.15-11.488,5.382c-6.413,0.33-12.592-1.215-17.95-4.467C710.592,413.063,707.023,406.803,706.951,398.32z"/>
	<path fill="#81889B" d="M818.58,1015.105c2.39-0.474,3.7-0.78,5.026-0.983c1.189-0.182,2.402-0.391,3.593-0.335
		c1.483,0.07,2.578,1.309,2.492,2.813c-0.079,1.372-0.362,2.743-0.669,4.089c-1.719,7.539-5.356,14.257-9.066,20.938
		c-0.757,1.364-1.535,2.727-2.431,4.002c-7.741,11.008-12.664,23.462-18.32,35.541c-0.441,0.942-0.827,1.924-1.378,2.799
		c-5.504,8.741-15.074,7.72-20.427,2.25c-2.091-2.137-3.55-4.71-4.295-7.632c-3.343-13.115-1.619-25.103,7.852-35.393
		c2.581-2.805,4.85-5.926,7.62-8.522c7.84-7.347,15.829-14.537,23.848-21.69c1.663-1.484,3.671-2.603,5.606-3.745
		c0.45-0.266,1.316-0.076,1.861,0.179c0.242,0.113,0.318,0.952,0.2,1.389C819.789,1011.928,819.334,1013.01,818.58,1015.105z"/>
	<path fill="#81889B" d="M1087.629,690.347c-0.571,2.002-1.091,4.759-2.136,7.3c-2.253,5.477-5.267,10.568-8.807,15.32
		c-2.439,3.274-5.554,5.758-9.502,6.987c-4.316,1.343-7.223-1.268-6.489-5.765c0.138-0.847,0.411-1.693,0.76-2.479
		c0.634-1.426,1.222-2.908,2.092-4.189c4.877-7.186,9.965-14.215,16.377-20.156c0.882-0.817,1.883-1.559,2.944-2.116
		c2.295-1.205,4.24-0.196,4.589,2.286C1087.552,688.22,1087.545,688.918,1087.629,690.347z"/>
	<path fill="#81889B" d="M1001.007,865.682c3.639-0.019,7.343,3.398,7.244,6.683c-0.092,3.065-3.66,6.285-7.061,6.371
		c-3.627,0.092-7.309-3.348-7.169-6.696C994.158,868.798,997.562,865.699,1001.007,865.682z"/>
	<path fill="#81889B" d="M1023.955,302.282c-0.399,4.11-1.021,7.505-2.858,10.548c-2.194,3.634-5.594,4.61-9.338,2.561
		c-2.813-1.54-4.869-3.848-6.119-6.839c-1.516-3.625-1.763-7.398-1.211-11.224c0.169-1.175,0.633-2.344,1.155-3.424
		c1.73-3.582,4.468-5.745,8.624-5.454c4.074,0.285,6.791,2.659,8.108,6.329C1023.239,297.354,1023.513,300.162,1023.955,302.282z"/>
	<path fill="#A4A9B3" d="M799.493,818.385c0.151-7.083,2.879-12.794,8.073-17.501c3.008-2.726,6.527-2.162,8.224,2.015
		c0.45,1.108,0.633,2.335,0.856,3.523c1.154,6.176,3.331,11.944,6.055,17.63c6.813,14.223,14.199,28.182,20.157,42.809
		c0.455,1.117,1.135,2.14,1.686,3.219c1.449,2.84,0.367,5.139-2.784,5.715c-2.436,0.445-4.897,0.324-7.111-0.867
		c-4.608-2.48-8.962-5.347-12.216-9.543c-5.854-7.549-11.15-15.486-15.757-23.849c-2.596-4.712-4.648-9.709-5.864-14.975
		C800.191,823.877,799.921,821.113,799.493,818.385z"/>
</g>
</svg>
