<?xml version="1.0" encoding="utf-8"?>
<!-- Designed by Vexels.com - 2020 All Rights Reserved - https://vexels.com/terms-and-conditions/  -->
<svg version="1.1" id="Capa_1" xmlns="http://www.w3.org/2000/svg" xmlns:xlink="http://www.w3.org/1999/xlink" x="0px" y="0px"
	 viewBox="0 0 1200 1200" enable-background="new 0 0 1200 1200" xml:space="preserve">
<g>
	<path fill="#F4C141" d="M281.673,976.329c-1.815-2.92-2.396-6.269-3.198-9.518c-1.984-8.042-2.88-16.257-3.595-24.49
		c-1.422-16.36-0.791-32.7,0.507-49.034c0.157-1.98,0.205-3.97,0.282-5.956c0.064-1.641-0.662-2.927-1.805-4.058
		c-1.059-1.048-2.234-1.564-3.73-1.186c-1.336,0.337-2.678,0.649-4.017,0.972c-6.551,1.581-13.116,3.136-19.865,3.54
		c-3.503,0.21-7.04,0.274-10.539,0.051c-4.443-0.282-8.849-0.304-13.293,0.035c-11.154,0.851-22.336,1.068-33.495,0.262
		c-5.473-0.395-10.984-1.052-16.044-3.531c-0.542-1.263-1.008-2.564-1.635-3.782c-2.94-5.714-5.788-11.467-7.811-17.586
		c-1.871-5.658-3.755-11.313-5.551-16.995c-0.888-2.811-1.028-5.714-0.439-8.617c0.759-3.745,1.44-7.511,2.369-11.215
		c4.09-16.307,7.801-32.711,12.8-48.786c2.411-7.754,5.155-15.361,8.558-22.723c3.355-7.257,3.409-8.331,0.518-15.682
		c-4.029-10.245-7.796-20.585-10.944-31.141c-0.305-1.022-0.679-2.029-1.104-3.008c-0.308-0.71-0.774-1.328-1.972-1.032
		c-2.605,3.955-4.384,8.501-6.274,12.991c-1.203-0.19-2.438-0.262-3.603-0.586c-18.563-5.152-36.531-11.826-53.452-21.117
		c-3.601-1.977-7.138-4.108-9.755-7.407c1.357,0.054,2.736-0.039,4.063,0.183c5.619,0.939,11.227,1.23,16.845,0.054
		c1.62-0.339,3.581-0.306,4.341-2.078c0.906-2.114-0.892-3.355-2.092-4.671c-3.292-3.61-6.635-7.173-9.952-10.76
		c-0.414-0.447-0.949-0.872-1.142-1.41c-0.238-0.665-0.318-1.46-0.201-2.154c0.095-0.561,0.565-1.067,0.901-1.576
		c6.383-9.698,12.663-19.465,19.188-29.067c5.844-8.6,12.432-16.632,19.737-24.049c5.666-5.753,5.882-5.742,5.025-13.663
		c-0.627-5.795-0.59-11.583-0.716-17.381c-0.079-3.661-0.209-7.32-0.316-10.981c0.118-2.586,0.15-5.179,0.378-7.755
		c0.272-3.088-0.749-5.542-2.777-7.892c-4.58-5.307-8.971-10.778-13.389-16.222c-12.978-15.989-25.246-32.505-36.763-49.576
		c-0.668-0.99-1.114-2.13-1.661-3.201c0.447-2.405,1.16-4.796,1.288-7.217c0.363-6.878,0.526-13.774-1.249-20.531
		c-1.243-4.732-2.472-9.468-3.796-14.178c-1.035-3.681-2.198-7.326-3.322-10.982c-0.467-1.518-0.091-2.729,1.267-3.558
		c1.696-1.036,3.392-2.08,5.143-3.017c7.288-3.898,14.532-7.885,21.916-11.595c7.79-3.915,15.638-7.738,23.612-11.258
		c7.977-3.522,16.153-6.592,24.221-9.91c8.494-3.494,16.939-7.107,25.457-10.539c2.585-1.042,4.412-2.661,5.553-5.148
		c0.383-0.834,0.817-1.645,1.221-2.469c5.115-10.45,10.727-20.63,16.683-30.623c0.548-0.92,1.054-1.865,1.603-2.785
		c0.579-0.97,0.656-1.934,0.411-3.066c-1.032-4.777-1.985-9.573-2.914-14.371c-1.206-6.227-1.187-12.465-0.046-18.703
		c1.514-8.275,2.961-16.563,4.547-24.824c1.413-7.359,2.796-14.731,4.512-22.023c2.637-11.204,7.63-21.629,11.145-32.549
		c0.735-2.283,2.276-3.568,4.652-3.829c1.06-0.117,2.129-0.246,3.192-0.227c6.119,0.106,12.237,0.362,18.354,0.351
		c4.123-0.007,8.243-0.438,12.368-0.551c3.056-0.084,6.119-0.018,9.175,0.087c2.749,0.094,5.49,0.38,8.239,0.496
		c3.975,0.168,7.964,0.122,11.928,0.418c4.267,0.319,8.516,0.899,12.766,1.422c3.035,0.373,5.682-0.258,8.144-2.215
		c4.312-3.427,8.809-6.622,13.159-10.003c1.181-0.918,2.111-2.158,3.156-3.25c2.111-0.15,3.642-1.485,5.261-2.609
		c21.628-15.012,44.45-27.938,68.323-39.021c4.569-2.121,9.227-4.048,13.815-6.129c1.798-0.816,3.514-1.81,5.267-2.724
		c6.62-2.365,13.244-4.721,19.858-7.102c1.538-0.553,2.452-1.665,2.971-3.245c1.048-3.193,2.175-6.364,3.364-9.508
		c3.248-8.59,7.022-16.96,11.368-25.038c3.763-6.994,7.878-13.802,11.964-20.617c5.046-8.417,11.147-16.07,17.616-23.419
		c3.733-4.241,7.694-8.282,11.574-12.393c1.374-1.456,2.773-2.874,3.051-4.989c2.82-0.102,5.424,0.852,8.036,1.697
		c11.279,3.651,20.9,10.057,29.564,17.989c6.798,6.223,12.661,13.264,17.899,20.839c5.574,8.06,10.561,16.477,15.357,25.01
		c3.06,5.443,2.891,5.016,8.569,4.947c21.915-0.269,43.738,1,65.437,4.09c10.296,1.466,20.555,3.188,30.831,4.791
		c0.907,0.141,1.817,0.257,2.726,0.385c1.633,0.229,3.009-0.282,4.174-1.429c0.872-0.858,1.763-1.697,2.636-2.554
		c4.912-4.821,9.72-9.753,14.753-14.445c11.885-11.08,24.503-21.221,38.564-29.477c10.647-6.252,21.883-10.938,34.111-13.025
		c11.099-1.894,22.234-2.053,33.357-0.291c3.441,0.545,7,0.899,10.008,2.982c-1.305,2.765-2.934,5.427-3.852,8.314
		c-2.935,9.225-7.381,17.781-11.35,26.55c-2.585,5.711-5.237,11.395-7.686,17.164c-4.308,10.15-8.123,20.477-10.711,31.223
		c-0.465,1.93-1.078,3.832-1.743,5.704c-0.551,1.55-1.729,2.063-3.304,1.561c-0.725-0.231-1.412-0.584-2.111-0.895
		c-3.216-1.43-6.419-2.889-9.649-4.285c-1.245-0.538-2.498-1.211-3.946-0.781c-0.992,0.31-0.869,2.127-2.485,1.717
		c-0.135-0.153-0.439-0.347-0.52-0.611c-1.064-3.459-3.711-4.951-6.935-6.031c-5.077-1.701-10.039-3.739-15.091-5.517
		c-5.198-1.83-10.441-3.537-15.677-5.258c-1.133-0.373-2.34-0.912-3.454,0.188c-0.55,1.611,0.3,2.97,0.89,4.348
		c0.843,1.968,1.833,3.872,2.67,5.842c3.774,8.881,6.835,18.025,9.67,27.231c2.204,7.158,4.228,14.394,5.862,21.7
		c2.637,11.788,4.805,23.679,6.414,35.659c0.508,3.782,0.909,7.587,1.147,11.395c0.428,6.858,1.321,13.694,1.049,20.589
		c-0.03,0.753,0.21,1.512,0.279,2.273c0.193,2.128,0.498,4.256,0.516,6.386c0.062,7.65,0.034,15.3,0.014,22.951
		c-0.004,1.527-0.087,3.057-0.195,4.581c-0.529,7.459-1.081,14.916-1.618,22.374c-0.033,0.457,0.009,0.919-0.02,1.376
		c-0.068,1.068-0.116,2.139-0.246,3.2c-0.485,3.941-1.009,7.877-1.5,11.817c-0.738,5.912-1.265,11.857-2.226,17.732
		c-2.691,16.449-5.561,32.859-9.355,49.112c-4.143,17.746-9.054,35.259-14.651,52.585c-2.632,8.148-5.431,16.249-8.41,24.277
		c-3.937,10.608-8.001,21.174-12.249,31.661c-2.984,7.366-6.23,14.635-9.602,21.834c-5.836,12.459-11.69,24.916-17.856,37.213
		c-5.895,11.754-12.209,23.293-18.815,34.676c-6.834,11.776-13.741,23.511-21.144,34.93c-7.071,10.907-14.227,21.761-21.738,32.385
		c-9.006,12.74-18.08,25.422-27.703,37.705c-3.866,4.935-7.702,9.896-11.664,14.752c-3.767,4.617-7.686,9.11-11.532,13.664
		c-4.436,5.252-8.786,10.58-13.316,15.749c-5.437,6.204-10.928,12.368-16.574,18.382c-6.07,6.464-12.498,12.576-18.381,19.236
		c-4.037,4.57-8.706,8.567-13.255,12.669c-7.489,6.754-14.228,14.314-21.941,20.862c-4.192,3.558-8.127,7.419-12.218,11.098
		c-2.613,2.35-5.247,4.681-7.964,6.908c-7.685,6.299-15.363,12.608-23.147,18.783c-7.548,5.988-15.162,11.896-22.866,17.682
		c-5.259,3.949-10.721,7.628-16.094,11.425c-14.249,10.071-28.774,19.723-43.785,28.63c-5.395,3.201-10.833,6.33-16.218,9.548
		c-1.117,0.668-2.557,1.159-2.663,2.92c4.97,4.085,10.261,7.696,15.813,10.945c1.581,0.925,3.103,1.975,4.549,3.102
		c1.74,1.356,1.588,2.752-0.322,4.008c-0.51,0.335-1.059,0.614-1.603,0.893c-6.672,3.43-13.412,6.717-20.413,9.435
		c-2.995,1.163-5.973,2.377-9.009,3.423c-8.422,2.903-17.123,4.633-25.901,6.044c-3.374,0.542-6.714,0.669-10.01-0.292
		C289.31,976.252,285.519,976.037,281.673,976.329z M345.734,349.975c-0.2-6.653-0.413-9.51-2.033-13.583
		c-3.606-9.067-10.177-14.924-19.88-16.448c-6.222-0.977-12.539-0.517-18.564,1.79c-3.431,1.314-6.874,2.595-10.309,3.899
		c-7.712,2.927-14.278,7.686-20.334,13.122c-9.45,8.482-16.761,18.671-22.495,29.931c-7.768,15.255-13.125,31.228-14.526,48.476
		c-0.492,6.056-0.244,11.954,0.98,17.761c1.289,6.117,3.121,12.151,5.161,18.067c1.132,3.282,2.925,6.417,4.859,9.327
		c3.77,5.671,9.058,9.476,15.65,11.354c7.469,2.127,14.869,1.788,22.076-1.049c4.709-1.854,9.139-4.266,13.201-7.35
		c6.648-5.048,12.225-11.11,17.028-17.878c5.412-7.625,10.115-15.666,13.936-24.227c6.091-13.645,10.388-27.793,12.197-42.641
		c0.739-6.066,1.196-12.165,1.797-18.248C344.884,358.176,345.315,354.076,345.734,349.975z M327.629,656.645
		c0.432,3.629,0.511,7.343,1.368,10.869c1.957,8.051,5.622,15.143,12.643,20.117c1.977,1.401,3.85,3.022,5.498,4.795
		c2.955,3.177,6.255,5.851,10.229,7.57c9.03,3.907,18.182,3.59,27.289,0.322c2.72-0.976,5.3-2.372,7.885-3.69
		c6.431-3.28,12.441-7.249,17.865-11.984c5.177-4.52,10.123-9.311,14.44-14.707c5.215-6.519,9.148-13.755,11.935-21.58
		c2.622-7.364,4.682-14.863,4.231-22.838c-0.329-5.819-1.167-11.548-2.571-17.191c-0.857-3.442-2.258-6.674-4.542-9.434
		c-3.655-4.418-8.035-7.893-13.263-10.353c-5.459-2.569-11.032-4.528-17.157-4.496c-0.603,0.003-1.209-0.174-1.811-0.281
		c-6.668-1.188-13.087-0.236-19.349,2.191c-4.171,1.616-7.876,4.043-11.608,6.448c-2.307,1.487-4.585,3.214-7.131,4.101
		c-7.113,2.478-12.33,7.315-16.868,12.966c-3.63,4.52-6.933,9.272-9.819,14.365C331.103,634.05,327.981,644.875,327.629,656.645z
		 M536.579,243.744c0.174-2.485-0.137-5.711-1.329-8.715c-1.98-4.991-4.562-9.659-8.379-13.551c-2.158-2.201-4.404-4.299-7.329-5.4
		c-8.329-3.134-16.856-5.535-25.754-6.355c-1.501-0.138-3.045,0.109-4.562,0.25c-1.215,0.113-2.415,0.401-3.631,0.501
		c-10.358,0.85-19.605,4.869-27.973,10.662c-7.182,4.972-12.981,11.555-18.584,18.259c-6.453,7.721-10.161,16.589-11.792,26.459
		c-1.057,6.395-1.508,12.741,0.047,19.104c2.171,8.887,7.169,15.809,14.857,20.682c7.443,4.718,15.766,5.651,24.304,4.664
		c8.422-0.973,16.402-3.727,24.122-7.113c11.332-4.97,21.216-11.943,29.401-21.358c4.66-5.361,8.635-11.098,11.631-17.491
		C534.547,258.077,536.697,251.563,536.579,243.744z M635.021,430.898c5.634-0.246,11.255-1.702,15.842-5.592
		c3.953-3.353,7.483-7.151,10.034-11.81c3.248-5.933,6.263-11.91,7.174-18.715c0.567-4.231,1.675-8.484,1.535-12.694
		c-0.197-5.919-1.049-11.831-3.063-17.529c-2.792-7.895-7.794-13.826-15.259-17.495c-9.609-4.722-19.521-2.222-25.993,3.773
		c-5.198,4.814-8.511,10.691-11.003,17.203c-2.376,6.209-3.261,12.71-4.087,19.222c-0.246,1.943,0.022,3.96,0.142,5.938
		c0.174,2.89,0.69,5.784,0.593,8.66c-0.235,6.986,1.567,13.277,5.637,18.95C621.031,427.027,626.927,430.619,635.021,430.898z
		 M395.968,846.548c0-1.053,0.008-1.817-0.001-2.58c-0.098-8.639-6.243-16.35-14.79-18.923c-7.092-2.135-14.256-1.637-21.186,0.868
		c-12.089,4.37-21.436,12.175-28.009,23.196c-2.868,4.808-4.474,10.036-3.973,15.739c0.567,6.462,3.34,11.7,8.804,15.322
		c4.825,3.199,10.284,4.568,15.978,5.116c0.755,0.073,1.536,0.04,2.289-0.061c6.431-0.861,12.486-2.763,18.108-6.115
		c6.01-3.583,10.88-8.454,15.322-13.677C393.133,859.998,396.394,853.777,395.968,846.548z M625.673,609.592
		c-0.16-12.315-7.888-23.135-19.792-24.776c-3.653-0.503-7.06-0.226-10.379,0.804c-8.515,2.641-15.635,7.629-21.518,14.228
		c-5.602,6.283-9.775,22.046-8.106,31.172c0.805,4.404,2.723,8.135,5.578,11.351c4.658,5.246,10.897,6.644,17.548,5.879
		c6.62-0.762,12.67-3.238,18.113-7.217c3.616-2.643,6.833-5.719,9.662-9.097C622.328,625.308,625.417,617.592,625.673,609.592z
		 M699.182,226.302c0.486-7.788-2.046-14.899-6.521-21.34c-2.857-4.112-6.651-7.067-11.644-8.414
		c-8.424-2.272-15.321,1.287-21.782,5.823c-3.999,2.807-6.143,7.167-7.149,11.954c-0.972,4.626-1.746,9.187-0.89,14.045
		c0.829,4.712,1.891,9.271,3.842,13.621c2.002,4.464,5.088,8.056,9.415,10.316c6.422,3.355,13.105,3.404,19.335-0.245
		C693.462,246.397,699.993,238.582,699.182,226.302z M452.865,406.034c-0.574,9.183,5.28,15.83,13.379,18.087
		c3.481,0.97,6.87,0.889,10.412,0.387c11.726-1.664,24.007-13.314,25.328-25.191c0.683-6.143-0.809-11.549-4.672-16.221
		c-7.085-8.571-20.095-10.987-30.054-3.341c-4.765,3.658-8.851,7.983-10.962,13.817c-0.415,1.146-0.975,2.24-1.487,3.349
		C453.442,399.881,452.692,402.968,452.865,406.034z M237.014,570.736c0.236-3.011-0.693-6.703-1.615-10.417
		c-1.033-4.159-3.328-7.412-6.383-10.347c-4.898-4.706-14.885-4.747-19.754,0c-2.242,2.186-3.943,4.589-4.858,7.606
		c-1.359,4.48-1.671,8.924-0.566,13.533c0.597,2.492,0.685,5.114,0.896,7.686c0.137,1.669,0.038,3.356,0.122,5.03
		c0.147,2.958,1.127,5.675,2.61,8.209c1.357,2.319,3.319,3.926,5.849,4.892c6.034,2.305,12.635,0.483,16.798-4.912
		C234.736,586.025,237.06,579.197,237.014,570.736z"/>
	<path fill="#F4A03F" d="M281.673,976.329c3.846-0.292,7.637-0.077,11.372,1.011c3.296,0.96,6.636,0.834,10.01,0.292
		c8.778-1.411,17.479-3.141,25.901-6.044c3.036-1.046,6.014-2.261,9.009-3.423c7.001-2.718,13.741-6.005,20.413-9.435
		c0.544-0.28,1.094-0.558,1.603-0.893c1.911-1.256,2.062-2.652,0.322-4.008c-1.445-1.126-2.967-2.177-4.549-3.102
		c-5.552-3.248-10.843-6.86-15.813-10.945c0.106-1.761,1.546-2.252,2.663-2.92c5.385-3.218,10.823-6.347,16.218-9.548
		c15.011-8.907,29.536-18.559,43.785-28.63c5.373-3.797,10.835-7.476,16.094-11.425c7.704-5.785,15.318-11.694,22.866-17.682
		c7.784-6.175,15.462-12.484,23.147-18.783c2.717-2.227,5.351-4.559,7.964-6.908c4.091-3.679,8.026-7.54,12.218-11.098
		c7.714-6.547,14.452-14.108,21.941-20.862c4.549-4.102,9.218-8.099,13.255-12.669c5.883-6.66,12.312-12.772,18.381-19.236
		c5.647-6.013,11.137-12.177,16.574-18.382c4.53-5.17,8.88-10.497,13.316-15.749c3.846-4.553,7.765-9.047,11.532-13.664
		c3.963-4.856,7.798-9.817,11.664-14.752c9.623-12.283,18.697-24.965,27.703-37.705c7.51-10.624,14.667-21.479,21.738-32.385
		c7.403-11.42,14.309-23.154,21.144-34.93c6.606-11.383,12.921-22.922,18.815-34.676c6.167-12.297,12.02-24.754,17.856-37.213
		c3.372-7.199,6.618-14.468,9.602-21.834c4.248-10.487,8.312-21.053,12.249-31.661c2.979-8.028,5.778-16.129,8.41-24.277
		c5.597-17.326,10.508-34.839,14.651-52.585c3.794-16.254,6.665-32.663,9.355-49.112c0.961-5.875,1.489-11.821,2.226-17.732
		c0.492-3.94,1.016-7.876,1.5-11.817c0.13-1.061,0.178-2.132,0.246-3.2c0.029-0.457-0.013-0.92,0.02-1.376
		c0.537-7.458,1.089-14.915,1.618-22.374c0.108-1.524,0.191-3.054,0.195-4.581c0.02-7.65,0.048-15.301-0.014-22.951
		c-0.017-2.13-0.323-4.259-0.516-6.386c-0.069-0.761-0.309-1.52-0.279-2.273c0.272-6.896-0.621-13.732-1.049-20.589
		c-0.238-3.808-0.639-7.613-1.147-11.395c-1.609-11.979-3.776-23.87-6.414-35.659c-1.635-7.306-3.658-14.542-5.862-21.7
		c-2.835-9.207-5.897-18.35-9.67-27.231c-0.837-1.97-1.828-3.874-2.67-5.842c-0.59-1.378-1.44-2.736-0.89-4.348
		c1.114-1.1,2.321-0.561,3.454-0.188c5.236,1.721,10.478,3.428,15.677,5.258c5.052,1.778,10.015,3.816,15.091,5.517
		c3.225,1.081,5.872,2.573,6.935,6.031c0.081,0.263,0.385,0.458,0.52,0.611c1.616,0.41,1.493-1.407,2.485-1.717
		c1.448-0.43,2.701,0.243,3.946,0.781c3.23,1.396,6.434,2.855,9.649,4.285c0.699,0.311,1.386,0.664,2.111,0.895
		c1.574,0.502,2.753-0.011,3.304-1.561c0.665-1.872,1.278-3.774,1.743-5.704c2.588-10.746,6.403-21.073,10.711-31.223
		c2.449-5.769,5.101-11.453,7.686-17.164c3.969-8.769,8.415-17.325,11.35-26.55c0.919-2.887,2.548-5.549,3.852-8.314
		c3.035,0.915,6.115,1.738,8.353,4.224c-0.651,1.376-1.201,2.808-1.966,4.115c-2.939,5.015-3.509,10.28-2.149,15.901
		c1.582,6.539,3.462,12.977,5.629,19.345c3.125,9.183,4.264,18.73,4.641,28.354c0.424,10.816-0.511,21.66,0.899,32.47
		c0.693,5.314,1.543,10.569,3.009,15.713c0.323,1.135,0.844,2.479,1.718,3.145c3.256,2.482,6.37,5.26,10.452,6.42
		c1.561,1.447,3.042,2.996,4.703,4.318c2.508,1.997,5.267,3.691,7.688,5.781c2.736,2.362,5.773,3.179,9.297,2.983
		c3.812-0.212,7.636-0.228,11.456-0.275c1.676-0.021,3.353,0.093,5.029,0.145c0.023,2.445,0.196,4.936-0.808,7.234
		c-0.964,2.206-2.133,4.322-3.291,6.637c0.507,0.568,0.957,1.163,1.495,1.661c5.602,5.183,11.219,10.348,16.828,15.523
		c0.449,0.414,0.9,0.833,1.3,1.293c1.98,2.277,4.157,2.561,6.961,1.317c15.539-6.896,31.683-12.134,47.966-16.918
		c13.49-3.964,27.085-7.573,40.633-11.339c1.482,1.692,3.165,3.253,4.38,5.118c0.949,1.457,1.316,3.293,1.942,4.961
		c-8.943-0.369-15.298,3.474-18.963,11.664c-4.118,9.202-8.669,18.2-12.585,27.504c-2.97,7.056-5.777,14.15-8.218,21.399
		c-1.756,5.215-3.539,10.421-5.313,15.63c-0.098,0.288-0.222,0.569-0.352,0.846c-0.615,1.308-1.858,1.509-2.996,0.477
		c-0.339-0.308-0.678-0.626-0.96-0.984c-1.611-2.039-3.183-4.109-4.807-6.137c-5.542-6.917-11.056-13.856-16.668-20.715
		c-3.287-4.018-6.709-7.927-10.134-11.829c-1.309-1.491-2.769-2.856-4.221-4.213c-0.412-0.385-1.038-0.54-1.838-0.934
		c-0.34,0.845-0.831,1.504-0.831,2.164c-0.001,2.592,0.114,5.187,0.262,7.776c0.122,2.131,0.453,4.253,0.52,6.385
		c0.257,8.241-0.557,16.518,0.87,24.721c0.13,0.745,0.054,1.527,0.054,2.291c0.004,4.436,0.02,8.872-0.01,13.308
		c-0.009,1.373-0.134,2.746-0.232,4.118c-0.207,2.89-0.562,5.777-0.62,8.67c-0.106,5.352-0.031,10.707-0.056,16.061
		c-0.006,1.375,0.092,2.792-0.197,4.116c-0.793,3.631-0.68,7.297-0.718,10.965c-0.012,1.222-0.051,2.448-0.158,3.665
		c-0.534,6.079-1.125,12.154-1.636,18.235c-0.409,4.868-0.573,9.76-1.123,14.611c-1.118,9.863-2.228,19.734-3.699,29.548
		c-2.062,13.752-4.281,27.486-6.74,41.173c-3.435,19.119-7.771,38.054-12.604,56.865c-3.156,12.286-6.493,24.528-10.443,36.596
		c-3.518,10.748-6.669,21.62-10.357,32.308c-3.79,10.983-8.024,21.813-12.097,32.697c-0.369,0.985-0.913,1.925-1.5,2.803
		c-0.531,0.794-1.807,0.725-2.382-0.05c-0.271-0.365-0.515-0.761-0.709-1.172c-2.148-4.566-5.958-7.716-9.521-11.055
		c-0.865-0.811-2.059-1.296-3.147-1.839c-5.959-2.973-12.363-3.619-18.812-2.831c-5.937,0.726-11.645,2.406-16.643,6.054
		c-2.704,1.973-5.685,3.602-8.658,5.167c-6.733,3.545-12.642,7.987-16.985,14.359c-4.165,6.109-7.806,12.427-9.24,19.809
		c-0.711,3.658-0.702,7.263,0.02,10.922c1.326,6.722,4.767,12.134,9.728,16.766c5.844,5.457,12.567,8.59,20.662,8.494
		c1.378-0.016,2.758-0.053,4.133,0.005c4.529,0.192,8.831-0.822,12.97-2.525c3.673-1.511,7.27-3.206,10.908-4.805
		c0.719-0.316,1.455-0.48,2.012,0.317c0.019,0.309,0.151,0.661,0.039,0.9c-1.678,3.6-3.272,7.247-5.115,10.763
		c-4.046,7.717-8.204,15.376-12.354,23.039c-2.184,4.033-4.377,8.064-6.69,12.023c-3.085,5.28-6.28,10.495-9.446,15.728
		c-3.799,6.279-7.485,12.631-11.459,18.797c-5.301,8.226-10.798,16.327-16.281,24.435c-2.484,3.672-5.066,7.283-7.725,10.83
		c-9.721,12.964-19.237,26.086-29.882,38.336c-6.412,7.378-12.503,15.038-19.024,22.315c-6.117,6.827-12.618,13.311-18.936,19.959
		c-8.434,8.875-17.573,17.019-26.438,25.447c-2.988,2.841-6.076,5.587-9.239,8.231c-6.447,5.39-12.994,10.661-19.467,16.02
		c-9.433,7.809-19.266,15.096-29.308,22.085c-17.213,11.981-34.914,23.217-53.465,33.021c-13.119,6.934-26.419,13.542-40.222,19.066
		c-1.987,0.795-3.92,1.727-5.86,2.634c-0.554,0.259-1.029,0.66-0.562,1.641c1.61,0.368,3.367,0.904,5.165,1.16
		c9.23,1.312,18.465,2.595,27.709,3.803c8.642,1.13,17.313,1.902,26.047,1.839c1.326-0.009,2.655,0.541,3.983,0.832
		c-1.898,3.657-3.811,7.306-5.69,10.971c-4.809,9.379-10.058,18.521-15.951,27.244c-6.229,9.221-12.836,18.191-19.432,27.157
		c-4.247,5.773-8.807,11.315-13.163,17.009c-3.985,5.21-7.784,10.565-11.853,15.707c-3.877,4.899-7.965,9.632-12.021,14.386
		c-2.671,3.13-5.473,6.149-8.164,9.263c-0.482,0.558-0.71,1.334-1.056,2.01c-1.934,1.054-4.005,1.613-6.204,1.704
		c-0.787-3.089-2.713-5.455-4.949-7.58c-5.327-5.062-10.296-10.467-14.905-16.168c-4.993-6.175-9.811-12.502-14.451-18.947
		c-3.299-4.583-6.423-9.33-9.183-14.252c-4.114-7.336-7.463-15.054-10.552-22.89c-3.825-9.704-6.811-19.628-8.705-29.886
		c-1.304-7.063-2.548-14.142-4.09-21.154c-1.884-8.568-2.654-17.198-2.256-25.945c0.048-1.063,0.11-2.143,0.34-3.176
		c0.289-1.298,1.534-2.054,2.825-1.648c1.893,0.595,3.8,1.226,5.573,2.101c2.647,1.307,5.148,1.019,7.356-0.646
		c4.141-3.122,8.506-6.083,12.085-9.78c5.096-5.264,9.398-11.252,12.79-17.816c3.586-6.94,5.673-14.123,3.963-22.042
		c-1.103-5.11-2.379-10.129-5.37-14.522c-3.175-4.662-7.534-7.64-13.139-8.35c-6.7-0.849-13.076,0.158-18.896,3.964
		c-3.075,2.011-5.993,4.176-8.872,6.457c-5.203,4.121-8.652,9.379-11.163,15.388c-0.942,2.254-1.813,4.553-2.963,6.701
		c-3.682,6.88-5.494,14.214-5.69,21.981c-0.015,0.61-0.046,1.225-0.143,1.826c-0.236,1.457-1.289,2.161-2.649,1.637
		c-1.566-0.603-3.048-1.424-4.605-2.055c-2.03-0.823-3.191-0.092-3.487,2.143c-0.1,0.755-0.114,1.525-0.112,2.288
		c0.011,4.433,0.038,8.867,0.059,13.3c-0.602,0.463-1.152,1.025-1.814,1.376c-14.284,7.581-29.225,13.382-45.182,16.315
		c-7.877,1.448-15.811,1.928-23.745,0.341c-13.826-2.766-24.437-10.143-31.682-22.254
		C283.7,982.422,282.243,979.551,281.673,976.329z M876.747,392.343c12.595-0.239,22.315-5.592,28.981-16.333
		c3.805-6.132,5.417-12.924,5.688-20.046c0.186-4.88-0.151-9.771,0.788-14.628c0.342-1.768,0.305-3.698,0.009-5.482
		c-0.7-4.214-1.42-8.451-2.565-12.559c-2.525-9.056-6.739-17.324-12.182-25.008c-4.461-6.299-9.892-11.615-15.847-16.447
		c-4.285-3.477-8.939-6.4-13.699-9.187c-5.6-3.279-11.38-5.817-17.961-6.444c-4.674-0.445-9.14,0.163-13.502,1.651
		c-3.179,1.084-6.279,2.41-9.38,3.709c-4.18,1.75-7.784,4.2-10.009,8.339c-3.568,6.635-5.046,13.735-4.717,21.209
		c0.114,2.585,0.538,5.164,0.923,7.73c2.064,13.75,6.771,26.627,13.073,38.953c3.627,7.095,8.126,13.665,12.816,20.077
		c4.415,6.036,9.115,11.837,15.128,16.474C860.941,389.479,868.236,392.51,876.747,392.343z M617.576,809.01
		c-1.248,0.198-3.534,0.413-5.746,0.936c-8.52,2.014-14.18,7.518-17.885,15.174c-0.958,1.98-2.187,3.63-3.685,5.181
		c-1.162,1.203-2.309,2.462-3.226,3.851c-4.168,6.311-5.469,13.522-6.33,20.847c-0.106,0.899-0.044,1.845,0.101,2.743
		c0.682,4.218,1.135,8.497,3.147,12.382c1.472,2.843,2.835,5.745,4.383,8.545c6.033,10.917,13.537,20.739,22.745,29.149
		c4.731,4.321,9.817,8.31,15.771,10.928c8.762,3.852,17.669,5.574,27.206,2.693c12.042-3.638,20.184-11.407,24.446-22.951
		c2.866-7.764,4.008-15.876,2.528-24.326c-1.255-7.166-3.173-14.047-6.671-20.354c-6.398-11.535-13.991-22.165-24.125-30.869
		c-3.863-3.318-7.917-6.233-12.315-8.718C631.94,810.846,625.474,809.241,617.576,809.01z M761.152,566.705
		c4.989,0.391,9.185-1.211,13.147-3.766c5.323-3.434,9.18-8.233,11.594-13.881c2.683-6.276,3.411-12.877,0.924-19.648
		c-1.536-4.183-4.143-7.363-7.187-10.437c-5.885-5.943-17.019-8.138-25.515-3.41c-5.905,3.286-10.288,8.151-12.974,14.379
		c-1.146,2.656-2.123,5.428-2.779,8.241c-0.943,4.045-1.193,8.182,0.443,12.156c1.583,3.846,3.773,7.263,6.88,10.148
		C750.141,564.625,755.072,567.293,761.152,566.705z"/>
	<path fill="#F18C3F" d="M582.495,1023.023c-1.328-0.291-2.658-0.841-3.983-0.832c-8.734,0.062-17.404-0.71-26.047-1.839
		c-9.244-1.208-18.479-2.492-27.709-3.803c-1.797-0.256-3.555-0.791-5.165-1.16c-0.468-0.981,0.008-1.382,0.562-1.641
		c1.94-0.907,3.873-1.839,5.86-2.634c13.803-5.524,27.103-12.132,40.222-19.066c18.55-9.804,36.252-21.04,53.465-33.021
		c10.042-6.99,19.875-14.276,29.308-22.085c6.474-5.359,13.02-10.63,19.467-16.02c3.163-2.645,6.251-5.391,9.239-8.231
		c8.864-8.428,18.004-16.572,26.438-25.447c6.318-6.648,12.819-13.132,18.936-19.959c6.521-7.278,12.613-14.937,19.024-22.315
		c10.646-12.25,20.162-25.371,29.882-38.336c2.66-3.547,5.242-7.158,7.725-10.83c5.483-8.107,10.979-16.209,16.281-24.435
		c3.974-6.167,7.66-12.519,11.459-18.797c3.166-5.232,6.362-10.448,9.446-15.728c2.313-3.959,4.506-7.99,6.69-12.023
		c4.15-7.663,8.308-15.321,12.354-23.039c1.843-3.516,3.437-7.162,5.115-10.763c0.111-0.239-0.02-0.591-0.039-0.9
		c-0.557-0.797-1.293-0.633-2.012-0.317c-3.637,1.599-7.235,3.294-10.908,4.805c-4.138,1.703-8.441,2.718-12.97,2.525
		c-1.375-0.058-2.755-0.021-4.133-0.005c-8.094,0.096-14.817-3.037-20.662-8.494c-4.961-4.632-8.401-10.045-9.728-16.766
		c-0.722-3.659-0.731-7.264-0.02-10.922c1.434-7.382,5.076-13.699,9.24-19.809c4.344-6.371,10.252-10.814,16.985-14.359
		c2.972-1.565,5.954-3.194,8.658-5.167c4.999-3.648,10.707-5.328,16.643-6.054c6.449-0.788,12.853-0.142,18.812,2.831
		c1.088,0.543,2.282,1.028,3.147,1.839c3.563,3.339,7.373,6.489,9.521,11.055c0.193,0.411,0.438,0.807,0.709,1.172
		c0.575,0.774,1.851,0.844,2.382,0.05c0.587-0.878,1.131-1.818,1.5-2.803c4.073-10.884,8.307-21.714,12.097-32.697
		c3.688-10.688,6.84-21.56,10.357-32.308c3.95-12.068,7.286-24.311,10.443-36.596c4.833-18.811,9.169-37.746,12.604-56.865
		c2.459-13.687,4.678-27.421,6.74-41.173c1.471-9.814,2.581-19.685,3.699-29.548c0.55-4.85,0.714-9.743,1.123-14.611
		c0.51-6.081,1.102-12.155,1.636-18.235c0.107-1.217,0.145-2.443,0.158-3.665c0.037-3.668-0.075-7.333,0.718-10.965
		c0.289-1.324,0.19-2.741,0.197-4.116c0.025-5.354-0.05-10.709,0.056-16.061c0.057-2.893,0.413-5.779,0.62-8.67
		c0.098-1.371,0.222-2.745,0.232-4.118c0.03-4.436,0.013-8.872,0.01-13.308c-0.001-0.765,0.075-1.547-0.054-2.291
		c-1.427-8.203-0.613-16.48-0.87-24.721c-0.066-2.131-0.397-4.253-0.52-6.385c-0.149-2.589-0.263-5.184-0.262-7.776
		c0-0.66,0.491-1.319,0.831-2.164c0.8,0.394,1.426,0.55,1.838,0.934c1.452,1.357,2.911,2.722,4.221,4.213
		c3.425,3.902,6.847,7.812,10.134,11.829c5.612,6.859,11.127,13.799,16.668,20.715c1.625,2.028,3.197,4.097,4.807,6.137
		c0.282,0.358,0.621,0.676,0.96,0.984c1.138,1.032,2.381,0.831,2.996-0.477c0.13-0.276,0.254-0.557,0.352-0.846
		c1.775-5.209,3.557-10.415,5.313-15.63c2.441-7.248,5.248-14.343,8.218-21.399c3.917-9.305,8.467-18.302,12.585-27.504
		c3.665-8.189,10.02-12.032,18.963-11.664c1.653,2.892,1.871,6.104,1.996,9.313c0.352,9.006-1.645,17.613-4.615,26.033
		c-1.068,3.027-2.234,6.021-3.419,9.005c-3.73,9.398-6.78,19.009-9.011,28.869c-2.767,12.227-5.382,24.488-8.233,36.695
		c-0.855,3.662-0.352,6.761,1.537,10.039c7.177,12.46,13.665,25.282,19.411,38.459c0.191,0.148,0.399,0.29,0.616,0.416l0.054,0.053
		c1.675,4.206,3.29,8.437,5.059,12.604c0.58,1.366,1.556,2.564,2.351,3.839c0.132,3.307,1.846,6.122,2.859,9.154
		c2.955,8.847,6.126,17.629,8.807,26.557c2.77,9.223,5.241,18.545,7.51,27.905c1.763,7.276,3.088,14.661,4.472,22.024
		c1.724,9.163,3.211,18.364,3.997,27.666c0.205,2.433,0.591,4.852,0.942,7.271c0.264,1.819,1.418,2.409,2.897,1.502
		c0.65-0.399,1.26-0.87,1.857-1.346c2.87-2.284,5.743-4.565,8.59-6.877c6.789-5.512,12.889-11.714,18.496-18.415
		c2.255-2.695,4.6-5.315,6.88-7.989c4.659-5.463,9.304-10.938,13.951-16.411c3.089-3.638,6.36-7.106,10.834-9.023
		c2.185-0.936,3.97-2.264,5.536-3.967c2.952-3.21,6.533-4.986,10.957-4.89c3.612,4.816,4.952,10.414,5.397,16.253
		c0.569,7.466-0.917,14.614-4.111,21.347c-1.762,3.714-3.745,7.35-5.932,10.831c-9.931,15.801-21.154,30.631-33.612,44.543
		c-6.516,7.276-12.832,14.733-19.146,22.186c-5.243,6.189-9.757,12.9-13.796,19.932c-0.53,0.923-1.149,1.795-1.727,2.691
		c-3.29-0.099-5.15,1.666-5.782,4.712c-0.585,2.822-1.023,5.683-1.358,8.546c-0.583,4.98-1.104,9.969-1.526,14.965
		c-0.473,5.6-1.675,11.145-1.315,16.81c-0.609,2.193-1.349,4.36-1.805,6.584c-1.718,8.383-3.119,16.838-5.065,25.166
		c-2.086,8.925-4.497,17.782-7.049,26.588c-2.934,10.125-6.165,20.165-10.026,29.987c-2.181,5.547-4.405,11.077-6.614,16.613
		c-3.119,7.815-6.515,15.506-10.45,22.948c-0.707,1.337-1.399,2.849-2.52,3.765c-2.126,1.738-3.347,3.983-4.317,6.385
		c-4.023,9.957-9.54,19.144-14.588,28.574c-0.36,0.672-0.778,1.32-1.071,2.019c-0.471,1.124-0.069,2.265,1.041,2.65
		c1.44,0.498,2.922,0.916,4.417,1.205c9.625,1.86,19.305,2.997,29.147,2.942c7.656-0.043,15.319-0.026,22.871-1.241
		c7.998-1.286,15.941-2.949,23.632-5.63c5.203-1.813,10.483-2.269,15.671,0.075c1.981,0.896,3.849,0.796,5.757-0.034
		c4.325-1.882,8.816-2.338,13.452-1.615c0.581,0.311,1.161,0.621,1.742,0.932c-0.584,1.563-1.043,3.188-1.772,4.68
		c-4.429,9.069-10.806,16.594-18.539,23.011c-11.173,9.272-23.785,16.027-37.345,21.052c-16.012,5.934-32.557,9.357-49.626,10.259
		c-9.914,0.524-19.823,1.147-29.732,1.764c-3.044,0.19-6.08,0.507-9.12,0.765c-1.042-0.759-1.948-0.675-2.687,0.435
		c-1.65,0.327-3.301,0.654-4.953,0.979c-0.405-0.211-0.795-0.451-1.213-0.624c-5.376-2.229-6.881-2.049-10.856,2.139
		c-3.639,3.834-7.03,7.903-10.531,11.868c-1.377,1.204-2.797,2.365-4.125,3.621c-6.551,6.194-13.079,12.414-19.615,18.624
		c-0.222,0.211-0.451,0.414-0.686,0.61c-5.17,4.294-10.271,8.674-15.53,12.856c-5.979,4.755-12.056,9.391-18.176,13.965
		c-3.056,2.284-6.319,4.29-9.46,6.463c-3.895,2.695-7.655,5.598-11.658,8.119c-8.797,5.539-17.616,11.038-26.808,15.937
		c-8.631,4.6-17.128,9.415-26.071,13.443c-10.601,4.775-21.172,9.604-32.088,13.615c-8.183,3.008-16.434,5.833-24.673,8.687
		c-2.31,0.8-4.705,1.354-7.017,2.149c-0.802,0.276-1.471,0.939-2.293,1.487c0.31,2.545,1.47,4.557,2.705,6.436
		c4.616,7.024,9.244,14.046,14.081,20.919c6.091,8.655,13.837,15.896,21.007,23.602c6.966,7.487,14.404,14.54,22.006,21.43
		c8.219,7.449,16.823,14.167,26.829,19.019c1.508,0.731,2.933,1.644,4.36,2.531c8.046,5.002,9.755,17.523,2.126,24.143
		c-1.249,1.084-2.264,2.437-3.386,3.666c-0.063,0.273-0.117,0.547-0.163,0.823c-4.852-0.932-9.32-2.948-13.773-4.969
		c-10.07-4.571-19.448-10.358-28.452-16.721c-12.117-8.563-24.126-17.281-36.114-26.026c-8.202-5.983-15.315-13.137-21.788-20.931
		c-10.846-13.059-21.669-26.138-32.501-39.209c-0.195-0.236-0.411-0.458-0.579-0.711c-1.929-2.898-4.481-3.588-7.932-3.014
		c-8.448,1.405-16.938,2.601-25.444,3.596c-14.14,1.654-28.337,2.588-42.582,2.662c-1.836,0.01-3.671,0.091-5.506,0.138
		C594.848,1023.158,588.671,1023.09,582.495,1023.023z"/>
	<path fill="#F5D67B" d="M338.436,207.883c-1.045,1.092-1.975,2.332-3.156,3.25c-4.35,3.382-8.847,6.576-13.159,10.003
		c-2.462,1.957-5.109,2.588-8.144,2.215c-4.25-0.523-8.499-1.103-12.766-1.422c-3.964-0.297-7.953-0.251-11.928-0.418
		c-2.748-0.116-5.49-0.402-8.239-0.496c-3.056-0.105-6.119-0.171-9.175-0.087c-4.125,0.113-8.245,0.544-12.368,0.551
		c-6.118,0.011-12.236-0.245-18.354-0.351c-1.063-0.018-2.132,0.111-3.192,0.227c-2.376,0.261-3.917,1.546-4.652,3.829
		c-3.515,10.92-8.509,21.344-11.145,32.549c-1.716,7.291-3.099,14.664-4.512,22.023c-1.586,8.261-3.033,16.549-4.547,24.824
		c-1.141,6.238-1.159,12.476,0.046,18.703c0.929,4.799,1.882,9.594,2.914,14.371c0.245,1.132,0.168,2.096-0.411,3.066
		c-0.549,0.92-1.055,1.865-1.603,2.785c-5.955,9.993-11.568,20.173-16.683,30.623c-0.404,0.825-0.838,1.635-1.221,2.469
		c-1.141,2.487-2.968,4.107-5.553,5.148c-8.518,3.432-16.963,7.046-25.457,10.539c-8.068,3.319-16.244,6.389-24.221,9.91
		c-7.974,3.52-15.822,7.343-23.612,11.258c-7.383,3.71-14.628,7.697-21.916,11.595c-1.752,0.937-3.447,1.981-5.143,3.017
		c-1.358,0.83-1.735,2.04-1.267,3.558c1.125,3.655,2.287,7.301,3.322,10.982c1.324,4.709,2.553,9.446,3.796,14.178
		c1.775,6.757,1.612,13.653,1.249,20.531c-0.128,2.421-0.841,4.812-1.288,7.217c-0.694-0.811-1.491-1.555-2.063-2.444
		c-9.033-14.043-17.653-28.327-24.032-43.81c-1.741-4.225-3.111-8.647-4.175-13.092c-1.157-4.835-0.912-9.71,1.178-14.385
		c1.611-3.605,3.92-6.617,7.371-8.54c2.932-1.634,5.936-3.233,9.079-4.379c18.284-6.664,36.146-14.323,53.933-22.194
		c9.515-4.211,19.237-7.962,28.9-11.833c10.09-4.042,20.223-7.977,30.335-11.967c0.71-0.28,1.41-0.598,2.084-0.954
		c1.027-0.543,1.629-1.443,1.634-2.586c0.007-1.524-0.034-3.063-0.235-4.572c-0.952-7.126-2.141-14.225-2.919-21.369
		c-1.44-13.228-2.789-26.463-2.511-39.816c0.193-9.252,1.79-18.256,4.014-27.18c2.598-10.423,5.922-20.583,11.216-30.011
		c5.155-9.18,11.624-17.229,20.045-23.643c4.699-3.579,9.902-6.177,15.646-7.439c4.469-0.983,9.031-1.649,13.587-2.117
		c18.288-1.877,35.982,1.631,53.537,6.185c7.121,1.847,14.141,4.027,20.899,6.962C335.248,206.071,336.819,207.031,338.436,207.883z
		"/>
	<path fill="#F18C3F" d="M387.772,989.403c-0.021-4.433-0.048-8.867-0.059-13.3c-0.002-0.763,0.012-1.534,0.112-2.288
		c0.297-2.235,1.457-2.965,3.487-2.143c1.557,0.631,3.038,1.452,4.605,2.055c1.36,0.524,2.413-0.18,2.649-1.637
		c0.097-0.601,0.128-1.216,0.143-1.826c0.196-7.767,2.008-15.101,5.69-21.981c1.149-2.148,2.021-4.447,2.963-6.701
		c2.511-6.009,5.96-11.267,11.163-15.388c2.88-2.28,5.798-4.446,8.872-6.457c5.82-3.806,12.195-4.813,18.896-3.964
		c5.605,0.71,9.965,3.688,13.139,8.35c2.991,4.392,4.266,9.412,5.37,14.522c1.71,7.919-0.378,15.102-3.963,22.042
		c-3.391,6.564-7.694,12.552-12.79,17.816c-3.579,3.697-7.945,6.658-12.085,9.78c-2.208,1.665-4.709,1.953-7.356,0.646
		c-1.773-0.875-3.68-1.506-5.573-2.101c-1.291-0.406-2.535,0.35-2.825,1.648c-0.23,1.033-0.292,2.113-0.34,3.176
		c-0.398,8.747,0.372,17.377,2.256,25.945c1.542,7.012,2.786,14.091,4.09,21.154c1.894,10.258,4.879,20.182,8.705,29.886
		c3.089,7.836,6.438,15.554,10.552,22.89c2.76,4.921,5.884,9.669,9.183,14.252c4.639,6.444,9.458,12.772,14.451,18.947
		c4.609,5.701,9.578,11.106,14.905,16.168c2.236,2.125,4.162,4.49,4.949,7.58c-1.313,0.379-2.604,0.942-3.944,1.105
		c-12.687,1.545-24.348-1.128-34.821-8.597c-5.911-4.216-10.885-9.395-15.414-15.011c-7.43-9.213-13.427-19.357-19.01-29.75
		c-6.31-11.747-11.927-23.802-16.026-36.526c-3.349-10.394-5.199-21.081-6.448-31.892c-1.283-11.105-2.025-22.243-2.049-33.428
		c-0.003-1.63,0.358-3.373-0.941-5.093C389.538,989.319,388.655,989.361,387.772,989.403z"/>
	<path fill="#F4A03F" d="M1129.39,459.211c-4.424-0.096-8.005,1.68-10.957,4.89c-1.566,1.703-3.352,3.031-5.536,3.967
		c-4.474,1.916-7.745,5.385-10.834,9.023c-4.647,5.473-9.292,10.948-13.951,16.411c-2.28,2.674-4.625,5.294-6.88,7.989
		c-5.607,6.701-11.707,12.904-18.496,18.415c-2.847,2.312-5.72,4.592-8.59,6.877c-0.598,0.476-1.207,0.947-1.857,1.346
		c-1.478,0.906-2.633,0.317-2.897-1.502c-0.351-2.419-0.736-4.838-0.942-7.271c-0.786-9.303-2.273-18.504-3.997-27.666
		c-1.385-7.362-2.709-14.748-4.472-22.024c-2.268-9.36-4.74-18.682-7.51-27.905c-2.682-8.929-5.853-17.71-8.807-26.557
		c-1.013-3.033-2.727-5.847-2.859-9.154c3.123,0.693,6.328,1.138,9.355,2.126c7.846,2.561,15.671,5.212,23.396,8.112
		c6.435,2.416,12.843,4.973,19.04,7.934c12.411,5.929,24.766,12.006,36.319,19.532c4.732,3.083,9.279,6.449,13.967,9.603
		c1.37,0.922,2.934,1.557,4.41,2.323C1127.99,456.856,1128.69,458.033,1129.39,459.211z"/>
	<path fill="#F4C141" d="M924.332,886.267c3.501-3.965,6.892-8.034,10.531-11.868c3.975-4.188,5.48-4.368,10.856-2.139
		c0.418,0.173,0.808,0.413,1.213,0.624c-3.009,3.051-5.934,6.189-9.058,9.117c-2.171,2.036-3.195,4.407-3.218,7.313
		c-0.007,0.917-0.127,1.832-0.156,2.749c-0.426,13.768-1.59,27.485-2.724,41.209c-2.273,27.492-6.663,54.663-12.153,81.668
		c-4.341,21.357-10.692,42.133-19.251,62.169c-6.572,15.384-16.098,28.872-28.62,40.027c-9.891,8.811-21.536,13.986-34.915,14.584
		c-7.228,0.323-14.359-0.5-21.141-3.307c0.044-0.276,0.099-0.551,0.161-0.823c2.428-0.268,4.857-0.528,7.284-0.812
		c1.365-0.16,2.743-0.272,4.084-0.554c7.547-1.586,13.968-5.27,19.535-10.543c5.027-4.762,9.315-10.156,13.101-15.905
		c3.107-4.718,5.913-9.651,8.601-14.624c3.781-6.996,7.6-13.993,10.919-21.211c6.73-14.635,11.491-30.002,15.68-45.512
		c5.505-20.386,9.925-41.031,13.609-61.828c1.653-9.333,3.036-18.691,3.816-28.151c0.45-5.46,1.099-10.935,3.232-16.12
		c1.861-4.523,3.492-9.145,5.116-13.762C922.249,894.545,924.151,890.646,924.332,886.267z"/>
	<path fill="#F5D67B" d="M161.395,715.84c1.89-4.49,3.67-9.036,6.274-12.991c1.198-0.296,1.664,0.322,1.972,1.032
		c0.425,0.978,0.799,1.986,1.104,3.008c3.147,10.556,6.915,20.896,10.944,31.141c2.891,7.351,2.837,8.426-0.518,15.682
		c-3.404,7.362-6.147,14.969-8.558,22.723c-4.999,16.075-8.71,32.479-12.8,48.786c-0.929,3.704-1.609,7.47-2.369,11.215
		c-0.589,2.903-0.449,5.807,0.439,8.617c1.796,5.682,3.68,11.336,5.551,16.995c2.023,6.118,4.871,11.871,7.811,17.586
		c0.627,1.218,1.093,2.519,1.635,3.782c-0.894-0.165-1.846-0.19-2.677-0.519c-10.352-4.093-19.096-10.23-24.858-19.999
		c-3.703-6.278-5.603-13.179-6.563-20.349c-1.262-9.424-1.114-18.859-0.305-28.321c0.923-10.798,1.889-21.584,3.714-32.277
		c2.421-14.189,6.202-28.016,11.251-41.482c2.517-6.714,5.359-13.307,8.137-19.92C162.28,718.879,162.61,717.367,161.395,715.84z"/>
	<path fill="#F5D67B" d="M150.265,569.177c0.107,3.66,0.237,7.32,0.316,10.981c0.126,5.798,0.089,11.586,0.716,17.381
		c0.857,7.92,0.641,7.91-5.025,13.663c-7.305,7.417-13.893,15.449-19.737,24.049c-6.524,9.602-12.805,19.369-19.188,29.067
		c-0.335,0.51-0.806,1.016-0.901,1.576c-0.117,0.694-0.037,1.489,0.201,2.154c0.193,0.538,0.728,0.963,1.142,1.41
		c3.317,3.587,6.661,7.15,9.952,10.76c1.2,1.316,2.999,2.557,2.092,4.671c-0.76,1.772-2.72,1.739-4.341,2.078
		c-5.618,1.176-11.226,0.885-16.845-0.054c-1.327-0.222-2.706-0.129-4.063-0.183c-2.001-0.987-3.27-2.74-4.513-4.461
		c-6.538-9.052-8.74-19.007-6.041-29.928c1.81-7.322,4.928-14.106,8.659-20.621c4.869-8.505,10.744-16.312,16.871-23.931
		c8.048-10.009,16.585-19.577,26.543-27.751C140.7,576.266,145.537,572.788,150.265,569.177z"/>
	<path fill="#F4C141" d="M1100.706,809.939c-0.581-0.311-1.161-0.621-1.743-0.931c-0.851-1.248-1.579-2.606-2.578-3.721
		c-1.631-1.821-3.513-3.417-5.142-5.24c-1-1.119-1.921-2.395-2.529-3.756c-1.12-2.51-2.025-5.119-2.944-7.712
		c-5.577-15.727-10.262-31.728-14.316-47.904c-4.536-18.1-9.36-36.118-14.456-54.067c-3.887-13.689-7.394-27.467-9.567-41.553
		c-0.159-1.034-0.626-2.02-0.949-3.028c-0.36-5.665,0.843-11.21,1.315-16.81c0.421-4.996,0.943-9.985,1.526-14.965
		c0.335-2.863,0.773-5.724,1.358-8.546c0.632-3.047,2.492-4.811,5.782-4.712c-0.645,1.711-1.213,3.456-1.946,5.128
		c-6.008,13.709-6.491,27.639-1.056,41.54c3.562,9.109,7.625,18.036,11.776,26.899c5.776,12.331,11.871,24.513,17.779,36.783
		c4.581,9.514,9.037,19.087,12.764,28.976c4.057,10.764,7.331,21.742,8.996,33.158c1.675,11.482,1.498,22.88-1.509,34.146
		C1102.681,805.82,1102.267,808.121,1100.706,809.939z"/>
	<path fill="#F4C141" d="M1008.735,220.645c-13.548,3.766-27.143,7.375-40.633,11.339c-16.283,4.784-32.427,10.022-47.966,16.918
		c-2.803,1.244-4.981,0.96-6.961-1.317c-0.4-0.46-0.851-0.879-1.3-1.293c-5.609-5.175-11.226-10.341-16.828-15.523
		c-0.539-0.498-0.988-1.093-1.495-1.661c1.158-2.314,2.328-4.431,3.291-6.637c1.004-2.298,0.831-4.789,0.808-7.234
		c1.645-0.246,3.285-0.658,4.937-0.713c11.14-0.368,22.205-1.619,33.292-2.64c11.39-1.049,22.793-1.972,34.203-2.775
		c5.786-0.407,11.589-0.21,17.351,0.643c6.759,1.001,13.004,3.26,18.45,7.473C1007.075,218.146,1008.424,218.974,1008.735,220.645z"
		/>
	<path fill="#F5D67B" d="M512.869,51.09c-0.278,2.115-1.678,3.534-3.051,4.989c-3.88,4.111-7.84,8.152-11.574,12.393
		c-6.469,7.349-12.57,15.003-17.616,23.419c-4.086,6.815-8.201,13.623-11.964,20.617c-4.346,8.078-8.12,16.448-11.368,25.038
		c-1.189,3.144-2.316,6.314-3.364,9.508c-0.519,1.58-1.434,2.692-2.971,3.245c-6.614,2.381-13.238,4.736-19.858,7.102
		c0.294-1.34,0.495-2.709,0.896-4.016c5.25-17.106,10.593-34.181,17.383-50.761c3.483-8.504,7.389-16.787,12.352-24.556
		c4.066-6.364,8.864-12.102,14.533-17.06c8.781-7.679,19.031-11.5,30.76-10.957C508.986,50.142,510.922,50.731,512.869,51.09z"/>
	<path fill="#F4C141" d="M582.495,1023.023c6.176,0.067,12.353,0.135,18.528,0.203c-13.434,26.042-30.301,49.844-47.878,73.175
		c-9.126,12.114-19.371,23.23-30.543,33.491c-4.627,4.25-9.558,8.119-14.974,11.312c-2.759,1.627-5.641,3.06-8.538,4.432
		c-1.215,0.576-2.611,0.768-3.926,1.134c0.345-0.676,0.573-1.453,1.055-2.01c2.691-3.114,5.492-6.133,8.164-9.263
		c4.057-4.754,8.145-9.487,12.021-14.386c4.069-5.142,7.868-10.497,11.853-15.707c4.356-5.694,8.916-11.236,13.163-17.009
		c6.596-8.966,13.203-17.937,19.432-27.157c5.893-8.723,11.142-17.864,15.951-27.244
		C578.684,1030.328,580.597,1026.679,582.495,1023.023z"/>
	<path fill="#F18C3F" d="M859.478,202.284c-4.082-1.16-7.196-3.938-10.452-6.42c-0.874-0.666-1.394-2.01-1.718-3.145
		c-1.466-5.144-2.316-10.4-3.009-15.713c-1.41-10.81-0.474-21.654-0.899-32.47c-0.377-9.624-1.516-19.171-4.641-28.354
		c-2.167-6.368-4.047-12.806-5.629-19.345c-1.36-5.621-0.79-10.886,2.149-15.901c0.766-1.307,1.316-2.739,1.966-4.115
		c4.095,1.438,6.807,4.603,9.465,7.756c3.096,3.673,5.201,7.915,6.48,12.553c1.184,4.296,1.899,8.669,2.074,13.12
		c0.349,8.866,0.772,17.731,0.964,26.601c0.259,11.931,0.319,23.865,0.481,35.798c0.098,7.191,0.166,14.387,1.334,21.511
		C858.489,196.874,858.998,199.577,859.478,202.284z"/>
	<path fill="#F4C141" d="M1127.29,455.679c-1.475-0.766-3.039-1.401-4.41-2.323c-4.688-3.154-9.234-6.52-13.967-9.603
		c-11.553-7.525-23.909-13.602-36.319-19.532c-6.197-2.961-12.605-5.518-19.04-7.934c-7.726-2.901-15.55-5.551-23.396-8.112
		c-3.027-0.988-6.232-1.433-9.355-2.126c-0.795-1.275-1.771-2.473-2.351-3.839c-1.768-4.167-3.384-8.398-5.059-12.604
		c1.461,0.404,2.945,0.741,4.38,1.224c5.364,1.805,10.694,3.712,16.068,5.484c22.623,7.46,44.343,16.853,64.12,30.287
		c5.176,3.516,10.152,7.378,14.911,11.442c5.13,4.381,9.371,9.644,13.226,15.185C1126.611,453.964,1126.898,454.858,1127.29,455.679
		z"/>
	<path fill="#F4C141" d="M951.885,871.906c0.739-1.11,1.645-1.194,2.687-0.435C953.676,871.616,952.781,871.761,951.885,871.906z"/>
	<path fill="#F4C141" d="M1013.34,389.553c-0.218-0.126-0.425-0.268-0.616-0.416C1012.963,389.237,1013.167,389.373,1013.34,389.553
		z"/>
	<path fill="#F5D67B" d="M345.734,349.975c-0.42,4.101-0.851,8.201-1.256,12.304c-0.601,6.083-1.058,12.182-1.797,18.248
		c-1.809,14.849-6.106,28.996-12.197,42.641c-3.821,8.56-8.524,16.601-13.936,24.227c-4.804,6.769-10.38,12.831-17.028,17.878
		c-4.062,3.084-8.492,5.497-13.201,7.35c-7.207,2.837-14.606,3.176-22.076,1.049c-6.592-1.878-11.88-5.683-15.65-11.354
		c-1.934-2.91-3.728-6.044-4.859-9.327c-2.04-5.917-3.872-11.95-5.161-18.067c-1.224-5.807-1.472-11.705-0.98-17.761
		c1.402-17.248,6.758-33.221,14.526-48.476c5.734-11.261,13.045-21.449,22.495-29.931c6.056-5.436,12.622-10.195,20.334-13.122
		c3.435-1.304,6.878-2.585,10.309-3.899c6.024-2.308,12.341-2.767,18.564-1.79c9.703,1.523,16.273,7.381,19.88,16.448
		C345.322,340.465,345.534,343.323,345.734,349.975z"/>
	<path fill="#F4A03F" d="M327.629,656.645c0.352-11.77,3.475-22.595,9.264-32.811c2.886-5.092,6.188-9.844,9.819-14.365
		c4.538-5.651,9.755-10.488,16.868-12.966c2.546-0.887,4.824-2.614,7.131-4.101c3.732-2.405,7.437-4.832,11.608-6.448
		c6.262-2.427,12.682-3.379,19.349-2.191c0.602,0.107,1.208,0.284,1.811,0.281c6.125-0.032,11.698,1.927,17.157,4.496
		c5.228,2.46,9.607,5.936,13.263,10.353c2.284,2.76,3.686,5.992,4.542,9.434c1.404,5.643,2.242,11.372,2.571,17.191
		c0.451,7.974-1.609,15.474-4.231,22.838c-2.787,7.825-6.72,15.061-11.935,21.58c-4.317,5.396-9.263,10.187-14.44,14.707
		c-5.424,4.735-11.434,8.705-17.865,11.984c-2.585,1.318-5.165,2.714-7.885,3.69c-9.107,3.268-18.259,3.585-27.289-0.322
		c-3.974-1.72-7.274-4.393-10.229-7.57c-1.649-1.773-3.521-3.394-5.498-4.795c-7.021-4.974-10.686-12.065-12.643-20.117
		C328.14,663.988,328.061,660.274,327.629,656.645z"/>
	<path fill="#F4A03F" d="M536.579,243.744c0.118,7.819-2.032,14.333-4.969,20.599c-2.997,6.393-6.971,12.13-11.631,17.491
		c-8.185,9.415-18.07,16.388-29.401,21.358c-7.719,3.386-15.7,6.14-24.122,7.113c-8.538,0.986-16.861,0.053-24.304-4.664
		c-7.688-4.873-12.686-11.796-14.857-20.682c-1.555-6.363-1.104-12.709-0.047-19.104c1.631-9.87,5.339-18.737,11.792-26.459
		c5.602-6.704,11.402-13.287,18.584-18.259c8.368-5.793,17.615-9.811,27.973-10.662c1.216-0.1,2.416-0.387,3.631-0.501
		c1.517-0.141,3.061-0.389,4.562-0.25c8.899,0.82,17.425,3.22,25.754,6.355c2.924,1.1,5.17,3.199,7.329,5.4
		c3.817,3.892,6.399,8.559,8.379,13.551C536.442,238.033,536.753,241.259,536.579,243.744z"/>
	<path fill="#F4A03F" d="M635.021,430.898c-8.095-0.279-13.991-3.871-18.45-10.087c-4.07-5.674-5.871-11.965-5.637-18.95
		c0.097-2.876-0.419-5.77-0.593-8.66c-0.119-1.978-0.388-3.995-0.142-5.938c0.826-6.512,1.711-13.012,4.087-19.222
		c2.492-6.512,5.806-12.389,11.003-17.203c6.472-5.995,16.385-8.495,25.993-3.773c7.465,3.669,12.467,9.599,15.259,17.495
		c2.015,5.697,2.866,11.61,3.063,17.529c0.14,4.21-0.968,8.462-1.535,12.694c-0.912,6.805-3.927,12.782-7.174,18.715
		c-2.55,4.659-6.08,8.456-10.034,11.81C646.277,429.196,640.655,430.652,635.021,430.898z"/>
	<path fill="#F4A03F" d="M395.968,846.548c0.426,7.23-2.835,13.45-7.459,18.887c-4.443,5.223-9.313,10.094-15.322,13.677
		c-5.622,3.351-11.676,5.253-18.108,6.115c-0.753,0.101-1.534,0.133-2.289,0.061c-5.694-0.548-11.153-1.918-15.978-5.116
		c-5.463-3.622-8.236-8.86-8.804-15.322c-0.5-5.703,1.106-10.932,3.973-15.739c6.574-11.021,15.921-18.826,28.009-23.196
		c6.93-2.505,14.094-3.003,21.186-0.868c8.547,2.573,14.691,10.285,14.79,18.923C395.975,844.731,395.968,845.495,395.968,846.548z"
		/>
	<path fill="#F4A03F" d="M625.673,609.592c-0.256,8-3.345,15.716-8.895,22.344c-2.829,3.378-6.045,6.453-9.662,9.097
		c-5.443,3.979-11.493,6.455-18.113,7.217c-6.651,0.765-12.89-0.633-17.548-5.879c-2.855-3.216-4.773-6.947-5.578-11.351
		c-1.669-9.126,2.504-24.889,8.106-31.172c5.883-6.599,13.004-11.586,21.518-14.228c3.319-1.029,6.727-1.307,10.379-0.804
		C617.785,586.456,625.513,597.277,625.673,609.592z"/>
	<path fill="#F4A03F" d="M699.182,226.302c0.81,12.28-5.721,20.095-15.394,25.761c-6.231,3.649-12.913,3.6-19.335,0.245
		c-4.327-2.26-7.413-5.852-9.415-10.316c-1.951-4.35-3.012-8.908-3.842-13.621c-0.855-4.859-0.082-9.42,0.89-14.045
		c1.006-4.787,3.15-9.147,7.149-11.954c6.461-4.536,13.358-8.095,21.782-5.823c4.993,1.346,8.787,4.301,11.644,8.414
		C697.137,211.403,699.668,218.514,699.182,226.302z"/>
	<path fill="#F5D67B" d="M452.865,406.034c-0.172-3.066,0.577-6.153,1.944-9.114c0.512-1.109,1.072-2.204,1.487-3.349
		c2.111-5.835,6.197-10.159,10.962-13.817c9.959-7.646,22.969-5.229,30.054,3.341c3.863,4.673,5.355,10.079,4.672,16.221
		c-1.321,11.878-13.601,23.528-25.328,25.191c-3.542,0.503-6.931,0.583-10.412-0.387
		C458.145,421.864,452.291,415.216,452.865,406.034z"/>
	<path fill="#F5D67B" d="M237.014,570.736c0.046,8.461-2.278,15.289-6.902,21.28c-4.163,5.395-10.765,7.217-16.798,4.912
		c-2.529-0.966-4.492-2.573-5.849-4.892c-1.483-2.534-2.463-5.25-2.61-8.209c-0.083-1.675,0.015-3.362-0.122-5.03
		c-0.211-2.572-0.299-5.194-0.896-7.686c-1.105-4.609-0.793-9.053,0.566-13.533c0.916-3.017,2.616-5.42,4.858-7.606
		c4.869-4.748,14.856-4.707,19.754,0c3.055,2.936,5.351,6.189,6.383,10.347C236.321,564.033,237.25,567.725,237.014,570.736z"/>
	<path fill="#F18C3F" d="M876.747,392.343c-8.511,0.167-15.806-2.864-22.456-7.992c-6.014-4.637-10.713-10.438-15.128-16.474
		c-4.69-6.412-9.189-12.982-12.816-20.077c-6.302-12.327-11.009-25.203-13.073-38.953c-0.385-2.566-0.809-5.144-0.923-7.73
		c-0.329-7.473,1.149-14.574,4.717-21.209c2.226-4.139,5.83-6.589,10.009-8.339c3.101-1.299,6.201-2.624,9.38-3.709
		c4.362-1.488,8.828-2.096,13.502-1.651c6.581,0.627,12.361,3.165,17.961,6.444c4.76,2.787,9.414,5.711,13.699,9.187
		c5.954,4.831,11.385,10.147,15.847,16.447c5.442,7.684,9.657,15.951,12.182,25.008c1.145,4.107,1.864,8.345,2.565,12.559
		c0.297,1.784,0.333,3.714-0.009,5.482c-0.939,4.858-0.602,9.748-0.788,14.628c-0.271,7.122-1.883,13.914-5.688,20.046
		C899.062,386.752,889.342,392.105,876.747,392.343z"/>
	<path fill="#F18C3F" d="M617.576,809.01c7.897,0.231,14.363,1.835,20.342,5.213c4.398,2.485,8.452,5.4,12.315,8.718
		c10.134,8.704,17.727,19.333,24.125,30.869c3.498,6.307,5.416,13.189,6.671,20.354c1.48,8.45,0.338,16.562-2.528,24.326
		c-4.262,11.545-12.403,19.313-24.446,22.951c-9.537,2.881-18.444,1.159-27.206-2.693c-5.954-2.618-11.04-6.607-15.771-10.928
		c-9.208-8.41-16.711-18.232-22.745-29.149c-1.548-2.801-2.911-5.703-4.383-8.545c-2.012-3.885-2.464-8.165-3.147-12.382
		c-0.145-0.898-0.207-1.844-0.101-2.743c0.861-7.325,2.162-14.536,6.33-20.847c0.918-1.39,2.065-2.648,3.226-3.851
		c1.497-1.551,2.726-3.201,3.685-5.181c3.705-7.656,9.365-13.16,17.885-15.174C614.043,809.423,616.328,809.208,617.576,809.01z"/>
	<path fill="#F18C3F" d="M761.152,566.705c-6.08,0.588-11.011-2.08-15.466-6.217c-3.107-2.885-5.297-6.302-6.88-10.148
		c-1.636-3.974-1.386-8.111-0.443-12.156c0.655-2.812,1.633-5.585,2.779-8.241c2.686-6.228,7.069-11.093,12.974-14.379
		c8.496-4.728,19.629-2.534,25.515,3.41c3.044,3.074,5.65,6.253,7.187,10.437c2.487,6.771,1.76,13.371-0.924,19.648
		c-2.414,5.647-6.272,10.447-11.594,13.881C770.337,565.494,766.141,567.096,761.152,566.705z"/>
	<path fill="#F4A03F" d="M924.332,886.267c-0.18,4.38-2.083,8.278-3.498,12.303c-1.624,4.616-3.255,9.238-5.116,13.762
		c-2.134,5.185-2.782,10.66-3.232,16.12c-0.78,9.46-2.163,18.818-3.816,28.151c-3.683,20.797-8.103,41.442-13.609,61.828
		c-4.188,15.51-8.95,30.876-15.68,45.512c-3.319,7.218-7.138,14.215-10.919,21.211c-2.688,4.973-5.494,9.906-8.601,14.624
		c-3.786,5.749-8.074,11.143-13.101,15.905c-5.566,5.273-11.987,8.957-19.535,10.543c-1.341,0.282-2.72,0.394-4.084,0.554
		c-2.426,0.283-4.856,0.543-7.284,0.812c1.123-1.23,2.138-2.583,3.387-3.667c7.629-6.621,5.92-19.141-2.126-24.143
		c-1.427-0.887-2.852-1.8-4.36-2.531c-10.006-4.852-18.609-11.57-26.829-19.019c-7.602-6.89-15.04-13.943-22.006-21.43
		c-7.169-7.706-14.916-14.947-21.007-23.602c-4.837-6.873-9.464-13.895-14.081-20.919c-1.235-1.879-2.395-3.891-2.705-6.436
		c0.822-0.548,1.49-1.211,2.293-1.487c2.312-0.795,4.707-1.349,7.017-2.149c8.239-2.854,16.49-5.68,24.673-8.687
		c10.916-4.012,21.487-8.841,32.088-13.615c8.943-4.028,17.44-8.843,26.071-13.443c9.192-4.899,18.011-10.398,26.808-15.937
		c4.003-2.52,7.764-5.424,11.658-8.119c3.141-2.173,6.403-4.179,9.46-6.463c6.12-4.573,12.197-9.209,18.176-13.965
		c5.259-4.182,10.36-8.562,15.53-12.856c0.235-0.195,0.464-0.399,0.686-0.61c6.537-6.21,13.064-12.43,19.615-18.624
		C921.535,888.631,922.954,887.471,924.332,886.267z"/>
	<path fill="#F4A03F" d="M1046.482,642.026c0.324,1.008,0.79,1.995,0.949,3.028c2.172,14.086,5.68,27.864,9.567,41.553
		c5.096,17.949,9.92,35.967,14.456,54.067c4.054,16.175,8.739,32.177,14.316,47.904c0.92,2.594,1.825,5.203,2.944,7.712
		c0.607,1.361,1.529,2.638,2.529,3.756c1.629,1.823,3.511,3.419,5.142,5.24c0.999,1.116,1.727,2.474,2.578,3.722
		c-4.635-0.724-9.127-0.267-13.451,1.614c-1.907,0.83-3.775,0.929-5.757,0.034c-5.188-2.345-10.468-1.889-15.671-0.075
		c-7.691,2.681-15.635,4.343-23.632,5.63c-7.552,1.214-15.215,1.198-22.871,1.241c-9.842,0.055-19.522-1.082-29.147-2.942
		c-1.495-0.289-2.977-0.707-4.417-1.205c-1.111-0.384-1.513-1.526-1.041-2.65c0.293-0.7,0.711-1.347,1.071-2.019
		c5.048-9.43,10.566-18.617,14.588-28.574c0.97-2.402,2.191-4.647,4.317-6.385c1.121-0.916,1.813-2.428,2.52-3.765
		c3.935-7.442,7.331-15.133,10.45-22.948c2.209-5.536,4.434-11.066,6.614-16.613c3.861-9.822,7.092-19.862,10.026-29.987
		c2.552-8.805,4.964-17.663,7.049-26.588c1.946-8.328,3.347-16.783,5.065-25.166C1045.133,646.386,1045.873,644.22,1046.482,642.026
		z"/>
</g>
</svg>
