<?xml version="1.0" encoding="utf-8"?>
<!-- Designed by Vexels.com - 2020 All Rights Reserved - https://vexels.com/terms-and-conditions/  -->
<svg version="1.1" id="Capa_1" xmlns="http://www.w3.org/2000/svg" xmlns:xlink="http://www.w3.org/1999/xlink" x="0px" y="0px"
	 viewBox="0 0 1200 1200" enable-background="new 0 0 1200 1200" xml:space="preserve">
<g>
	<path fill="none" d="M849.81,463.527c0.181,0.671,0.639,1.235,1.229,1.743c-1.234,0.326-2.478,0.619-3.7,0.988
		c1.221-0.369,2.465-0.662,3.7-0.988C850.449,464.762,849.991,464.198,849.81,463.527z"/>
	<path fill="none" d="M725.892,746.203L725.892,746.203c3.522-0.312,7.049-0.578,10.574-0.871
		C732.941,745.625,729.414,745.891,725.892,746.203z"/>
	<path fill="none" d="M899.948,803.713c1.061-0.498,2.123-0.997,3.185-1.496c1.238-0.213,2.494-0.354,3.725-0.594
		c-1.23,0.239-2.487,0.381-3.724,0.594C902.07,802.716,901.009,803.215,899.948,803.713L899.948,803.713z"/>
	<path fill="none" d="M855.171,429.563c0.502-0.087,1.004-0.17,1.503-0.265c0,0,0,0,0,0
		C856.175,429.393,855.673,429.476,855.171,429.563z"/>
	<path fill="none" d="M1075.254,343.977C1075.254,343.977,1075.254,343.977,1075.254,343.977c-0.135,0.227-0.214,0.472-0.239,0.735
		C1075.04,344.449,1075.119,344.204,1075.254,343.977z"/>
	<path fill="none" d="M1081.144,379.621c0.447-0.176,0.889-0.362,1.308-0.589C1082.032,379.259,1081.591,379.445,1081.144,379.621z"
		/>
	<path fill="none" d="M1061.826,522.96c0.096-0.061,0.193-0.122,0.289-0.183C1062.019,522.838,1061.922,522.899,1061.826,522.96
		L1061.826,522.96z"/>
	<path fill="none" d="M1079.279,380.333c0.452-0.182,0.913-0.349,1.371-0.52C1080.191,379.984,1079.73,380.15,1079.279,380.333
		c-0.139,0.239-0.233,0.495-0.283,0.767C1079.045,380.828,1079.139,380.572,1079.279,380.333z"/>
	<path fill="none" d="M1064.047,521.078L1064.047,521.078L1064.047,521.078c0.084-0.663,0.134-1.334,0.204-2.001
		C1064.182,519.744,1064.131,520.416,1064.047,521.078z"/>
	<path fill="none" d="M819.987,139.456c-2.09,0.624-4.21,1.166-6.266,1.89c2.056-0.724,4.176-1.265,6.268-1.89
		c4.59-1.981,9.153-4.03,13.778-5.928C829.141,135.426,824.578,137.475,819.987,139.456z"/>
	<path fill="none" d="M834.264,191.992c-0.856,0.18-1.714,0.359-2.571,0.535C832.55,192.351,833.407,192.172,834.264,191.992z"/>
	<path fill="none" d="M842.5,190.266c0.101,0.011,0.202,0.022,0.303,0.033C842.702,190.288,842.601,190.277,842.5,190.266
		L842.5,190.266z"/>
	<path fill="none" d="M866.316,351.209c-0.617,0.187-1.233,0.381-1.847,0.577C865.083,351.59,865.699,351.396,866.316,351.209z"/>
	<path fill="none" d="M866.624,351.113C866.624,351.113,866.625,351.113,866.624,351.113L866.624,351.113
		c0.037-2.523,0.034-5.048,0.09-7.57C866.658,346.065,866.661,348.59,866.624,351.113z"/>
	<path fill="none" d="M606.305,1033.274c1.849-1.065,3.644-2.233,5.478-3.325c0.979-0.16,1.958-0.321,2.936-0.481l0,0
		c-0.979,0.16-1.958,0.32-2.938,0.481C609.949,1031.042,608.153,1032.21,606.305,1033.274z"/>
	<path fill="none" d="M473.091,1051.764c0.009-0.266-0.008-0.545-0.055-0.84l0,0C473.083,1051.219,473.1,1051.498,473.091,1051.764z
		"/>
	<path fill="none" d="M540.072,1059.144c-3.729-0.375-7.457-0.755-11.183-1.155C532.615,1058.388,536.343,1058.768,540.072,1059.144
		z"/>
	<path fill="none" d="M507.399,1020.741C507.399,1020.741,507.399,1020.741,507.399,1020.741c0.058-1.241,0.681-2.151,1.432-2.991
		C508.08,1018.59,507.457,1019.5,507.399,1020.741z"/>
	<path fill="none" d="M476.987,1051.027c-0.719-0.019-1.438-0.037-2.156-0.056c0.719,0.019,1.438,0.037,2.157,0.056
		c0.195-1.334,0.913-2.332,1.763-3.25C477.901,1048.695,477.183,1049.693,476.987,1051.027z"/>
	<path fill="none" d="M1065.516,520.768c-0.267,0.075-0.544,0.127-0.821,0.179C1064.972,520.895,1065.249,520.844,1065.516,520.768z
		"/>
	<path fill="none" d="M866.827,302.254c-1.204,0.388-2.408,0.775-3.612,1.162c-1.832,0.255-3.671,0.47-5.496,0.772
		c1.825-0.302,3.664-0.517,5.497-0.772C864.419,303.029,865.623,302.642,866.827,302.254L866.827,302.254z"/>
	<path fill="none" d="M663.051,838.028c-1.555,0.117-3.11,0.247-4.664,0.379c1.555-0.132,3.11-0.262,4.665-0.379
		c0.712-1.307,1.297-2.707,2.16-3.906C664.349,835.322,663.764,836.721,663.051,838.028z"/>
	<path fill="none" d="M717.552,747.366c-1.177,0.035-2.358,0.031-3.532,0.112c1.175-0.081,2.355-0.077,3.533-0.112
		c2.779-0.388,5.559-0.775,8.339-1.163C723.112,746.591,720.332,746.978,717.552,747.366z"/>
	<path fill="none" d="M796.468,597.871c2.195-0.314,4.39-0.626,6.585-0.941c0,0,0,0,0,0
		C800.859,597.244,798.664,597.557,796.468,597.871z"/>
	<path fill="none" d="M721.958,960.905L721.958,960.905c-0.755-0.002-1.511-0.014-2.266-0.02
		C720.448,960.891,721.203,960.903,721.958,960.905z"/>
	<path fill="none" d="M844.206,467.348c-4.327,0.907-8.645,1.858-12.976,2.748C835.561,469.206,839.88,468.255,844.206,467.348
		c1.043-0.367,2.075-0.771,3.133-1.09C846.282,466.577,845.25,466.981,844.206,467.348z"/>
	<path fill="none" d="M548.662,957.817c-6.229-0.578-12.458-1.153-18.69-1.708C536.204,956.664,542.433,957.239,548.662,957.817z"/>
	<path fill="none" d="M412.819,1116.667l0.079-0.034C412.899,1116.633,412.862,1116.648,412.819,1116.667z"/>
	<path fill="#A25931" d="M299.633,721.785c27.667,6.048,55.505,11.198,83.511,15.389c23.171,3.467,46.4,6.56,69.753,8.552
		c19.315,1.648,38.627,3.467,57.977,4.544c38.561,2.148,77.159,3.108,115.782,1.807c14.659-0.494,29.325-0.883,43.971-1.655
		c14.476-0.763,28.929-1.953,43.393-2.944c1.175-0.081,2.355-0.077,3.532-0.112c2.78-0.388,5.56-0.775,8.34-1.163l0,0l0,0
		c0.13-1.157,0.462-2.218,0.911-3.22c0.18-0.401,0.379-0.793,0.592-1.178c0.213-0.385,0.439-0.763,0.674-1.136
		c0.82-1.307,1.742-2.558,2.535-3.855c6.749-11.044,13.383-22.152,19.643-33.48c5.284-9.561,10.756-19.023,15.815-28.701
		c8.26-15.8,16.363-31.685,24.312-47.643c4.12-8.271,7.814-16.757,11.582-25.197c0.664-1.488,0.746-3.235,1.098-4.862
		c-2.195,0.315-4.39,0.628-6.585,0.941c-3.296,0.471-6.592,0.943-9.886,1.428c-10.5,1.544-20.974,3.289-31.501,4.62
		c-15.88,2.008-31.775,3.938-47.702,5.519c-14.922,1.481-29.886,2.548-44.843,3.65c-19.168,1.412-38.375,1.976-57.586,2.431
		c-17.53,0.416-35.056,0.56-52.583-0.068c-13.474-0.482-26.958-0.804-40.422-1.478c-23.064-1.154-46.086-2.918-69.015-5.71
		c-14.386-1.752-28.796-3.375-43.116-5.567c-15.982-2.446-31.917-5.254-47.799-8.289c-36.937-7.059-73.324-16.335-109.128-27.844
		c-50.844-16.345-99.82-36.983-145.97-64.002c-9.737-5.701-19.172-11.917-28.745-17.896c-1.711-1.069-3.42-2.14-5.131-3.212
		c-0.534,1.76-1.249,3.489-1.572,5.288c-2.17,12.088-4.475,24.159-6.299,36.301c-1.423,9.474-2.272,19.037-3.272,28.571
		c-1.053,10.042-1.852,20.108-1.884,30.214c-0.039,12.632,0.018,25.265-0.004,37.898c-0.01,5.566,0.276,11.104,1.186,16.602
		c10.529,4.933,21.025,9.937,31.592,14.786c26.67,12.239,53.966,22.931,81.656,32.617
		C208.714,699.214,253.818,711.769,299.633,721.785z"/>
	<path fill="#E8F4F5" d="M96.917,502.559c46.15,27.02,95.125,47.658,145.97,64.002c35.804,11.509,72.191,20.785,109.128,27.844
		c15.882,3.035,31.817,5.842,47.799,8.289c14.32,2.192,28.73,3.815,43.116,5.567c22.929,2.793,45.951,4.556,69.015,5.71
		c13.465,0.674,26.948,0.995,40.422,1.478c17.527,0.627,35.053,0.483,52.583,0.068c19.211-0.455,38.418-1.019,57.586-2.431
		c14.957-1.102,29.921-2.168,44.843-3.65c15.927-1.581,31.822-3.511,47.702-5.519c10.527-1.331,21.001-3.076,31.501-4.62
		c3.294-0.485,6.59-0.957,9.886-1.428c2.195-0.314,4.39-0.626,6.585-0.942c0.657-0.363,1.313-0.726,1.968-1.089
		c0.42-1.319,0.773-2.665,1.218-3.974c0.148-0.436,0.307-0.869,0.481-1.294c3.314-8.094,6.804-16.118,10.036-24.245
		c7.341-18.462,14.062-37.154,19.945-56.129c3.685-11.888,6.935-23.912,10.333-35.888c0.542-1.909,1.132-3.844,1.211-6.188
		c-1.498-0.287-2.768-0.531-4.039-0.775c-4.327,0.907-8.646,1.859-12.976,2.748c-1.443,0.297-2.888,0.586-4.335,0.865
		c-18.036,3.479-36.028,7.228-54.141,10.25c-25.612,4.273-51.379,7.449-77.253,9.777c-37.657,3.388-75.378,4.888-113.178,4.393
		c-21.756-0.285-43.493-1.106-65.19-2.765c-28.252-2.161-56.391-5.279-84.398-9.648c-29.5-4.602-58.765-10.329-87.743-17.498
		c-48.357-11.963-95.549-27.456-141.383-46.996c-33.381-14.23-65.743-30.489-96.954-49.012c-1.442-0.855-2.801-1.848-4.2-2.777
		c-1.589,0.928-2.067,2.618-2.714,4.136c-4.476,10.504-9.104,20.949-13.297,31.566c-9.519,24.096-16.981,48.842-22.769,74.09
		c-0.371,1.622-0.432,3.314-0.636,4.975c1.711,1.072,3.42,2.143,5.131,3.212C77.745,490.642,87.18,496.859,96.917,502.559z"/>
	<path fill="#DAB346" d="M199.493,879.721c30.737,11.653,61.904,22.038,93.484,31.194c35.465,10.282,71.315,18.954,107.524,26.179
		c19.668,3.925,39.41,7.433,59.242,10.398c23.331,3.488,46.724,6.521,70.23,8.616c6.231,0.555,12.461,1.13,18.69,1.708
		c4.507,0.418,9.014,0.838,13.521,1.253c8.22,0.457,16.439,0.909,24.657,1.375c1.51,0.086,3.015,0.275,4.525,0.342
		c29.572,1.317,59.158,1.786,88.754,1.216c12.438-0.239,24.871-0.737,37.306-1.102c0.755-0.022,1.511-0.022,2.267-0.016
		c0.755,0.006,1.511,0.018,2.266,0.02c0,0,0,0,0,0c0.912-0.263,1.825-0.526,2.737-0.789c0.739-0.677,1.418-1.438,2.226-2.02
		c14.876-10.712,29.658-21.552,43.965-33.015c10.493-8.406,20.879-16.949,31.15-25.625c8.472-7.156,16.697-14.604,25.043-21.91
		c19.256-16.857,37.207-35.063,55.068-53.353c5.632-5.767,10.861-11.928,16.234-17.944c0.652-0.73,1.05-1.685,1.565-2.535
		c-5.751,1.236-11.495,2.514-17.258,3.705c-17.793,3.676-35.547,7.567-53.405,10.902c-17.195,3.211-34.477,5.987-51.766,8.66
		c-11.301,1.747-22.671,3.076-34.033,4.401c-11.698,1.365-23.412,2.61-35.138,3.699c-10.22,0.949-20.466,1.613-30.702,2.388
		c-3.188,0.242-6.377,0.484-9.57,0.634c-1.669,0.078-3.348-0.043-5.024-0.073c-1.556,0.117-3.111,0.247-4.665,0.379
		c-2.596,0.22-5.193,0.445-7.791,0.618c-1.385,0.092-2.77,0.17-4.156,0.224c-26.274,1.034-52.56,1.697-78.851,1.06
		c-17.518-0.425-35.037-1.072-52.534-2.019c-22.208-1.202-44.365-3.112-66.477-5.558c-20.603-2.278-41.139-5.008-61.608-8.256
		c-40.464-6.42-80.5-14.888-120.106-25.355c-42.553-11.246-84.354-24.82-125.327-40.906c-24.473-9.608-48.591-20.036-72.286-31.434
		c-1.668-0.802-3.373-1.526-5.062-2.288c0.235,1.485,0.36,3,0.728,4.453c1.612,6.361,3.207,12.728,4.968,19.048
		c7.787,27.939,17.804,55.068,29.85,81.449c1.53,3.352,3.282,6.602,4.932,9.899c1.876,0.724,3.811,1.325,5.62,2.191
		C139.491,855.504,169.225,868.247,199.493,879.721z"/>
	<polygon fill="#DAB346" points="899.947,803.713 899.948,803.713 899.948,803.713 	"/>
	<path fill="#A25931" d="M336.408,298.663c17.25,3.949,34.551,7.661,51.981,10.702c24.911,4.346,49.924,7.995,75.072,10.749
		c25.651,2.809,51.352,4.832,77.124,6.094c34.544,1.692,69.098,2.074,103.661,0.87c16.847-0.587,33.695-1.319,50.519-2.364
		c20.695-1.286,41.359-3.048,61.95-5.542c14.724-1.784,29.477-3.398,44.138-5.605c18.995-2.859,37.913-6.236,56.866-9.379
		c1.825-0.302,3.664-0.517,5.496-0.772c1.204-0.387,2.408-0.774,3.612-1.162c-0.122-0.577-0.232-1.155-0.33-1.733
		c-0.098-0.578-0.186-1.158-0.263-1.738c-0.155-1.16-0.269-2.324-0.355-3.49c-0.171-2.333-0.225-4.677-0.247-7.031
		c-0.029-3.16-0.557-6.327-1.011-9.469c-1.169-8.109-2.286-16.229-3.678-24.301c-1.366-7.918-2.92-15.809-4.633-23.659
		c-1-4.578-2.367-9.086-3.76-13.567c-0.697-2.242-1.402-4.481-2.113-6.719c-2.131-6.713-4.31-13.411-6.459-20.119l0,0
		c-0.392-0.043-0.784-0.086-1.176-0.129c-0.101-0.011-0.203-0.022-0.303-0.033c-2.749,0.555-5.491,1.147-8.236,1.726
		c-0.856,0.18-1.714,0.359-2.571,0.535c-2.829,0.582-5.662,1.135-8.51,1.599c-17.296,2.817-34.577,5.808-51.952,8.045
		c-19.888,2.561-39.855,4.54-59.816,6.487c-25.51,2.489-51.106,3.819-76.716,4.659c-22.747,0.746-45.506,1.186-68.271,0.814
		c-24.612-0.402-49.224-0.94-73.784-2.633c-18.832-1.298-37.647-2.881-56.442-4.632c-13.086-1.22-26.15-2.754-39.179-4.486
		c-17.706-2.353-35.343-5.177-52.916-8.408c-27.535-5.062-54.747-11.432-81.527-19.609c-2.416-0.738-4.828-1.485-7.243-2.229
		c-2.453,0.603-3.767,2.744-5.608,4.168c-11.068,8.561-21.261,18.139-31.353,27.777c-9.367,8.945-18.12,18.533-27.084,27.895
		c-2.674,2.793-5.225,5.715-7.687,8.699c-1.59,1.927-2.914,4.073-4.357,6.121c6.931,3.057,13.793,6.286,20.806,9.143
		C244.311,273.975,289.831,288.001,336.408,298.663z"/>
	<path fill="#E8F4F5" d="M141.537,758.216c40.973,16.086,82.774,29.66,125.327,40.906c39.606,10.467,79.642,18.935,120.106,25.355
		c20.469,3.248,41.006,5.978,61.608,8.256c22.113,2.445,44.269,4.356,66.477,5.558c17.497,0.947,35.016,1.594,52.534,2.019
		c26.291,0.637,52.577-0.026,78.851-1.06c1.386-0.054,2.771-0.132,4.156-0.224c2.598-0.173,5.195-0.398,7.791-0.618
		c1.554-0.132,3.109-0.262,4.664-0.379c0.713-1.307,1.298-2.707,2.161-3.906c5.494-7.635,11.216-15.111,16.548-22.857
		c9.814-14.255,19.435-28.642,29.084-43.01c3.185-4.743,6.221-9.586,9.297-14.401c1.063-1.664,2.246-3.3,2.441-5.707
		c-1.822-0.283-3.426-0.533-5.03-0.782c-1.178,0.035-2.359,0.031-3.533,0.112c-14.464,0.991-28.917,2.181-43.393,2.944
		c-14.645,0.772-29.312,1.161-43.971,1.655c-38.623,1.301-77.221,0.341-115.782-1.807c-19.35-1.078-38.662-2.897-57.977-4.544
		c-23.353-1.992-46.581-5.085-69.753-8.552c-28.006-4.191-55.844-9.34-83.511-15.389c-45.815-10.016-90.92-22.571-135.19-38.056
		c-27.69-9.686-54.986-20.378-81.656-32.617c-10.567-4.849-21.063-9.853-31.592-14.786c-0.041,1.507-0.208,3.023-0.099,4.518
		c0.364,5.037,0.731,10.076,1.266,15.096c2.054,19.258,4.953,38.389,8.969,57.34c0.799,3.77,1.896,7.477,2.857,11.214
		c1.689,0.762,3.394,1.485,5.062,2.288C92.946,738.18,117.064,748.608,141.537,758.216z"/>
	<path fill="#847A2D" d="M1126.187,724.782c-23.208,10.858-46.828,20.751-70.722,29.986
		c-33.809,13.066-68.101,24.722-102.988,34.576c-14.752,4.167-29.589,8.038-44.399,12.002c-0.403,0.108-0.81,0.198-1.22,0.278
		c-1.23,0.239-2.487,0.381-3.725,0.594c-1.062,0.499-2.124,0.998-3.185,1.496c0,0,0,0-0.001,0c-0.514,0.85-0.913,1.805-1.565,2.535
		c-5.373,6.017-10.602,12.177-16.234,17.944c-17.861,18.29-35.812,36.496-55.068,53.353c-8.346,7.306-16.571,14.754-25.043,21.91
		c-10.271,8.676-20.657,17.219-31.15,25.625c-14.307,11.462-29.089,22.303-43.965,33.015c-0.808,0.582-1.487,1.342-2.226,2.02
		c9.93-0.534,19.87-0.929,29.787-1.642c9.411-0.677,18.809-1.591,28.194-2.573c10.726-1.123,21.444-2.336,32.142-3.694
		c10.532-1.337,21.048-2.815,31.547-4.39c23.008-3.451,45.839-7.839,68.598-12.673c37.806-8.029,75.032-18.169,111.755-30.163
		c10.414-3.401,20.685-7.235,31.041-10.815c2.53-0.875,4.956-2.196,7.755-2.108c4.658-7.809,9.376-15.582,13.959-23.434
		c11.402-19.533,20.875-40.009,29.453-60.905c6.334-15.431,12.116-31.075,16.738-47.111c3.31-11.485,6.366-23.044,9.459-34.591
		c0.473-1.766,0.538-3.642,0.792-5.468c0,0-0.001,0-0.001,0c0,0.001,0,0.001-0.001,0.002
		C1132.672,721.956,1129.389,723.283,1126.187,724.782z"/>
	<path fill="#DAB346" d="M412.094,162.121c18.736,4.979,37.793,8.505,56.863,11.912c15.253,2.725,30.523,5.386,45.841,7.707
		c28.236,4.279,56.659,5.568,85.185,4.421c18.691-0.752,37.333-2.146,55.9-4.531c22.085-2.837,43.872-7.182,65.519-12.336
		c25.915-6.171,51.465-13.569,76.631-22.291c5.252-1.82,10.444-3.811,15.687-5.657c2.056-0.724,4.176-1.265,6.266-1.89
		c4.592-1.98,9.155-4.03,13.78-5.928c10.676-4.38,21.301-8.869,31.566-14.158c-1.426-0.879-2.807-1.838-4.28-2.625
		c-27.47-14.678-55.835-27.301-85.425-37.108c-9.104,2.485-18.165,5.143-27.321,7.416c-13.417,3.33-26.909,6.366-40.576,8.514
		c-10.657,1.675-21.309,3.443-32.02,4.69c-15.907,1.852-31.84,3.566-47.802,4.824c-27.085,2.135-54.231,2.897-81.394,2.027
		c-18.88-0.605-37.725-1.951-56.516-3.858c-28.429-2.884-56.327-8.458-83.573-17.153c-0.156-0.05-0.335-0.031-0.503-0.045
		c-2.693,0.922-5.423,1.749-8.072,2.781c-16.923,6.599-33.423,14.142-49.586,22.412c-12.116,6.199-24.021,12.782-35.521,20.074
		c18.035,7.631,36.751,13.242,55.543,18.607C382.86,154.089,397.445,158.228,412.094,162.121z"/>
	<path fill="#E8F4F5" d="M220.342,388.656c26.568,11.196,53.641,20.992,81.18,29.507c26.408,8.166,53.129,15.166,80.162,20.931
		c23.072,4.92,46.297,8.99,69.661,12.309c30.057,4.27,60.245,7.141,90.55,8.709c31.829,1.646,63.677,1.859,95.535,0.569
		c17.856-0.723,35.69-1.749,53.479-3.402c13.086-1.216,26.176-2.505,39.198-4.256c16.694-2.245,33.361-4.754,49.968-7.569
		c24.587-4.168,48.984-9.295,73.148-15.491c0.283-0.073,0.568-0.137,0.855-0.195c0.362-0.074,0.727-0.139,1.092-0.203
		c0.502-0.087,1.004-0.17,1.504-0.265c0.38-0.307,0.759-0.614,1.138-0.921c0.248-2.484,0.429-4.978,0.703-7.459
		c0.091-0.827,0.193-1.652,0.31-2.475c1.157-8.096,2.485-16.168,3.623-24.266c0.301-2.139,0.16-4.341,0.223-6.514
		c-2.477,0.479-4.956,0.94-7.434,1.412c-2.478,0.472-4.953,0.953-7.421,1.473c-18.308,3.852-36.723,7.114-55.204,10.005
		c-20.814,3.256-41.71,5.926-62.677,7.939c-14.759,1.416-29.561,2.397-44.353,3.454c-35.008,2.503-70.067,2.567-105.129,1.852
		c-12.128-0.247-24.249-0.976-36.363-1.672c-10.767-0.618-21.537-1.296-32.272-2.307c-14.257-1.342-28.504-2.853-42.712-4.627
		c-13.372-1.669-26.738-3.491-40.019-5.762c-15.44-2.64-30.824-5.646-46.159-8.841c-28.722-5.983-57.064-13.463-85.001-22.434
		c-34.876-11.199-68.864-24.608-101.565-41.16c-18.658-9.444-36.892-19.632-54.196-31.414c-0.463,0.467-1.017,0.874-1.377,1.411
		c-8.014,11.946-15.436,24.252-22.349,36.863c-0.462,0.843-0.561,1.886-0.828,2.835c2.49,1.403,5.006,2.762,7.467,4.215
		C155.737,359.008,187.534,374.83,220.342,388.656z"/>
	<path fill="#E8F4F5" d="M296.159,331.649c32.441,10.996,65.495,19.699,99.009,26.739c17.653,3.708,35.399,6.877,53.224,9.589
		c17.824,2.712,35.72,4.888,53.668,6.659c30.714,3.032,61.492,4.669,92.35,5.288c21.589,0.433,43.153-0.013,64.713-0.747
		c17.852-0.607,35.675-1.846,53.479-3.392c19.314-1.677,38.571-3.809,57.764-6.487c12.01-1.676,23.961-3.775,35.943-5.66
		c18.154-2.856,36.082-6.853,54.041-10.689c0.531-0.114,1.058-0.246,1.583-0.392c0.85-0.235,1.692-0.503,2.535-0.772
		c0.615-0.196,1.23-0.39,1.847-0.577c0.103-0.031,0.205-0.065,0.308-0.096c0.037-2.523,0.034-5.048,0.09-7.57
		c0.019-0.841,0.044-1.681,0.08-2.521c0.113-2.677,0.536-5.342,0.627-8.018c0.13-3.86,0.481-7.777-0.001-11.576
		c-0.469-3.694-0.6-7.36-0.664-11.053c-0.018-1.009,0.009-2.02-0.044-3.028c-0.147-2.831-0.159-2.83-3.495-3.932
		c-1.833,0.255-3.673,0.47-5.497,0.772c-18.953,3.142-37.87,6.519-56.866,9.379c-14.662,2.207-29.415,3.821-44.138,5.605
		c-20.591,2.495-41.255,4.257-61.95,5.542c-16.824,1.045-33.672,1.777-50.519,2.364c-34.562,1.204-69.116,0.823-103.661-0.87
		c-25.771-1.262-51.473-3.285-77.124-6.094c-25.148-2.755-50.161-6.404-75.072-10.749c-17.431-3.041-34.731-6.753-51.981-10.702
		c-46.578-10.662-92.098-24.689-136.355-42.724c-7.013-2.858-13.875-6.086-20.806-9.143c-1.623,0.342-2.468,1.642-3.404,2.806
		c-3.778,4.698-7.562,9.391-11.285,14.131c-1.027,1.308-1.854,2.773-2.772,4.166c21.236,13.777,43.378,25.926,66.314,36.625
		C250.266,314.864,272.997,323.797,296.159,331.649z"/>
	<path fill="#DAB346" d="M297.929,368.154c27.937,8.972,56.279,16.451,85.001,22.434c15.336,3.195,30.72,6.201,46.159,8.841
		c13.28,2.271,26.646,4.092,40.019,5.762c14.209,1.774,28.456,3.285,42.712,4.627c10.735,1.011,21.505,1.688,32.272,2.307
		c12.114,0.696,24.235,1.425,36.363,1.672c35.062,0.715,70.121,0.651,105.129-1.852c14.791-1.058,29.594-2.038,44.353-3.454
		c20.967-2.013,41.862-4.682,62.677-7.939c18.481-2.891,36.896-6.153,55.204-10.005c2.468-0.519,4.943-1.001,7.421-1.473
		c2.478-0.472,4.957-0.933,7.434-1.412l0,0c0.842-0.258,1.676-0.556,2.522-0.799c0.282-0.081,0.565-0.156,0.851-0.221
		c25.809-5.879,51.394-12.604,76.647-20.544c26.544-8.346,52.688-17.795,78.292-28.715c14.734-6.284,29.276-12.972,43.565-20.211
		c1.35-0.684,2.76-1.249,4.139-1.87c0-0.001-0.001-0.001-0.001-0.002c0.076-0.26,0.22-0.473,0.434-0.639
		c-1.685-2.878-3.242-5.841-5.081-8.618c-4.419-6.674-8.971-13.261-13.468-19.883c0,0-0.001,0-0.001,0v0
		c-6.28,2.969-12.541,5.98-18.829,8.934c-2.096,0.985-4.194,1.963-6.298,2.931c-31.883,14.68-64.765,26.728-98.285,37.078
		c-18.679,5.767-37.577,10.735-56.569,15.352c-0.649,0.158-1.31,0.268-1.973,0.366c-0.664,0.098-1.331,0.183-1.992,0.291l0,0l0,0
		c0,0,0,0-0.001,0c-0.103,0.031-0.205,0.064-0.308,0.096c-0.617,0.187-1.233,0.381-1.847,0.577
		c-0.843,0.269-1.686,0.537-2.535,0.772c-0.525,0.145-1.052,0.278-1.583,0.392c-17.959,3.836-35.887,7.833-54.041,10.689
		c-11.981,1.885-23.932,3.984-35.943,5.66c-19.193,2.678-38.45,4.81-57.764,6.487c-17.804,1.546-35.627,2.785-53.479,3.392
		c-21.56,0.733-43.124,1.18-64.713,0.747c-30.858-0.619-61.636-2.256-92.35-5.288c-17.948-1.772-35.844-3.947-53.668-6.659
		c-17.825-2.712-35.571-5.881-53.224-9.589c-33.515-7.04-66.569-15.743-99.009-26.739c-23.162-7.851-45.894-16.785-68.059-27.124
		c-22.936-10.699-45.078-22.848-66.314-36.625c-0.257,0.205-0.577,0.364-0.76,0.621c-5.934,8.272-11.863,16.547-17.763,24.842
		c-0.472,0.664-0.735,1.476-1.095,2.218c17.304,11.782,35.539,21.97,54.196,31.414C229.065,343.546,263.053,356.955,297.929,368.154
		z"/>
	<path fill="#88A6A2" d="M936.314,1029.41c-0.942,0.219-1.88,0.45-2.814,0.698c-24.766,6.568-49.825,11.804-75.02,16.383
		c-21.38,3.885-42.849,7.25-64.457,9.628c-14.735,1.622-29.469,3.291-44.235,4.573c-12.417,1.078-24.871,1.853-37.325,2.353
		c-17.509,0.704-35.033,1.393-52.551,1.419c-19.542,0.029-39.087-0.612-58.626-1.121c-8.419-0.22-16.829-0.805-25.239-1.295
		c-6.055-0.353-12.104-0.803-18.151-1.262c-0.988-0.075-1.957-0.418-2.934-0.638c-1.308,0.038-2.616,0.075-3.923,0.113h0.001
		c-0.327,1.299-1.298,1.92-2.355,2.455c-0.151,0.077-0.304,0.151-0.457,0.226c-3.631,1.774-7.226,3.626-10.898,5.308
		c-5.047,2.313-10.178,4.444-15.229,6.747c-17.615,8.033-35.537,15.334-53.568,22.366c-15.997,6.239-32.11,12.162-48.422,17.539
		c-1.719,0.567-3.686,0.759-4.816,2.501c1.683,0.739,3.322,1.608,5.056,2.197c23.956,8.134,48.268,14.905,73.145,19.683
		c16.397,3.149,32.866,5.71,49.454,7.49c15.758,1.692,31.581,2.56,47.425,2.843c23.451,0.419,46.822-0.807,70.144-3.36
		c21.472-2.351,42.704-6.03,63.731-10.888c37.899-8.754,74.459-21.449,109.637-38.014c35.028-16.494,67.997-36.445,98.809-59.906
		c4.147-3.158,8.088-6.586,12.125-9.889h0c0,0,0,0,0,0C941.988,1028.193,939.138,1028.752,936.314,1029.41z"/>
	<path fill="#A25931" d="M203.611,418.473c45.834,19.54,93.026,35.033,141.383,46.996c28.977,7.169,58.243,12.897,87.743,17.498
		c28.007,4.369,56.146,7.487,84.398,9.648c21.697,1.659,43.434,2.48,65.19,2.765c37.8,0.496,75.522-1.005,113.178-4.393
		c25.874-2.328,51.641-5.504,77.253-9.777c18.113-3.022,36.105-6.771,54.141-10.25c1.447-0.279,2.892-0.569,4.335-0.865
		c4.33-0.89,8.649-1.841,12.976-2.748c1.043-0.367,2.075-0.771,3.133-1.09c1.221-0.369,2.465-0.662,3.7-0.988
		c-0.59-0.509-1.048-1.072-1.229-1.743c-0.108-0.403-0.117-0.844,0.005-1.336c0.404-1.625,0.818-3.247,1.24-4.867
		c2.408-9.235,4.278-18.577,5.619-28.025c-0.499,0.095-1.002,0.178-1.503,0.265c-0.365,0.063-0.729,0.128-1.092,0.203
		c-0.287,0.059-0.572,0.123-0.855,0.195c-24.164,6.197-48.562,11.324-73.148,15.491c-16.607,2.815-33.274,5.324-49.968,7.569
		c-13.022,1.751-26.112,3.04-39.198,4.256c-17.79,1.653-35.623,2.679-53.479,3.402c-31.858,1.29-63.706,1.077-95.535-0.569
		c-30.305-1.567-60.493-4.439-90.55-8.709c-23.364-3.319-46.589-7.388-69.661-12.309c-27.034-5.765-53.754-12.765-80.162-20.931
		c-27.538-8.515-54.611-18.312-81.18-29.507c-32.808-13.826-64.606-29.648-95.263-47.751c-2.461-1.453-4.977-2.813-7.467-4.215
		c-0.692,0.941-1.521,1.811-2.055,2.834c-3.966,7.601-7.908,15.215-11.768,22.871c-0.665,1.319-0.9,2.854-1.332,4.29
		c1.399,0.929,2.759,1.922,4.2,2.777C137.868,387.984,170.23,404.243,203.611,418.473z"/>
	<path fill="#E8F4F5" d="M145.48,905.669c0.155,0.1,0.312,0.194,0.472,0.278c13.587,7.111,27.016,14.536,40.741,21.369
		c39.594,19.71,80.587,36.032,122.627,49.744c34.952,11.4,70.409,20.929,106.373,28.587c25.559,5.443,51.28,9.962,77.144,13.668
		c1.206,0.173,2.415,0.319,3.627,0.449c3.636,0.389,7.294,0.628,10.936,0.977c0.058-1.241,0.681-2.151,1.432-2.991
		c0.25-0.28,0.515-0.553,0.778-0.827c7.187-7.505,14.426-14.96,21.529-22.543c7.098-7.578,14.042-15.3,21.087-22.927
		c2.162-2.341,4.427-4.587,6.66-6.862c1.548-1.577,2.911-3.255,3.297-5.521c-4.507-0.415-9.014-0.835-13.521-1.253
		c-6.229-0.578-12.458-1.153-18.69-1.708c-23.506-2.095-46.899-5.129-70.23-8.616c-19.831-2.965-39.574-6.473-59.242-10.398
		c-36.209-7.226-72.06-15.898-107.524-26.179c-31.579-9.156-62.746-19.542-93.484-31.194
		c-30.268-11.474-60.001-24.217-89.205-38.187c-1.808-0.865-3.744-1.467-5.62-2.191c2.426,4.972,4.737,10.005,7.298,14.907
		c9.026,17.276,18.703,34.171,29.895,50.162c0.217-0.06,0.423-0.092,0.622-0.1C143.668,904.265,144.547,905.069,145.48,905.669z"/>
	<path fill="#88A6A2" d="M1026.72,904.981c-36.724,11.994-73.949,22.134-111.755,30.163c-22.759,4.833-45.591,9.222-68.598,12.673
		c-10.499,1.575-21.015,3.053-31.547,4.39c-10.698,1.358-21.416,2.571-32.142,3.694c-9.385,0.982-18.783,1.896-28.194,2.573
		c-9.917,0.713-19.857,1.108-29.787,1.642c-0.912,0.263-1.825,0.526-2.737,0.789c0,0,0,0,0,0l0,0c0,0,0.001,0,0.001,0
		c-0.791,0.785-1.512,1.671-2.328,2.419c-0.272,0.25-0.555,0.484-0.855,0.694c-18.314,12.838-37.038,25.05-56.07,36.805
		c-14.879,9.19-30.026,17.907-45.236,26.527c-0.997,0.565-1.838,1.406-2.752,2.119l0,0l0,0c1.302,0.068,2.604,0.145,3.906,0.224
		c3.906,0.236,7.811,0.489,11.719,0.569c26.8,0.555,53.594,0.289,80.356-1.316c16.649-0.999,33.318-1.897,49.913-3.51
		c18.271-1.775,36.489-4.149,54.69-6.567c23.553-3.129,46.906-7.472,70.139-12.436c37.265-7.963,73.979-17.942,110.061-30.215
		c1.91-0.65,3.869-1.153,5.807-1.724c1.865-1.672,3.885-3.201,5.568-5.038c12.604-13.761,24.393-28.2,35.468-43.213
		c8.176-11.085,16.033-22.393,23.17-34.184c-2.8-0.088-5.225,1.233-7.755,2.108C1047.405,897.746,1037.133,901.58,1026.72,904.981z"
		/>
	<path fill="#E8F4F5" d="M397.022,202.38c13.029,1.732,26.093,3.266,39.179,4.486c18.795,1.752,37.61,3.334,56.442,4.632
		c24.56,1.692,49.172,2.231,73.784,2.633c22.765,0.371,45.524-0.068,68.271-0.814c25.61-0.84,51.206-2.171,76.716-4.659
		c19.961-1.947,39.928-3.926,59.816-6.487c17.375-2.237,34.656-5.228,51.952-8.045c2.848-0.464,5.681-1.017,8.51-1.599
		c0.857-0.176,1.714-0.355,2.571-0.535c2.745-0.579,5.487-1.171,8.236-1.726l0,0l0,0c0.111-1.943-0.196-3.778-0.899-5.581
		c-0.101-0.257-0.209-0.514-0.326-0.771c-4.166-9.169-8.127-18.434-12.418-27.543c-2.214-4.699-4.981-9.137-7.459-13.713
		c-0.553-1.022-0.943-2.132-1.41-3.202c-2.092,0.624-4.212,1.166-6.268,1.89c-5.243,1.846-10.435,3.836-15.687,5.657
		c-25.166,8.722-50.717,16.121-76.631,22.291c-21.647,5.155-43.434,9.499-65.519,12.336c-18.567,2.385-37.209,3.78-55.9,4.531
		c-28.526,1.147-56.949-0.142-85.185-4.421c-15.318-2.321-30.589-4.982-45.841-7.707c-19.07-3.407-38.127-6.934-56.863-11.912
		c-14.649-3.893-29.234-8.032-43.81-12.193c-18.792-5.365-37.508-10.976-55.543-18.607c-0.606,0.291-1.242,0.532-1.812,0.881
		c-18.682,11.437-36.55,24.036-53.683,37.677c-0.756,0.602-1.279,1.498-1.91,2.257c2.415,0.743,4.827,1.491,7.243,2.229
		c26.781,8.177,53.993,14.547,81.527,19.609C361.679,197.203,379.316,200.027,397.022,202.38z"/>
	<path fill="#623D20" d="M1149.285,582.967c-0.872-7.144-0.299-14.415-1.013-21.652c-0.775-7.845-1.197-15.732-2.156-23.574
		c-1.08-8.838-2.003-17.693-3.767-26.435c-0.831-4.116-1.776-8.235-2.197-12.4c-0.411-4.062-1.403-7.943-2.494-11.832
		c-6.87,3.357-13.722,6.751-20.587,10.121c-6.864,3.369-13.74,6.714-20.657,9.971c-10.03,4.723-20.276,8.99-30.435,13.438
		c-0.15,0.065-0.305,0.118-0.463,0.163c-0.267,0.075-0.544,0.127-0.821,0.179c-0.218,0.04-0.435,0.081-0.648,0.132l0,0l0,0
		c-0.344,0.376-0.687,0.752-1.03,1.127c-0.301,0.19-0.602,0.381-0.902,0.571c-0.096,0.061-0.193,0.122-0.289,0.183
		c0.44,2.187-0.003,4.266-0.679,6.355c-2.641,8.156-5.189,16.342-7.843,24.493c-4.27,13.115-9.465,25.873-14.722,38.622
		c-7.124,17.278-15.424,33.985-23.972,50.573c-4,7.761-8.369,15.342-12.802,22.869c-5.626,9.555-11.504,18.961-17.223,28.463
		c-0.681,1.132-1.044,2.456-1.554,3.691c4.546-1.214,9.128-2.309,13.632-3.661c37.145-11.155,73.714-23.955,109.59-38.689
		c12.468-5.12,24.773-10.635,37.157-15.961c1.547-0.665,3.118-1.276,4.677-1.912c0.315-1.982,0.825-3.956,0.905-5.946
		c0.163-4.038,0.067-8.085,0.134-12.128c0.028-1.678,0.178-3.357,0.314-5.032c0.177-2.174,0.603-4.349,0.558-6.516
		C1149.822,599.778,1150.313,591.39,1149.285,582.967z"/>
	<path fill="#88A6A2" d="M1106.251,655.674c-35.876,14.734-72.445,27.534-109.59,38.689c-4.504,1.353-9.086,2.447-13.632,3.661
		c-0.854,0.534-1.708,1.068-2.562,1.603l0,0c-0.679,1.344-1.268,2.747-1.979,4.07c-0.237,0.441-0.488,0.873-0.76,1.292
		c-7.628,11.71-15.575,23.198-24.085,34.293c-6.86,8.944-13.571,18.003-20.501,26.892c-3.927,5.039-8.162,9.838-12.256,14.747
		c-5.919,7.097-11.836,14.196-17.754,21.295c1.237-0.213,2.494-0.354,3.724-0.594c0.41-0.08,0.817-0.17,1.22-0.278
		c14.81-3.964,29.647-7.835,44.399-12.002c34.888-9.854,69.179-21.51,102.988-34.576c23.895-9.235,47.514-19.127,70.722-29.986
		c3.202-1.498,6.485-2.826,9.728-4.23c0-0.001,0.001-0.001,0.001-0.002c0.424-1.262,1.003-2.497,1.252-3.795
		c1.999-10.417,4.247-20.801,5.811-31.284c1.937-12.986,3.338-26.053,4.858-39.098c0.33-2.829,0.179-5.713,0.249-8.572
		c-1.559,0.636-3.13,1.247-4.677,1.912C1131.025,645.039,1118.72,650.554,1106.251,655.674z"/>
	<path fill="#8B4B29" d="M847.336,189.423c-0.855,0.176-1.687,0.462-2.521,0.738c-0.278,0.092-0.556,0.183-0.835,0.267
		c2.149,6.708,4.328,13.406,6.459,20.119c0.711,2.238,1.416,4.477,2.113,6.719c1.393,4.481,2.76,8.988,3.76,13.567
		c1.714,7.85,3.267,15.741,4.633,23.659c1.392,8.072,2.509,16.192,3.678,24.301c0.453,3.142,0.982,6.309,1.011,9.469
		c0.021,2.354,0.076,4.698,0.247,7.031c0.085,1.166,0.2,2.329,0.355,3.49c0.077,0.58,0.164,1.16,0.263,1.738
		c0.098,0.579,0.208,1.156,0.33,1.733v0c5.282-0.98,10.581-1.879,15.843-2.954c41.886-8.559,83.261-19.114,124.081-31.819
		c8.026-2.498,15.997-5.175,23.994-7.77c-0.508-0.859-0.91-1.805-1.541-2.561c-5.5-6.585-10.92-13.242-16.602-19.668
		c-6.575-7.436-13.248-14.798-20.143-21.935c-6.431-6.657-13.102-13.075-19.962-19.318c-8.594-7.822-17.272-15.533-26.326-22.806
		c-3.384-2.718-6.417-6.008-10.625-7.607c-5.607,1.798-11.204,3.627-16.822,5.389C895.257,178.567,871.42,184.477,847.336,189.423z"
		/>
	<path fill="#E8F4F5" d="M489.997,103.25c18.791,1.907,37.637,3.252,56.516,3.858c27.163,0.87,54.309,0.108,81.394-2.027
		c15.962-1.258,31.896-2.972,47.802-4.824c10.711-1.247,21.363-3.015,32.02-4.69c13.667-2.148,27.159-5.184,40.576-8.514
		c9.157-2.273,18.218-4.93,27.321-7.416c-2.503-0.953-4.967-2.026-7.517-2.834c-5.78-1.83-11.583-3.596-17.41-5.269
		c-21.721-6.235-43.75-11.099-66.076-14.602c-17.161-2.692-34.422-4.497-51.753-5.626c-2.179-0.142-4.376,0.016-6.563-0.031
		c-4.874-0.106-9.749-0.208-14.62-0.401c-2.859-0.113-5.714-0.619-8.564-0.569c-11.628,0.206-23.27,0.269-34.877,0.915
		c-26.792,1.491-53.347,4.974-79.627,10.436c-26.431,5.493-52.36,12.769-77.7,22.094c-1.716,0.632-3.335,1.528-4.999,2.301
		c0.168,0.014,0.346-0.005,0.503,0.045C433.669,94.793,461.567,100.366,489.997,103.25z"/>
	<path fill="#623D20" d="M885.442,1006.432c-23.232,4.965-46.585,9.307-70.139,12.436c-18.201,2.418-36.419,4.792-54.69,6.567
		c-16.595,1.613-33.264,2.511-49.913,3.51c-26.762,1.605-53.556,1.871-80.356,1.316c-3.909-0.081-7.814-0.333-11.719-0.569
		c-1.302-0.079-2.604-0.156-3.906-0.224l0,0c-0.979,0.16-1.958,0.32-2.936,0.481c-1.834,1.093-3.629,2.261-5.478,3.325
		c-0.616,0.355-1.238,0.698-1.87,1.023c-15.218,7.836-30.476,15.595-45.702,23.415c-1.325,0.68-2.518,1.617-3.773,2.435
		c0.977,0.219,1.946,0.563,2.934,0.638c6.047,0.459,12.097,0.909,18.151,1.262c8.41,0.49,16.82,1.075,25.239,1.295
		c19.539,0.51,39.085,1.151,58.626,1.121c17.519-0.026,35.042-0.716,52.551-1.419c12.454-0.5,24.908-1.276,37.325-2.353
		c14.766-1.282,29.501-2.951,44.235-4.573c21.608-2.377,43.077-5.743,64.457-9.628c25.195-4.578,50.255-9.814,75.02-16.383
		c0.934-0.248,1.872-0.478,2.814-0.698c2.824-0.658,5.674-1.218,8.505-1.849c0,0,0,0,0,0c1.64-1.16,3.358-2.226,4.904-3.5
		c3.245-2.674,6.402-5.456,9.591-8.198c3.952-3.399,8.084-6.615,11.815-10.241c9.187-8.927,18.21-18.023,27.24-27.109
		c1.157-1.164,1.969-2.672,2.94-4.02c-1.937,0.572-3.897,1.075-5.807,1.724C959.421,988.49,922.707,998.469,885.442,1006.432z"/>
	<path fill="#E8F4F5" d="M402.454,1109.37c0.648-0.294,1.288-0.629,1.923-0.991c7.598-4.337,15.277-8.537,22.828-12.954
		c2.445-1.43,4.66-3.284,6.868-5.083c6.926-5.643,12.839-12.385,19.534-18.253c5.836-5.114,11.213-10.664,16.796-16.018
		c0.549-0.526,1.109-1.051,1.575-1.625c0.622-0.765,1.076-1.619,1.112-2.683c0.009-0.266-0.008-0.545-0.055-0.84
		c-5.304-0.946-10.602-1.937-15.916-2.83c-27.927-4.699-55.643-10.396-83.129-17.235c-33.213-8.263-65.982-17.98-98.261-29.358
		c-26.714-9.416-52.949-20.012-78.77-31.646c-1.973-0.889-4.11-1.414-6.171-2.111c2.029,2.242,4.027,4.517,6.094,6.727
		c22.132,23.667,46.081,45.326,71.992,64.795c34.058,25.592,70.602,46.96,109.613,64.096c5.846,2.567,11.834,4.811,17.756,7.205
		C398.48,1110.769,400.508,1110.252,402.454,1109.37z"/>
	<path fill="#A25931" d="M275.73,1001.501c32.279,11.378,65.048,21.094,98.261,29.358c27.486,6.839,55.202,12.536,83.129,17.235
		c5.314,0.894,10.611,1.885,15.916,2.83l0,0c0,0,0,0,0,0c0.598,0.016,1.197,0.031,1.795,0.047c0.719,0.019,1.438,0.037,2.156,0.056
		c0.195-1.334,0.914-2.332,1.764-3.25c0.283-0.306,0.582-0.603,0.88-0.901c7.585-7.569,15.181-15.127,22.726-22.736
		c1.479-1.492,3.058-2.58,5.221-2.606c-0.174-0.239-0.233-0.504-0.179-0.793c0,0,0,0,0,0c-3.642-0.349-7.3-0.588-10.936-0.977
		c-1.212-0.13-2.422-0.276-3.627-0.449c-25.864-3.706-51.585-8.225-77.144-13.668c-35.964-7.658-71.42-17.187-106.373-28.587
		c-42.04-13.712-83.033-30.033-122.627-49.744c-13.725-6.833-27.154-14.257-40.741-21.369c-0.16-0.084-0.317-0.178-0.472-0.278
		c-0.933-0.601-1.812-1.405-2.998-1.357c-0.198,0.008-0.404,0.04-0.62,0.1c1.522,2.414,2.939,4.901,4.582,7.23
		c8.041,11.401,16.118,22.782,25.069,33.5c6.346,7.599,12.845,15.071,19.277,22.602c2.062,0.697,4.199,1.222,6.171,2.111
		C222.782,981.489,249.017,992.085,275.73,1001.501z"/>
	<path fill="#C6D0CE" d="M882.67,299.301c-5.262,1.075-10.561,1.973-15.843,2.954c-1.204,0.387-2.408,0.774-3.611,1.162
		c3.336,1.102,3.348,1.101,3.495,3.932c0.052,1.007,0.026,2.018,0.044,3.028c0.064,3.693,0.195,7.359,0.664,11.053
		c0.482,3.799,0.132,7.715,0.001,11.576c-0.09,2.677-0.513,5.341-0.627,8.018c-0.036,0.84-0.061,1.68-0.08,2.521
		c-0.056,2.522-0.053,5.047-0.089,7.57l0,0c0.662-0.107,1.328-0.193,1.992-0.291c0.664-0.098,1.324-0.209,1.973-0.366
		c18.992-4.617,37.89-9.585,56.569-15.352c33.52-10.35,66.402-22.398,98.285-37.078c2.104-0.968,4.202-1.947,6.298-2.931
		c6.288-2.954,12.549-5.965,18.829-8.934v0c-0.224-0.622-0.315-1.341-0.69-1.852c-5.581-7.591-11.182-15.168-16.835-22.706
		c-0.579-0.772-1.525-1.268-2.302-1.892c-7.997,2.595-15.967,5.272-23.994,7.77C965.931,280.187,924.556,290.742,882.67,299.301z"/>
	<path fill="#88A6A2" d="M1081.144,379.621c-0.164,0.065-0.329,0.13-0.494,0.193c-0.458,0.171-0.919,0.337-1.371,0.52
		c-0.139,0.239-0.233,0.495-0.283,0.767c0.434,9.046,1.902,18.092,1.07,27.137c-0.815,8.861-0.279,17.779-1.573,26.611
		c-0.655,4.471-0.875,9.01-1.193,13.526c-0.614,8.717-2.158,17.304-3.531,25.915c-2.302,14.435-5.674,28.642-9.2,42.816
		c-0.16,0.644-0.249,1.306-0.318,1.972c-0.069,0.667-0.12,1.338-0.204,2.001l0,0c0.213-0.05,0.431-0.091,0.648-0.132
		c0.277-0.052,0.554-0.103,0.821-0.179c0.158-0.045,0.314-0.097,0.463-0.163c10.159-4.448,20.405-8.715,30.435-13.438
		c6.917-3.257,13.793-6.602,20.657-9.971c6.864-3.369,13.716-6.764,20.587-10.121c-0.375-2.317-0.625-4.661-1.144-6.945
		c-3.322-14.62-7.159-29.104-11.628-43.418c-6.734-21.567-14.686-42.672-24.132-63.204c-0.543-1.18-1.489-2.174-2.247-3.255
		c-2.674,1.466-5.346,2.936-8.02,4.402c-2.674,1.466-5.351,2.927-8.034,4.376C1082.032,379.259,1081.591,379.445,1081.144,379.621z"
		/>
	<path fill="#C6D0CE" d="M819.988,139.456c0.466,1.069,0.856,2.179,1.41,3.202c2.478,4.577,5.245,9.014,7.459,13.713
		c4.292,9.109,8.252,18.374,12.418,27.543c0.117,0.257,0.225,0.514,0.326,0.771c0.703,1.803,1.01,3.638,0.899,5.581l0,0
		c0.101,0.011,0.202,0.022,0.303,0.033c0.392,0.043,0.784,0.086,1.176,0.129l0,0c0.279-0.085,0.558-0.175,0.835-0.267
		c0.834-0.276,1.666-0.563,2.521-0.738c24.084-4.946,47.921-10.856,71.387-18.217c5.618-1.762,11.215-3.591,16.822-5.389
		c-0.185-1.304-1.19-1.95-2.124-2.662c-20.339-15.505-41.636-29.559-63.946-42.07c-1.295-0.726-2.759-1.15-4.143-1.715
		c-10.265,5.289-20.89,9.778-31.566,14.158C829.141,135.426,824.578,137.475,819.988,139.456z"/>
	<path fill="#C6D0CE" d="M420.11,1114.902c16.312-5.377,32.425-11.3,48.422-17.539c18.031-7.033,35.953-14.333,53.568-22.366
		c5.051-2.304,10.182-4.435,15.229-6.747c3.673-1.682,7.267-3.535,10.898-5.308c0.153-0.074,0.306-0.149,0.457-0.226
		c1.057-0.535,2.028-1.157,2.355-2.455h-0.001c0,0,0,0-0.001,0c-3.654-0.382-7.309-0.748-10.965-1.116
		c-3.729-0.375-7.457-0.755-11.183-1.155c-2.989-0.321-5.977-0.653-8.961-1.013c-13.523-1.632-27.019-3.493-40.523-5.281
		c-0.821-0.109-1.612-0.44-2.417-0.667c-0.719-0.019-1.438-0.037-2.157-0.056c-0.598-0.016-1.197-0.031-1.795-0.047c0,0,0,0,0,0
		c0.047,0.294,0.064,0.574,0.055,0.84c-0.037,1.064-0.491,1.918-1.112,2.683c-0.466,0.574-1.026,1.098-1.575,1.625
		c-5.583,5.354-10.96,10.903-16.796,16.018c-6.695,5.867-12.608,12.609-19.534,18.253c-2.208,1.799-4.423,3.653-6.868,5.083
		c-7.552,4.417-15.23,8.617-22.828,12.954c-0.635,0.363-1.275,0.697-1.923,0.991c-1.945,0.882-3.974,1.399-6.209,1.197c0,0,0,0,0,0
		c5.467,2.058,10.936,4.116,16.404,6.173l0,0v0l0.171-0.074c0.043-0.018,0.079-0.034,0.079-0.034s0.185,0.202,0.181,0.201
		c0.736,0.189,1.474,0.379,2.214,0.569C416.424,1115.661,418.391,1115.469,420.11,1114.902z"/>
	<path fill="#623D20" d="M1075.015,344.712c0.665,3.93,1.514,7.839,1.956,11.794c0.886,7.929,1.55,15.884,2.307,23.827
		c0.452-0.182,0.913-0.349,1.372-0.52c0.166-0.062,0.33-0.128,0.494-0.193c0.447-0.176,0.889-0.362,1.308-0.589
		c2.684-1.449,5.36-2.91,8.034-4.376c2.674-1.466,5.346-2.936,8.02-4.402c-0.42-1.438-0.636-2.977-1.292-4.298
		c-4.41-8.879-8.913-17.712-13.386-26.561c-2.858,1.527-5.716,3.053-8.575,4.581C1075.119,344.204,1075.04,344.449,1075.015,344.712
		z"/>
	<path fill="#88A6A2" d="M1068.687,315.302c0.001,0,0.001,0,0.002-0.001c2.087,4.077,2.453,8.624,3.45,12.988
		c1.187,5.195,2.088,10.456,3.114,15.688c0,0,0,0,0.001,0c2.859-1.527,5.717-3.054,8.575-4.581
		c-4.325-7.671-8.635-15.35-12.999-22.999c-0.389-0.682-1.131-1.162-1.709-1.736c-0.214,0.166-0.359,0.379-0.434,0.639
		C1068.687,315.301,1068.687,315.301,1068.687,315.302z"/>
	<polygon fill="#88A6A2" points="412.819,1116.667 412.648,1116.74 412.648,1116.741 412.821,1116.988 413.08,1116.834 
		412.899,1116.633 	"/>
	<path fill="#8B4B29" d="M1061.821,522.963c0,0-0.008-0.085-0.008-0.085c-1.123,0.313-2.293,0.513-3.362,0.956
		c-26.45,10.96-53.319,20.785-80.537,29.656c-26.573,8.66-53.435,16.322-80.533,23.17c-20.893,5.279-41.911,9.979-63.062,14.094
		c-8.094,1.574-16.194,3.122-24.303,4.619c-1.638,0.302-3.328,0.32-4.994,0.468c-0.655,0.363-1.312,0.726-1.968,1.089c0,0,0,0,0,0
		c-0.352,1.628-0.434,3.375-1.098,4.862c-3.769,8.441-7.463,16.926-11.582,25.197c-7.949,15.958-16.052,31.843-24.312,47.643
		c-5.059,9.678-10.531,19.14-15.815,28.701c-6.261,11.329-12.894,22.436-19.643,33.48c-0.793,1.298-1.715,2.548-2.535,3.855
		c-0.235,0.373-0.461,0.751-0.674,1.136c-0.213,0.385-0.412,0.777-0.592,1.178c-0.45,1.002-0.782,2.063-0.911,3.22l0,0
		c3.522-0.312,7.049-0.578,10.574-0.871c3.524-0.293,7.045-0.615,10.554-1.037c17.397-2.095,34.809-4.121,52.146-6.651
		c17.831-2.601,35.614-5.574,53.357-8.726c32.52-5.778,64.755-12.886,96.679-21.38c8.952-2.382,17.89-4.818,26.848-7.179
		c0.719-0.19,1.454-0.313,2.195-0.419c0.741-0.106,1.487-0.194,2.224-0.312l0,0l0,0c0.854-0.535,1.708-1.069,2.562-1.603
		c0.51-1.235,0.873-2.559,1.554-3.691c5.719-9.501,11.597-18.908,17.223-28.463c4.432-7.527,8.802-15.107,12.802-22.869
		c8.548-16.588,16.847-33.294,23.972-50.573c5.257-12.748,10.452-25.507,14.722-38.622c2.654-8.151,5.202-16.338,7.843-24.493
		c0.676-2.09,1.119-4.168,0.679-6.355l0,0C1061.824,522.961,1061.822,522.962,1061.821,522.963z"/>
	<path fill="#C6D0CE" d="M978.245,699.941c-0.741,0.106-1.477,0.229-2.195,0.419c-8.958,2.361-17.896,4.797-26.848,7.179
		c-31.923,8.493-64.159,15.602-96.679,21.38c-17.743,3.153-35.526,6.125-53.357,8.726c-17.337,2.529-34.749,4.556-52.146,6.651
		c-3.509,0.422-7.029,0.744-10.554,1.037c-3.524,0.293-7.052,0.559-10.574,0.871c-2.78,0.388-5.56,0.775-8.339,1.163
		c1.605,0.249,3.209,0.499,5.03,0.782c-0.195,2.408-1.379,4.044-2.441,5.707c-3.076,4.815-6.112,9.658-9.297,14.401
		c-9.649,14.368-19.27,28.755-29.084,43.01c-5.332,7.745-11.055,15.221-16.548,22.857c-0.863,1.2-1.448,2.599-2.16,3.906
		c1.676,0.031,3.355,0.152,5.024,0.073c3.193-0.15,6.382-0.392,9.57-0.634c10.236-0.776,20.482-1.44,30.702-2.388
		c11.727-1.089,23.441-2.334,35.138-3.699c11.362-1.326,22.731-2.654,34.033-4.401c17.289-2.673,34.57-5.449,51.766-8.66
		c17.857-3.335,35.611-7.226,53.405-10.902c5.763-1.191,11.507-2.469,17.258-3.705c0,0,0.001,0,0.001,0
		c1.061-0.498,2.123-0.997,3.186-1.496c5.918-7.099,11.835-14.198,17.754-21.295c4.094-4.909,8.329-9.708,12.256-14.747
		c6.929-8.889,13.64-17.948,20.501-26.892c8.511-11.095,16.457-22.583,24.085-34.293c0.272-0.418,0.523-0.85,0.76-1.292
		c0.712-1.323,1.301-2.727,1.979-4.07l0,0C979.731,699.747,978.986,699.835,978.245,699.941z"/>
	<path fill="#C6D0CE" d="M1064.251,519.078c0.069-0.666,0.158-1.328,0.318-1.972c3.526-14.174,6.897-28.381,9.2-42.816
		c1.373-8.611,2.917-17.198,3.531-25.915c0.318-4.515,0.538-9.054,1.193-13.526c1.294-8.832,0.758-17.75,1.573-26.611
		c0.832-9.045-0.637-18.091-1.07-27.137c-0.808,0.215-1.697,0.283-2.414,0.669c-36.673,19.719-74.915,35.884-113.97,50.191
		c-29.084,10.654-58.646,19.812-88.597,27.71c-5.195,1.37-10.454,2.499-15.681,3.74c-0.002,0-0.116,0.205-0.116,0.205l-0.168-0.154
		c-1.049,0.28-2.098,0.561-3.146,0.841c-0.287,0.053-0.573,0.106-0.858,0.16h0c-1.002,0.269-2.003,0.539-3.006,0.809
		c-1.235,0.326-2.479,0.619-3.7,0.988c-1.058,0.319-2.09,0.723-3.132,1.089c1.271,0.244,2.541,0.488,4.039,0.775
		c-0.079,2.344-0.67,4.278-1.211,6.188c-3.398,11.976-6.648,24-10.333,35.888c-5.882,18.975-12.604,37.667-19.945,56.129
		c-3.232,8.127-6.721,16.15-10.036,24.245c-0.174,0.425-0.333,0.858-0.481,1.294c-0.445,1.308-0.798,2.654-1.218,3.974
		c1.666-0.148,3.356-0.166,4.994-0.468c8.109-1.497,16.209-3.044,24.303-4.619c21.151-4.114,42.17-8.815,63.062-14.094
		c27.099-6.848,53.96-14.51,80.533-23.17c27.218-8.87,54.087-18.696,80.537-29.656c1.069-0.443,2.239-0.643,3.362-0.956
		c0,0,0.008,0.085,0.008,0.085c0.001-0.001,0.003-0.002,0.005-0.003c0.096-0.061,0.193-0.122,0.289-0.183
		c0.301-0.19,0.602-0.381,0.902-0.571c0.343-0.375,0.687-0.751,1.03-1.127v0C1064.131,520.416,1064.182,519.744,1064.251,519.078z"
		/>
	<path fill="#C6D0CE" d="M717.425,960.901c-12.435,0.366-24.868,0.863-37.306,1.102c-29.596,0.57-59.182,0.101-88.754-1.216
		c-1.511-0.067-3.016-0.257-4.525-0.342c-8.218-0.467-16.437-0.918-24.657-1.375c-0.387,2.266-1.749,3.943-3.297,5.521
		c-2.233,2.274-4.498,4.521-6.66,6.862c-7.045,7.627-13.989,15.349-21.087,22.927c-7.103,7.583-14.343,15.039-21.529,22.543
		c-0.263,0.274-0.528,0.547-0.778,0.827c-0.752,0.84-1.374,1.75-1.432,2.991c-0.054,0.29,0.006,0.554,0.179,0.793
		c3.345,0.329,6.697,0.607,10.036,0.995c21.42,2.488,42.891,4.424,64.41,5.797c8.572,0.547,17.159,0.868,25.738,1.306
		c1.341,0.069,2.678,0.21,4.018,0.318c0.98-0.16,1.959-0.321,2.938-0.481c0.914-0.713,1.755-1.554,2.752-2.119
		c15.21-8.62,30.357-17.337,45.236-26.527c19.032-11.755,37.755-23.967,56.07-36.805c0.3-0.21,0.583-0.444,0.855-0.694
		c0.816-0.748,1.537-1.634,2.328-2.419c0,0-0.001,0-0.001,0c-0.755-0.002-1.511-0.014-2.266-0.02
		C718.936,960.879,718.18,960.879,717.425,960.901z"/>
	<path fill="#8B4B29" d="M851.039,465.27c1.002-0.27,2.004-0.54,3.006-0.809h0h0c0.137-0.063,0.277-0.108,0.42-0.135
		c0.143-0.026,0.29-0.035,0.439-0.025c1.047-0.28,2.096-0.56,3.146-0.841c0,0,0.285-0.051,0.284-0.051
		c5.227-1.24,10.486-2.37,15.681-3.74c29.951-7.897,59.513-17.055,88.597-27.71c39.055-14.307,77.297-30.473,113.97-50.191
		c0.717-0.386,1.605-0.453,2.414-0.669c0.05-0.272,0.144-0.528,0.282-0.767c-0.757-7.943-1.421-15.898-2.307-23.827
		c-0.442-3.955-1.291-7.864-1.956-11.794c-0.769,0.333-1.567,0.612-2.303,1.006c-57.511,30.813-117.655,55.177-180.277,73.458
		c-9.86,2.878-19.782,5.542-29.689,8.258c-1.609,0.441-3.287,0.635-4.933,0.942c-0.379,0.307-0.758,0.614-1.138,0.921c0,0,0,0,0,0
		c-1.341,9.449-3.212,18.791-5.619,28.025c-0.422,1.62-0.836,3.243-1.24,4.867c-0.122,0.492-0.113,0.933-0.005,1.336
		C849.991,464.198,850.449,464.762,851.039,465.27z"/>
	<path fill="#C6D0CE" d="M862.746,427.435c9.907-2.716,19.829-5.38,29.689-8.258c62.622-18.281,122.767-42.645,180.277-73.458
		c0.736-0.394,1.533-0.674,2.303-1.006c0.025-0.263,0.104-0.508,0.238-0.735c-1.026-5.232-1.927-10.492-3.114-15.688
		c-0.997-4.364-1.363-8.911-3.45-12.988c0,0-0.001,0-0.002,0.001c-1.379,0.622-2.789,1.186-4.139,1.87
		c-14.289,7.238-28.831,13.927-43.565,20.211c-25.604,10.919-51.748,20.369-78.292,28.715c-25.253,7.94-50.838,14.665-76.647,20.544
		c-0.286,0.065-0.569,0.14-0.851,0.221c-0.846,0.243-1.68,0.542-2.522,0.799l0,0c-0.063,2.173,0.078,4.375-0.223,6.514
		c-1.138,8.098-2.466,16.17-3.623,24.266c-0.117,0.823-0.219,1.648-0.31,2.475c-0.274,2.48-0.455,4.974-0.703,7.459
		C859.459,428.069,861.136,427.876,862.746,427.435z"/>
	<path fill="#8B4B29" d="M607.763,1029.631c-8.579-0.438-17.166-0.759-25.738-1.306c-21.52-1.372-42.99-3.309-64.41-5.797
		c-3.339-0.388-6.691-0.666-10.036-0.995c-2.163,0.026-3.742,1.114-5.221,2.606c-7.546,7.609-15.141,15.167-22.726,22.736
		c-0.298,0.298-0.597,0.595-0.88,0.901c-0.851,0.918-1.569,1.916-1.763,3.25c0.806,0.228,1.597,0.559,2.417,0.667
		c13.504,1.788,26.999,3.649,40.523,5.281c2.984,0.36,5.972,0.692,8.961,1.013c3.726,0.4,7.454,0.78,11.183,1.155
		c3.655,0.368,7.311,0.734,10.965,1.116c0,0,0,0,0.001,0c1.307-0.038,2.615-0.075,3.923-0.113c1.254-0.818,2.448-1.754,3.773-2.435
		c15.226-7.82,30.484-15.579,45.702-23.415c0.631-0.325,1.254-0.668,1.87-1.023c1.849-1.065,3.644-2.233,5.477-3.325
		C610.442,1029.841,609.104,1029.7,607.763,1029.631z"/>
	
		<line fill="none" stroke="#8B4B29" stroke-width="0" stroke-linecap="round" stroke-linejoin="round" x1="1061.821" y1="522.963" x2="1061.826" y2="522.96"/>
	<path fill="none" stroke="#8B4B29" stroke-width="0" stroke-linecap="round" stroke-linejoin="round" d="M1062.115,522.777
		c-0.096,0.061-0.193,0.122-0.289,0.183"/>
	<path fill="none" stroke="#8B4B29" stroke-width="0" stroke-linecap="round" stroke-linejoin="round" d="M1062.115,522.777
		c0.301-0.19,0.602-0.381,0.902-0.571"/>
	<path fill="#A25931" d="M854.465,464.327c-0.143,0.026-0.283,0.071-0.42,0.135h0c0.286-0.053,0.571-0.106,0.858-0.16
		C854.754,464.291,854.608,464.3,854.465,464.327z"/>
	<polygon fill="#A25931" points="858.049,463.461 858.218,463.615 858.333,463.41 	"/>
</g>
</svg>
